<?xml version="1.0" standalone="no"?>
<!DOCTYPE svg PUBLIC "-//W3C//DTD SVG 20010904//EN"
 "http://www.w3.org/TR/2001/REC-SVG-20010904/DTD/svg10.dtd">
<svg version="1.0" xmlns="http://www.w3.org/2000/svg"
 width="1080.000000pt" height="1080.000000pt" viewBox="0 0 1080.000000 1080.000000"
 preserveAspectRatio="xMidYMid meet">

<g transform="translate(0.000000,1080.000000) scale(0.100000,-0.100000)"
fill="#39256e" stroke="none">
<path d="M4305 10395 c-363 -127 -449 -153 -645 -190 -279 -53 -294 -58 -360
-125 -38 -38 -72 -88 -109 -160 -50 -98 -53 -109 -48 -161 7 -75 50 -173 143
-326 42 -70 77 -132 77 -138 0 -6 -75 -116 -168 -245 -288 -403 -520 -767
-595 -934 -53 -117 -82 -283 -96 -536 -7 -143 -8 -144 -103 -243 -90 -93 -159
-144 -596 -437 -81 -54 -132 -108 -141 -148 -3 -15 -8 -33 -10 -40 -2 -7 1
-34 7 -58 15 -58 80 -130 181 -201 87 -61 93 -73 93 -173 -1 -81 -25 -131
-104 -213 -56 -59 -56 -59 -56 -122 0 -56 4 -68 37 -116 20 -30 60 -76 88
-104 27 -27 50 -53 50 -57 0 -4 -22 -28 -50 -54 -27 -25 -59 -66 -71 -91 -19
-40 -21 -55 -15 -131 3 -47 8 -87 10 -89 2 -2 34 -12 72 -23 38 -11 75 -28 82
-37 21 -28 14 -75 -23 -151 -48 -102 -68 -183 -63 -268 8 -163 121 -248 369
-275 107 -12 306 -1 489 27 293 44 557 -2 720 -125 144 -108 226 -237 390
-616 45 -104 106 -237 135 -295 45 -90 65 -151 133 -405 126 -475 158 -623
185 -882 l12 -118 32 100 c39 121 59 267 44 322 -6 21 -11 74 -11 117 0 44 -9
127 -19 185 -10 58 -24 183 -30 276 -6 94 -17 202 -25 240 -8 39 -20 115 -26
170 -15 143 -59 352 -85 405 -12 25 -39 99 -60 165 -21 66 -57 176 -80 245
-23 69 -45 142 -49 162 -15 85 -157 244 -271 305 -132 70 -346 98 -531 70
-440 -68 -682 -31 -753 116 -37 77 -23 194 37 312 14 29 25 68 26 93 1 49 -8
57 -89 82 l-50 16 -9 55 c-14 89 -3 124 64 193 l58 61 -60 65 c-83 89 -98 115
-98 175 0 47 4 54 51 105 66 70 89 119 89 192 0 80 -11 101 -78 147 -168 113
-210 219 -124 311 15 15 128 96 252 179 235 157 345 244 405 323 l36 46 9 156
c12 215 39 346 92 451 74 146 244 406 485 743 96 134 172 249 170 257 -3 7
-37 65 -76 129 -129 215 -139 274 -71 406 84 161 114 181 327 221 240 45 302
62 530 143 115 41 238 80 272 87 84 16 253 7 459 -26 147 -23 180 -25 335 -19
199 7 351 -5 490 -40 94 -24 593 -202 792 -283 145 -59 344 -159 442 -222 97
-62 158 -125 257 -265 110 -156 402 -524 584 -738 85 -101 175 -210 200 -243
95 -128 105 -171 152 -668 33 -357 71 -556 132 -707 52 -125 125 -221 194
-252 33 -15 30 -30 -3 -22 -57 13 -95 38 -149 97 l-55 61 8 -84 c13 -138 10
-398 -6 -460 -41 -162 -146 -292 -381 -471 -73 -55 -111 -75 -256 -132 -93
-37 -191 -80 -217 -97 -62 -39 -132 -104 -159 -148 l-22 -36 -14 35 c-11 25
-13 59 -9 133 l6 100 -35 -54 c-19 -29 -63 -85 -98 -124 -76 -85 -105 -140
-112 -209 -8 -76 -13 -86 -27 -62 -6 11 -14 64 -17 119 l-5 98 -120 -133 c-81
-89 -137 -142 -171 -161 -34 -19 -110 -42 -223 -68 -142 -33 -188 -40 -259
-38 l-87 2 -86 -61 c-95 -68 -112 -89 -140 -171 -30 -87 -39 -175 -29 -281 11
-114 54 -212 147 -336 83 -110 433 -467 617 -630 83 -74 192 -170 241 -215
103 -94 162 -127 184 -105 12 11 11 18 -7 42 -11 15 -34 55 -52 88 -18 33 -53
89 -79 124 -25 35 -56 82 -69 104 -43 78 -137 193 -250 307 -128 129 -221 258
-251 348 -44 131 -24 321 47 432 l29 46 124 27 c253 57 284 75 459 273 l115
131 5 -101 c5 -95 22 -154 48 -170 5 -3 12 28 15 68 10 112 37 172 121 268 40
46 87 103 104 127 l32 45 -6 -71 c-5 -58 -3 -82 16 -139 23 -68 23 -68 39 -44
103 157 187 213 488 330 149 57 169 69 270 146 134 104 272 239 326 318 117
173 144 354 111 738 l-6 73 58 -56 c85 -82 153 -110 219 -91 l30 9 -45 20
c-163 74 -267 258 -335 596 -29 143 -47 289 -75 592 -24 260 -45 420 -65 499
-30 115 -73 179 -302 448 -241 284 -608 753 -732 935 -92 135 -132 176 -250
255 -118 78 -380 210 -571 286 -231 93 -757 281 -853 306 -146 38 -237 46
-532 46 -243 0 -286 3 -425 26 -111 18 -207 27 -340 31 l-185 4 -190 -66z"/>
</g>
</svg>
