<svg version="1.2" xmlns="http://www.w3.org/2000/svg" viewBox="0 0 953 957" width="953" height="957">
	<title>female face 2</title>
	<defs>
		<clipPath clipPathUnits="userSpaceOnUse" id="cp1">
			<path d="m0 0h953v1277h-953z"/>
		</clipPath>
		<clipPath clipPathUnits="userSpaceOnUse" id="cp2">
			<path d="m632.99 866.39c-27.48-52.28-40.4-108.17-32.57-172.28l23.44-0.31c58.28-14.61 44.8-3.65 86.32-50.58 1.85 10.43-4.06 20.88 5.55 31.31-0.13-34.54 14.55-30.71 30.77-58.9-2 16.84-4.1 16.63 2.21 33.12 16.66-28.75 40.12-30.79 72.32-44.91 62.63-45.42 65.34-62.65 58.51-134.39 11.71 16.51 22.8 21.87 33.44 18.39-53.72-15.52-44.3-140.18-56.67-186.55-5.55-20.76-28.17-38.6-66.96-88.19l-34.78-44.45c-11.78-15.04-17.11-28.63-32.7-39.57-29.03-20.42-66.51-34.68-103.45-48.06-71.38-25.84-66.43-26.4-143.49-24.54-79.72-12.53-64.57-11.19-129.59 11.35-18.56 6.43-40.95 10.06-61.56 13.71-17.76 3.13-23.3 17.02-31.53 32.6-9.15 17.33 14.56 45.32 23.01 61.66-33.85 46.7-56.03 76.13-81.52 121.39-16.53 29.36-12.01 75.67-14.65 79.46-17.3 24.88-48.55 39.49-72.96 57.81-9.78 5.85-19.94 11.93-18.99 25.16 0.84 11.96 19.87 23.83 29.23 30.07 5.05 19.85 0.23 27.66-15.11 41.53-5.11 16.85 4.99 23.35 19.5 38.14-17.77 17.19-17.38 14.04-15.36 39.26l12.37 3.47c12.52 3.5 3.45 18.73-0.28 25.16-25.26 64.69 55.39 55.19 93.1 49.44 29.64-4.54 57.31 1.09 74.07 13.04 31.92 22.8 40.78 68.59 64.61 111.08 18.23 68.32 29.22 97.44 31.61 163 0.55 15.37 0.04 16.28-5.12 30.72-21.93 21.27-22.78 40.77-29.06 68.63-4.23 18.69-15.71 44.78-19.75 64.2-17.51 46.78-32.83 83.96-49.69 120.64h526.15c-22.12-105.72-57.89-224.18-111.58-295.59-23.81-31.67-44.53-68.85-58.8-96.02z"/>
		</clipPath>
	</defs>
	<style>
		tspan { white-space:pre } 
		.s0 { fill: #ffffff } 
		.s1 { fill: #3a256e } 
		.s2 { fill: #76d3fb } 
		.s3 { fill: #fbe776 } 
		.s4 { fill: #cbea99 } 
		.s5 { fill: #a68de5 } 
		.s6 { fill: #d08686 } 
		.s7 { fill: #231f20 } 
		.t8 { font-size: 24px;fill: #000000;font-weight: 400;font-family: "DejaVuSans", "DejaVu Sans" } 
	</style>
	<g id="Clip-Path" clip-path="url(#cp1)">
		<g>
			<g id="Clip-Path" clip-path="url(#cp2)">
				<g>
					<path fill-rule="evenodd" class="s0" d="m680.9 215q0 2.5-0.4 5h12.5c5.5 0 10 4.5 10 10v41.3q1.9-0.3 3.9-0.3c17.1 0 31 13.9 31 31 0 17-13.9 30.9-31 30.9q-2 0-3.9-0.2v42.3c0 5.5-4.5 10-10 10h-53.5c-2.1-19.7-18.8-35-39-35q-2.3 0-4.5 0.3v-120.3c0-5.5 4.5-10 10-10h13.4q-0.4-2.5-0.4-5c0-17.1 13.9-31 30.9-31 17.1 0 31 13.9 31 31z"/>
					<path fill-rule="evenodd" class="s0" d="m479.7 57c0-5.5 4.5-10 10-10h377c5.5 0 10 4.5 10 10v145c0 5.5-4.5 10-10 10h-33.4c-1.7-20.2-18.5-36-39.1-36-20.6 0-37.5 15.8-39.1 36h-65.8c-1.7-20.2-18.5-36-39.1-36-20.6 0-37.4 15.8-39.1 36h-47.3q0.1 1.5 0.1 3c0 17-13.9 30.9-31 30.9-17 0-30.9-13.9-30.9-30.9q0-1.5 0.1-3h-12.4c-5.5 0-10-4.5-10-10v-34c19.1-2.7 33.7-19 33.7-38.8 0-19.8-14.6-36.1-33.7-38.8z"/>
					<path fill-rule="evenodd" class="s1" d="m473.9 160.9c-17.1 0-30.9-13.8-30.9-30.9 0-17.2 13.8-31 30.9-31 17.2 0 31 13.8 31 31 0 17.1-13.8 30.9-31 30.9z"/>
					<path fill-rule="evenodd" class="s0" d="m490 220.2h4.3c2.5 19.3 18.9 34.2 38.9 34.2 20 0 36.4-14.9 38.9-34.2h4.9c5.5 0 10 4.5 10 10v122.1c-13.5 5.3-23.4 17.9-24.8 32.9h-72.2c-5.5 0-10-4.5-10-10v-34.2c18.9-2.8 33.4-19.1 33.4-38.8 0-19.7-14.5-36-33.4-38.8v-33.2c0-5.5 4.5-10 10-10z"/>
					<path fill-rule="evenodd" class="s0" d="m374 47c-5.5 0-10 4.5-10 10v42.2q-1.7-0.2-3.4-0.2c-17.1 0-31 13.9-31 31 0 17 13.9 30.9 31 30.9q1.7 0 3.4-0.2v41.3c0 5.5 4.5 10 10 10h4.1c1.7-20.2 18.5-36 39.1-36 20.6 0 37.4 15.8 39.1 36h4.7c5.5 0 10-4.5 10-10v-41.2q1.5 0.1 2.9 0.1c17.1 0 31-13.9 31-30.9 0-17.1-13.9-31-31-31q-1.4 0-2.9 0.1v-42.1c0-5.5-4.5-10-10-10z"/>
					<path fill-rule="evenodd" class="s2" d="m755.5 566.8h-103.9q0.3-2.1 0.3-4.2c0-17.1-13.8-30.9-30.9-30.9-17.1 0-31 13.8-31 30.9q0 2.1 0.3 4.2h-41.7c-5.5 0-10 4.5-10 10v41.8q-2-0.2-4.1-0.2c-17.1 0-31 13.8-31 30.9 0 17.1 13.9 31 31 31q2.1 0 4.1-0.3v41.8c0 5.6 4.5 10 10 10h318.4c5.5 0 10-4.4 10-10v-145c0-5.5-4.5-10-10-10h-33.6c-2.2 19.5-18.8 34.7-38.9 34.7-20.2 0-36.7-15.2-39-34.7z"/>
					<path fill-rule="evenodd" class="s3" d="m486.1 567c-2.2 19.5-18.8 34.6-38.9 34.6-20.1 0-36.7-15.1-38.9-34.6h-95.5c-2.2 19.5-18.8 34.6-38.9 34.6-20.1 0-36.7-15.1-39-34.6h-33.5c-5.6 0-10 4.4-10 10v41q-2.1-0.3-4.2-0.3c-17.1 0-30.9 13.9-30.9 31 0 17.1 13.8 30.9 30.9 30.9q2.1 0 4.2-0.2v42.6c0 5.6 4.4 10 10 10h318.3c5.6 0 10-4.4 10-10v-33.9c-19.7-2.1-35-18.7-35-39 0-20.3 15.3-36.9 35-39v-33.1c0-5.6-4.4-10-10-10z"/>
					<path fill-rule="evenodd" class="s4" d="m825.1 215.8q0 2.1-0.3 4.2h41.9c5.6 0 10 4.5 10 10v318.2c0 5.6-4.4 10-10 10h-41.3q0.3 2.2 0.3 4.4c0 17.1-13.8 31-30.9 31-17.1 0-31-13.9-31-31q0-2.2 0.3-4.4h-42.6c-5.5 0-10-4.4-10-10v-33.4c19.6-2.1 34.9-18.8 34.9-39 0-20.2-15.3-36.8-34.9-39v-95.6c19.6-2.2 34.9-18.8 34.9-39 0-20.2-15.3-36.8-34.9-39v-33.2c0-5.5 4.5-10 10-10h41.9q-0.2-2.1-0.2-4.2c0-17.1 13.8-30.9 30.9-30.9 17.1 0 31 13.8 31 30.9z"/>
					<path fill-rule="evenodd" class="s5" d="m304.8 388.7q0 2.1-0.2 4.1h41.8c5.5 0 10 4.5 10 10v33.6c-19.7 2-35.1 18.7-35.1 39 0 20.2 15.4 36.9 35.1 38.9v33.6c0 5.5-4.5 10-10 10h-41.8q0.2 2 0.2 4.1c0 17.1-13.8 31-30.9 31-17.1 0-31-13.9-31-31q0-2.1 0.3-4.1h-60v51.8c-19.8 2-35.2 18.7-35.2 39 0 20.3 15.4 36.9 35.2 39v33.5c0 5.5-4.5 10-10 10h-145.2c-5.5 0-10-4.5-10-10v-183.3q0-0.5 0.1-1v-134.1c0-5.5 4.4-10 10-10h33.5c2.1 19.7 18.7 35.1 39 35.1 20.2 0 36.9-15.4 39-35.1h103.6q-0.3-2-0.3-4.1c0-17.1 13.9-31 31-31 17.1 0 30.9 13.9 30.9 31zm24.8 86.7c0-17.1 13.9-31 31-31 17 0 30.9 13.9 30.9 31 0 17.1-13.9 30.9-30.9 30.9-17.1 0-31-13.8-31-30.9z"/>
					<path fill-rule="evenodd" class="s0" d="m447.5 220q0.4-2.5 0.4-5c0-17.1-13.9-31-31-31-17 0-30.9 13.9-30.9 31q0 2.5 0.4 5h-12.8c-5.5 0-10 4.5-10 10v42.1q-1.3-0.1-2.7-0.1c-17 0-30.9 13.9-30.9 31 0 17 13.9 30.9 30.9 30.9q1.4 0 2.7-0.1v41.2c0 5.5 4.5 10 10 10h4.6c1.8-19.9 18.6-35.5 39-35.5 20.4 0 37.2 15.6 39 35.5h4.4c5.5 0 10-4.5 10-10v-41.2q1.5 0.1 3 0.1c17.1 0 30.9-13.9 30.9-30.9 0-17.1-13.8-31-30.9-31q-1.5 0-3 0.1v-42.1c0-5.5-4.5-10-10-10z"/>
					<path fill-rule="evenodd" class="s0" d="m693 558h-33.3c-2.4-19.4-18.9-34.4-38.9-34.4-20 0-36.5 15-38.9 34.4h-34c-5.5 0-10-4.5-10-10v-41.9q-1.7 0.2-3.4 0.2c-17.1 0-31-13.9-31-30.9 0-17.1 13.9-31 31-31q1.7 0 3.4 0.2v-41.7c0-5.5 4.5-10 10-10h22.5q-0.3-2-0.3-4.2c0-17.1 13.9-31 31-31 17 0 30.9 13.9 30.9 31q0 2.2-0.3 4.2h61.3c5.5 0 10 4.5 10 10v41.8q2.1-0.3 4.2-0.3c17.1 0 31 13.9 31 31 0 17-13.9 30.9-31 30.9q-2.1 0-4.2-0.3v42c0 5.5-4.5 10-10 10z"/>
					<path fill-rule="evenodd" class="s0" d="m416.3 562.8q0-2.5 0.4-4.9h-42c-5.5 0-10-4.5-10-10v-41.8q-1.9 0.2-3.9 0.2c-17.1 0-30.9-13.8-30.9-30.9 0-17.1 13.8-31 30.9-31q2 0 3.9 0.2v-41.8c0-5.5 4.5-10 10-10h11.7q-0.3-2-0.3-4.1c0-17.1 13.9-31 31-31 17 0 30.9 13.9 30.9 31q0 2.1-0.3 4.1h72c5.6 0 10 4.5 10 10v33.5c-19.8 2-35.3 18.7-35.3 39.1 0 20.3 15.5 37 35.3 39v33.5c0 5.5-4.4 10-10 10h-41.9q0.4 2.4 0.4 4.9c0 17.1-13.9 31-31 31-17.1 0-30.9-13.9-30.9-31z"/>
					<path fill-rule="evenodd" class="s6" d="m18.1 57c0-5.5 4.4-10 10-10h318.3c5.5 0 10 4.5 10 10v33.2c-19.7 2.1-35.1 18.7-35.1 39 0 20.3 15.4 36.9 35.1 39v95c-19.7 2.1-35.1 18.7-35.1 39 0 20.3 15.4 36.9 35.1 39v34.2c0 5.5-4.5 10-10 10h-33.4c-1.7-20.1-18.6-35.9-39.1-35.9-20.5 0-37.4 15.8-39.1 35.9h-103.4q0.1 1.6 0.1 3.3c0 17.1-13.8 30.9-30.9 30.9-17.1 0-31-13.8-31-30.9q0-1.7 0.2-3.3h-41.7c-5.6 0-10-4.5-10-10z"/>
					<path class="s7" d="m416.9 469v-5.7l0.7 1.9-6.2-10.2h3.5l4.7 7.9h-2l4.8-7.9h3.1l-6.1 10.2 0.7-1.9v5.7zm13.9 0.2q-1.7 0-3-0.8-1.3-0.7-2.1-1.9-0.8-1.3-0.8-2.9 0-1.6 0.8-2.8 0.8-1.3 2.1-2 1.3-0.7 3-0.7 1.7 0 3.1 0.7 1.3 0.7 2.1 1.9 0.7 1.3 0.7 2.9 0 1.6-0.7 2.9-0.8 1.2-2.1 1.9-1.4 0.8-3.1 0.8zm0-2.6q0.8 0 1.4-0.4 0.7-0.3 1-1 0.4-0.7 0.4-1.6 0-0.9-0.4-1.6-0.3-0.6-1-1-0.6-0.4-1.4-0.4-0.7 0-1.4 0.4-0.6 0.4-1 1-0.3 0.7-0.3 1.6 0 0.9 0.3 1.6 0.4 0.7 1 1 0.7 0.4 1.4 0.4zm12.8 2.6q-1.4 0-2.4-0.6-1.1-0.5-1.6-1.5-0.6-1.1-0.6-2.8v-6.1h3.1v5.7q0 1.3 0.6 1.9 0.5 0.7 1.6 0.7 0.7 0 1.3-0.3 0.5-0.4 0.8-1 0.3-0.7 0.4-1.6v-5.4h3.1v10.8h-3v-3l0.6 0.9q-0.6 1.1-1.6 1.7-1.1 0.6-2.3 0.6zm-34 23.9q-1.5 0-2.7-0.7-1.2-0.7-1.8-1.9-0.7-1.2-0.7-2.8 0-1.6 0.7-2.8 0.6-1.2 1.8-1.8 1.2-0.7 2.7-0.7 1.4 0 2.5 0.6 1.1 0.6 1.7 1.8 0.7 1.2 0.7 2.9 0 1.7-0.7 2.9-0.6 1.2-1.7 1.9-1.1 0.6-2.5 0.6zm0.1-1.3q1.1 0 2-0.5 0.9-0.5 1.4-1.4 0.5-0.9 0.5-2.2 0-1.2-0.5-2.1-0.5-0.9-1.4-1.4-0.9-0.6-2-0.6-1.1 0-2 0.6-0.8 0.5-1.4 1.4-0.5 0.9-0.5 2.1 0 1.3 0.5 2.2 0.6 0.9 1.4 1.4 0.9 0.5 2 0.5zm4 1.2v-3.2l0.1-2.1-0.2-2.1v-7.4h1.4v14.8zm5-8.7v-1.2h8.7v1.2zm0 4.6v-1.2h8.7v1.2zm16.9 4.2q-1.6 0-2.9-0.8-1.2-0.9-2-2.5-0.7-1.6-0.7-3.8 0-2.2 0.7-3.8 0.8-1.6 2-2.5 1.3-0.8 2.9-0.8 1.6 0 2.9 0.8 1.2 0.9 2 2.5 0.7 1.6 0.7 3.8 0 2.2-0.7 3.8-0.8 1.6-2 2.5-1.3 0.8-2.9 0.8zm0-1.3q1.2 0 2.2-0.7 0.9-0.6 1.4-1.9 0.5-1.3 0.5-3.2 0-1.9-0.5-3.2-0.5-1.3-1.4-1.9-1-0.7-2.2-0.7-1.2 0-2.1 0.7-1 0.6-1.5 1.9-0.5 1.3-0.5 3.2 0 1.9 0.5 3.2 0.5 1.3 1.5 1.9 0.9 0.7 2.1 0.7zm8.7 1.3q-0.4 0-0.7-0.3-0.3-0.3-0.3-0.8 0-0.5 0.3-0.8 0.3-0.3 0.7-0.3 0.5 0 0.8 0.3 0.3 0.3 0.3 0.8 0 0.5-0.3 0.8-0.3 0.3-0.8 0.3zm8.8 0q-1.7 0-2.9-0.8-1.3-0.9-2-2.5-0.7-1.6-0.7-3.8 0-2.2 0.7-3.8 0.7-1.6 2-2.5 1.2-0.8 2.9-0.8 1.6 0 2.8 0.8 1.3 0.9 2 2.5 0.8 1.6 0.8 3.8 0 2.2-0.8 3.8-0.7 1.6-2 2.5-1.2 0.8-2.8 0.8zm0-1.3q1.2 0 2.1-0.7 0.9-0.6 1.5-1.9 0.5-1.3 0.5-3.2 0-1.9-0.5-3.2-0.6-1.3-1.5-1.9-0.9-0.7-2.1-0.7-1.2 0-2.2 0.7-0.9 0.6-1.4 1.9-0.6 1.3-0.6 3.2 0 1.9 0.6 3.2 0.5 1.3 1.4 1.9 1 0.7 2.2 0.7z"/>
					<path class="s7" d="m247.4 235.4v-14h6q1.9 0 3.3 0.6 1.3 0.6 2.1 1.8 0.7 1.1 0.7 2.7 0 1.5-0.7 2.7-0.8 1.1-2.1 1.7-1.4 0.6-3.3 0.6h-4.2l1.4-1.4v5.3zm8.9 0l-3.5-5.1h3.5l3.5 5.1zm-5.7-5l-1.4-1.5h4.1q1.5 0 2.2-0.6 0.8-0.7 0.8-1.8 0-1.2-0.8-1.8-0.7-0.7-2.2-0.7h-4.1l1.4-1.5zm11.3 5v-10.8h3.1v10.8zm1.6-12.3q-0.9 0-1.4-0.5-0.6-0.5-0.6-1.2 0-0.8 0.6-1.3 0.5-0.5 1.4-0.5 0.8 0 1.4 0.5 0.5 0.5 0.5 1.2 0 0.8-0.5 1.3-0.6 0.5-1.4 0.5zm8 12.4q-1.3 0-2.6-0.3-1.3-0.3-2-0.8l1-2.3q0.8 0.5 1.8 0.8 1 0.3 2 0.3 1 0 1.5-0.3 0.4-0.3 0.4-0.7 0-0.4-0.3-0.6-0.4-0.2-0.9-0.3-0.6-0.1-1.3-0.2-0.7-0.1-1.4-0.2-0.7-0.2-1.3-0.6-0.6-0.3-0.9-0.9-0.4-0.6-0.4-1.5 0-1 0.6-1.8 0.6-0.8 1.7-1.2 1.2-0.5 2.7-0.5 1.1 0 2.3 0.3 1.1 0.2 1.9 0.7l-1.1 2.2q-0.8-0.5-1.6-0.6-0.7-0.2-1.5-0.2-1 0-1.5 0.3-0.5 0.3-0.5 0.7 0 0.4 0.4 0.6 0.3 0.2 0.9 0.3 0.6 0.1 1.3 0.2 0.7 0.1 1.4 0.3 0.7 0.2 1.2 0.5 0.6 0.3 1 0.9 0.3 0.6 0.3 1.5 0 1-0.6 1.8-0.6 0.7-1.7 1.2-1.1 0.4-2.8 0.4zm9.6-2.3l0.1-3.8 5-4.8h3.7l-4.8 4.9-1.6 1.3zm-2.6 2.2v-14.8h3.1v14.8zm8.1 0l-3.7-4.5 2-2.4 5.4 6.9zm-46 24.1q-1.5 0-2.7-0.7-1.2-0.6-1.8-1.8-0.7-1.3-0.7-2.8 0-1.6 0.7-2.8 0.6-1.2 1.8-1.9 1.2-0.7 2.7-0.7 1.4 0 2.5 0.6 1.1 0.7 1.7 1.9 0.7 1.1 0.7 2.9 0 1.7-0.7 2.9-0.6 1.2-1.7 1.8-1.1 0.6-2.5 0.6zm0.1-1.2q1.1 0 2-0.5 0.9-0.6 1.4-1.5 0.5-0.9 0.5-2.1 0-1.3-0.5-2.2-0.5-0.9-1.4-1.4-0.9-0.5-2-0.5-1.1 0-2 0.5-0.8 0.5-1.4 1.4-0.5 0.9-0.5 2.2 0 1.2 0.5 2.1 0.6 0.9 1.4 1.5 0.9 0.5 2 0.5zm4 1.1v-3.1l0.1-2.2-0.2-2.1v-7.4h1.4v14.8zm4.8-8.7v-1.2h8.7v1.2zm0 4.6v-1.2h8.7v1.2zm10.9 0.4v-1l7.4-9.3h1.6l-7.4 9.3-0.7-0.2h11.2v1.2zm7.9 3.7v-3.7l0.1-1.2v-3.3h1.4v8.2zm7 0.1q-0.4 0-0.8-0.3-0.3-0.3-0.3-0.8 0-0.5 0.3-0.8 0.4-0.3 0.8-0.3 0.4 0 0.7 0.3 0.4 0.3 0.4 0.8 0 0.5-0.4 0.8-0.3 0.3-0.7 0.3zm5.4-0.1l6-13.3 0.5 0.6h-8.7l0.7-0.7v3.3h-1.4v-3.9h10.3v1l-5.9 13zm14.5 0.1q-1.6 0-2.8-0.8-1.3-0.9-2-2.4-0.7-1.6-0.7-3.9 0-2.2 0.7-3.8 0.7-1.6 2-2.4 1.2-0.9 2.8-0.9 1.7 0 2.9 0.9 1.3 0.8 2 2.4 0.7 1.6 0.7 3.8 0 2.3-0.7 3.9-0.7 1.5-2 2.4-1.2 0.8-2.9 0.8zm0-1.3q1.3 0 2.2-0.6 0.9-0.7 1.4-2 0.6-1.3 0.6-3.2 0-1.9-0.6-3.1-0.5-1.3-1.4-2-0.9-0.7-2.2-0.7-1.2 0-2.1 0.7-0.9 0.7-1.5 2-0.5 1.2-0.5 3.1 0 1.9 0.5 3.2 0.6 1.3 1.5 2 0.9 0.6 2.1 0.6z"/>
					<path class="s7" d="m558.7 469v-14h6.3q2.3 0 4 0.9 1.8 0.8 2.8 2.4 0.9 1.6 0.9 3.7 0 2.1-0.9 3.7-1 1.6-2.8 2.4-1.7 0.9-4 0.9zm3.3-2.7h2.9q1.4 0 2.4-0.5 1.1-0.5 1.6-1.5 0.6-1 0.6-2.3 0-1.3-0.6-2.3-0.5-1-1.6-1.5-1-0.5-2.4-0.5h-2.9zm13.2 2.6v-10.7h3.1v10.7zm1.6-12.2q-0.9 0-1.4-0.5-0.5-0.5-0.5-1.3 0-0.7 0.5-1.2 0.5-0.5 1.4-0.5 0.9 0 1.4 0.5 0.5 0.4 0.5 1.2 0 0.7-0.5 1.3-0.5 0.5-1.4 0.5zm8.3 12.4q-1.4 0-2.7-0.3-1.2-0.4-2-0.9l1.1-2.2q0.7 0.4 1.7 0.7 1 0.3 2 0.3 1.1 0 1.5-0.2 0.5-0.3 0.5-0.8 0-0.3-0.4-0.5-0.3-0.2-0.9-0.3-0.6-0.1-1.3-0.2-0.7-0.1-1.4-0.3-0.7-0.2-1.2-0.5-0.6-0.3-1-0.9-0.3-0.6-0.3-1.5 0-1 0.6-1.8 0.6-0.8 1.7-1.2 1.1-0.5 2.7-0.5 1.1 0 2.2 0.2 1.1 0.3 1.9 0.7l-1 2.3q-0.8-0.5-1.6-0.7-0.8-0.1-1.5-0.1-1.1 0-1.6 0.2-0.4 0.3-0.4 0.8 0 0.4 0.3 0.6 0.4 0.2 0.9 0.3 0.6 0.1 1.3 0.2 0.7 0.1 1.4 0.3 0.7 0.1 1.3 0.5 0.5 0.3 0.9 0.9 0.4 0.5 0.4 1.5 0 1-0.6 1.7-0.6 0.8-1.8 1.2-1.1 0.5-2.7 0.5zm12.4 0q-1.8 0-3.1-0.7-1.4-0.7-2.2-2-0.7-1.3-0.7-2.9 0-1.6 0.7-2.8 0.8-1.3 2.2-2 1.3-0.7 3.1-0.7 1.7 0 2.9 0.7 1.3 0.7 1.9 2l-2.4 1.3q-0.4-0.7-1.1-1.1-0.6-0.3-1.3-0.3-0.8 0-1.5 0.3-0.6 0.4-1 1-0.4 0.7-0.4 1.6 0 1 0.4 1.6 0.4 0.7 1 1.1 0.7 0.3 1.5 0.3 0.7 0 1.3-0.3 0.7-0.4 1.1-1.2l2.4 1.4q-0.6 1.3-1.9 2-1.2 0.7-2.9 0.7zm6.8-0.2v-10.7h3v3l-0.4-0.9q0.4-1.1 1.5-1.7 1.1-0.6 2.6-0.6v2.9q-0.2 0-0.4 0-0.1-0.1-0.3-0.1-1.3 0-2.1 0.8-0.8 0.7-0.8 2.2v5.1zm14 0.2q-1.8 0-3.2-0.7-1.4-0.8-2.2-2-0.7-1.3-0.7-2.9 0-1.6 0.7-2.8 0.8-1.3 2.1-2 1.3-0.7 2.9-0.7 1.6 0 2.9 0.7 1.2 0.6 2 1.9 0.7 1.2 0.7 3 0 0.2 0 0.4 0 0.2 0 0.4h-8.8v-1.8h7.1l-1.2 0.5q0-0.8-0.3-1.4-0.4-0.6-1-1-0.6-0.3-1.4-0.3-0.8 0-1.4 0.3-0.6 0.4-0.9 1-0.4 0.6-0.4 1.5v0.5q0 0.8 0.4 1.5 0.4 0.7 1.1 1 0.7 0.4 1.7 0.4 0.9 0 1.5-0.3 0.7-0.2 1.2-0.8l1.7 1.8q-0.8 0.9-1.9 1.3-1.1 0.5-2.6 0.5zm13.8 0q-1.3 0-2.3-0.6-1.1-0.6-1.6-1.8-0.6-1.3-0.6-3.2 0-1.9 0.5-3.1 0.6-1.2 1.6-1.8 1-0.6 2.4-0.6 1.6 0 2.8 0.7 1.2 0.7 1.9 1.9 0.7 1.3 0.7 2.9 0 1.7-0.7 3-0.7 1.2-1.9 1.9-1.2 0.7-2.8 0.7zm-6.3 3.7v-14.6h3v2.2l-0.1 3.2 0.2 3.1v6.1zm5.8-6.3q0.8 0 1.4-0.3 0.6-0.4 1-1.1 0.4-0.6 0.4-1.6 0-0.9-0.4-1.6-0.4-0.6-1-1-0.6-0.3-1.4-0.3-0.8 0-1.4 0.3-0.6 0.4-1 1-0.3 0.7-0.3 1.6 0 1 0.3 1.6 0.4 0.7 1 1.1 0.6 0.3 1.4 0.3zm14.6 2.4v-2.1l-0.2-0.4v-3.8q0-1-0.6-1.6-0.6-0.5-1.8-0.5-0.9 0-1.7 0.3-0.9 0.2-1.4 0.7l-1.2-2.2q0.9-0.6 2.2-1 1.2-0.3 2.5-0.3 2.4 0 3.8 1.2 1.4 1.1 1.4 3.6v6.1zm-3.3 0.2q-1.3 0-2.2-0.4-0.9-0.5-1.4-1.2-0.4-0.8-0.4-1.7 0-0.9 0.4-1.7 0.5-0.7 1.5-1.1 1-0.4 2.7-0.4h2.8v1.8h-2.5q-1.1 0-1.5 0.4-0.4 0.3-0.4 0.9 0 0.6 0.5 0.9 0.4 0.4 1.3 0.4 0.7 0 1.4-0.4 0.6-0.4 0.9-1.1l0.4 1.5q-0.3 1-1.2 1.5-0.9 0.6-2.3 0.6zm15.7-11.1q1.3 0 2.3 0.5 1 0.5 1.6 1.6 0.6 1 0.6 2.7v6.1h-3.1v-5.7q0-1.3-0.6-1.9-0.6-0.6-1.6-0.6-0.7 0-1.3 0.3-0.6 0.3-1 1-0.3 0.6-0.3 1.6v5.3h-3.1v-10.7h3v2.9l-0.6-0.9q0.6-1 1.7-1.6 1.1-0.6 2.4-0.6zm12.8 11.1q-1.7 0-3.1-0.7-1.3-0.7-2.1-2-0.8-1.3-0.8-2.9 0-1.6 0.8-2.8 0.8-1.3 2.1-2 1.4-0.7 3.1-0.7 1.7 0 3 0.7 1.2 0.7 1.8 2l-2.4 1.3q-0.4-0.7-1-1.1-0.7-0.3-1.4-0.3-0.8 0-1.4 0.3-0.7 0.4-1.1 1-0.3 0.7-0.3 1.6 0 1 0.3 1.6 0.4 0.7 1.1 1.1 0.6 0.3 1.4 0.3 0.7 0 1.4-0.3 0.6-0.4 1-1.2l2.4 1.4q-0.6 1.3-1.8 2-1.3 0.7-3 0.7zm8 3.9q-0.8 0-1.6-0.3-0.8-0.3-1.4-0.7l1.2-2.2q0.3 0.3 0.8 0.5 0.5 0.1 0.9 0.1 0.7 0 1.1-0.3 0.4-0.3 0.7-1l0.6-1.3 0.2-0.4 3.9-9.2h3l-4.9 11.4q-0.5 1.3-1.2 2-0.7 0.8-1.5 1.1-0.8 0.3-1.8 0.3zm1.9-3.7l-4.8-11.1h3.2l3.7 9zm-85.9 23.6q-1.5 0-2.7-0.6-1.2-0.7-1.9-1.9-0.7-1.2-0.7-2.8 0-1.6 0.7-2.8 0.7-1.2 1.9-1.9 1.2-0.7 2.7-0.7 1.4 0 2.4 0.7 1.1 0.6 1.8 1.8 0.6 1.2 0.6 2.9 0 1.7-0.6 2.9-0.6 1.2-1.7 1.8-1.1 0.6-2.5 0.6zm0.1-1.2q1.1 0 2-0.5 0.9-0.5 1.4-1.5 0.5-0.9 0.5-2.1 0-1.3-0.5-2.2-0.5-0.9-1.4-1.4-0.9-0.5-2-0.5-1.1 0-2 0.5-0.9 0.5-1.4 1.4-0.5 0.9-0.5 2.2 0 1.2 0.5 2.1 0.5 1 1.4 1.5 0.9 0.5 2 0.5zm3.9 1.1v-3.1l0.2-2.1-0.2-2.2v-7.4h1.4v14.8zm4.9-8.7v-1.2h8.7v1.2zm0 4.6v-1.1h8.7v1.1zm17 4.3q-1.7 0-2.9-0.9-1.3-0.8-2-2.4-0.7-1.6-0.7-3.9 0-2.2 0.7-3.8 0.7-1.6 2-2.4 1.2-0.9 2.9-0.9 1.6 0 2.8 0.9 1.3 0.8 2 2.4 0.8 1.6 0.8 3.8 0 2.3-0.8 3.9-0.7 1.6-2 2.4-1.2 0.9-2.8 0.9zm0-1.4q1.2 0 2.1-0.6 0.9-0.7 1.5-2 0.5-1.3 0.5-3.2 0-1.8-0.5-3.1-0.6-1.3-1.5-2-0.9-0.7-2.1-0.7-1.2 0-2.2 0.7-0.9 0.7-1.4 2-0.6 1.3-0.6 3.1 0 1.9 0.6 3.2 0.5 1.3 1.4 2 1 0.6 2.2 0.6zm8.7 1.3q-0.4 0-0.8-0.3-0.3-0.3-0.3-0.8 0-0.4 0.3-0.7 0.4-0.3 0.8-0.3 0.4 0 0.7 0.3 0.4 0.3 0.4 0.7 0 0.5-0.4 0.8-0.3 0.3-0.7 0.3zm5.6-0.1l6-13.3 0.5 0.6h-8.7l0.7-0.7v3.3h-1.4v-3.9h10.3v1.1l-5.9 12.9zm14.5 0.2q-1.7 0-2.9-0.5-1.2-0.5-1.9-1.4-0.6-0.9-0.6-2.2 0-1.2 0.6-2 0.7-0.9 1.9-1.3 1.2-0.5 2.9-0.5 1.7 0 2.9 0.5 1.2 0.4 1.9 1.3 0.6 0.8 0.6 2 0 1.3-0.6 2.2-0.7 0.9-1.9 1.4-1.2 0.5-2.9 0.5zm0-1.3q1.9 0 2.9-0.7 1.1-0.8 1.1-2.1 0-1.3-1.1-2-1-0.8-2.9-0.8-1.9 0-2.9 0.8-1 0.7-1 2 0 1.3 1 2.1 1 0.7 2.9 0.7zm0-5.8q-1.6 0-2.7-0.4-1-0.4-1.6-1.2-0.6-0.8-0.6-1.9 0-1.1 0.6-2 0.6-0.8 1.7-1.2 1.1-0.5 2.6-0.5 1.5 0 2.6 0.5 1.1 0.4 1.7 1.2 0.6 0.9 0.6 2 0 1.1-0.5 1.9-0.6 0.8-1.7 1.2-1.1 0.4-2.7 0.4zm0-0.9q1.6 0 2.6-0.7 0.9-0.7 0.9-1.8 0-1.2-1-1.9-0.9-0.7-2.5-0.7-1.6 0-2.5 0.7-1 0.7-1 1.9 0 1.1 0.9 1.8 1 0.7 2.6 0.7z"/>
					<path class="s7" d="m586.5 639.9v-14h2.6l8.3 10h-1.3v-10h3.2v14h-2.7l-8.2-10.1h1.3v10.1zm21.4 0.1q-1.8 0-3.2-0.7-1.4-0.7-2.1-2-0.8-1.2-0.8-2.8 0-1.6 0.7-2.9 0.8-1.2 2.1-1.9 1.3-0.8 2.9-0.8 1.6 0 2.9 0.7 1.3 0.7 2 1.9 0.7 1.3 0.7 3 0 0.2 0 0.4 0 0.3 0 0.5h-8.8v-1.9h7.1l-1.2 0.6q0-0.9-0.3-1.5-0.3-0.6-0.9-0.9-0.6-0.4-1.4-0.4-0.8 0-1.5 0.4-0.6 0.3-0.9 0.9-0.3 0.7-0.3 1.5v0.5q0 0.9 0.3 1.6 0.4 0.6 1.1 1 0.8 0.3 1.7 0.3 0.9 0 1.5-0.2 0.7-0.3 1.2-0.8l1.7 1.8q-0.8 0.8-1.9 1.3-1.1 0.4-2.6 0.4zm12.6 3.9q-1.5 0-3-0.4-1.4-0.3-2.3-1.1l1.2-2.2q0.7 0.5 1.8 0.9 1 0.3 2 0.3 1.7 0 2.4-0.7 0.8-0.8 0.8-2.2v-1.7l0.2-2.7v-2.7-2.3h2.9v9q0 3-1.5 4.4-1.6 1.4-4.5 1.4zm-0.5-4.6q-1.5 0-2.7-0.6-1.2-0.7-2-1.8-0.7-1.2-0.7-2.8 0-1.5 0.7-2.7 0.8-1.2 2-1.8 1.2-0.7 2.7-0.7 1.4 0 2.4 0.6 1 0.5 1.6 1.7 0.6 1.1 0.6 2.9 0 1.8-0.6 3-0.6 1.1-1.6 1.7-1 0.5-2.4 0.5zm0.6-2.5q0.8 0 1.5-0.3 0.6-0.4 1-1 0.3-0.6 0.3-1.4 0-0.8-0.3-1.3-0.4-0.6-1-1-0.7-0.3-1.5-0.3-0.8 0-1.4 0.3-0.7 0.4-1.1 1-0.3 0.5-0.3 1.3 0 0.8 0.3 1.4 0.4 0.6 1.1 1 0.6 0.3 1.4 0.3zm15.6 3.1v-2.1l-0.2-0.5v-3.8q0-1-0.6-1.5-0.6-0.6-1.9-0.6-0.8 0-1.7 0.3-0.8 0.3-1.4 0.7l-1.1-2.2q0.9-0.6 2.1-0.9 1.3-0.4 2.6-0.4 2.4 0 3.8 1.2 1.3 1.2 1.3 3.6v6.2zm-3.2 0.1q-1.3 0-2.2-0.4-0.9-0.4-1.4-1.2-0.5-0.7-0.5-1.6 0-1 0.5-1.7 0.5-0.7 1.5-1.1 1-0.5 2.7-0.5h2.8v1.9h-2.5q-1.1 0-1.5 0.3-0.4 0.4-0.4 0.9 0 0.6 0.4 1 0.5 0.3 1.3 0.3 0.8 0 1.4-0.3 0.7-0.4 0.9-1.1l0.5 1.4q-0.3 1-1.2 1.6-0.9 0.5-2.3 0.5zm13.6 0q-1.9 0-3-0.9-1-1-1-2.9v-9.5h3.1v9.4q0 0.7 0.3 1.1 0.4 0.3 1 0.3 0.8 0 1.3-0.4l0.8 2.2q-0.5 0.4-1.1 0.6-0.7 0.1-1.4 0.1zm-5.7-8.3v-2.4h7.5v2.4zm15.1 8.3q-1.8 0-3.2-0.7-1.4-0.7-2.1-2-0.8-1.2-0.8-2.8 0-1.6 0.7-2.9 0.8-1.2 2.1-1.9 1.3-0.8 2.9-0.8 1.6 0 2.9 0.7 1.3 0.7 2 1.9 0.7 1.3 0.7 3 0 0.2 0 0.4 0 0.3 0 0.5h-8.8v-1.9h7.1l-1.2 0.6q0-0.9-0.3-1.5-0.3-0.6-0.9-0.9-0.6-0.4-1.4-0.4-0.8 0-1.5 0.4-0.6 0.3-0.9 0.9-0.3 0.7-0.3 1.5v0.5q0 0.9 0.3 1.6 0.4 0.6 1.1 1 0.8 0.3 1.7 0.3 0.9 0 1.5-0.2 0.7-0.3 1.2-0.8l1.7 1.8q-0.8 0.8-1.9 1.3-1.1 0.4-2.6 0.4zm-58.4 24q-1.5 0-2.7-0.7-1.2-0.7-1.9-1.9-0.6-1.2-0.6-2.8 0-1.6 0.6-2.8 0.7-1.2 1.9-1.9 1.2-0.6 2.7-0.6 1.4 0 2.5 0.6 1.1 0.6 1.7 1.8 0.7 1.2 0.7 2.9 0 1.7-0.7 2.9-0.6 1.2-1.7 1.8-1.1 0.7-2.5 0.7zm0.1-1.3q1.1 0 2-0.5 0.9-0.5 1.4-1.4 0.5-1 0.5-2.2 0-1.2-0.5-2.2-0.5-0.9-1.4-1.4-0.9-0.5-2-0.5-1.1 0-2 0.5-0.9 0.5-1.4 1.4-0.5 1-0.5 2.2 0 1.2 0.5 2.2 0.5 0.9 1.4 1.4 0.9 0.5 2 0.5zm4 1.2v-3.2l0.1-2.1-0.2-2.1v-7.5h1.4v14.9zm5-8.8v-1.1h8.7v1.1zm0 4.7v-1.2h8.7v1.2zm13.7 4.1v-13.4l0.7 0.6h-4v-1.2h4.8v14zm6 0.1q-0.4 0-0.7-0.4-0.3-0.3-0.3-0.7 0-0.5 0.3-0.8 0.3-0.3 0.7-0.3 0.5 0 0.8 0.3 0.3 0.3 0.3 0.8 0 0.4-0.3 0.7-0.3 0.4-0.8 0.4zm8.8 0q-1.7 0-2.9-0.9-1.3-0.8-2-2.4-0.7-1.6-0.7-3.8 0-2.3 0.7-3.9 0.7-1.6 2-2.4 1.2-0.9 2.9-0.9 1.6 0 2.8 0.9 1.3 0.8 2 2.4 0.8 1.6 0.8 3.9 0 2.2-0.8 3.8-0.7 1.6-2 2.4-1.2 0.9-2.8 0.9zm0-1.3q1.2 0 2.1-0.7 0.9-0.7 1.5-2 0.5-1.3 0.5-3.1 0-1.9-0.5-3.2-0.6-1.3-1.5-2-0.9-0.6-2.1-0.6-1.2 0-2.2 0.6-0.9 0.7-1.4 2-0.6 1.3-0.6 3.2 0 1.8 0.6 3.1 0.5 1.3 1.4 2 1 0.7 2.2 0.7zm13.4 1.3q-1.6 0-2.9-0.9-1.2-0.8-2-2.4-0.7-1.6-0.7-3.8 0-2.3 0.7-3.9 0.8-1.6 2-2.4 1.3-0.9 2.9-0.9 1.6 0 2.9 0.9 1.2 0.8 2 2.4 0.7 1.6 0.7 3.9 0 2.2-0.7 3.8-0.8 1.6-2 2.4-1.3 0.9-2.9 0.9zm0-1.3q1.2 0 2.2-0.7 0.9-0.7 1.4-2 0.5-1.3 0.5-3.1 0-1.9-0.5-3.2-0.5-1.3-1.4-2-1-0.6-2.2-0.6-1.2 0-2.1 0.6-1 0.7-1.5 2-0.5 1.3-0.5 3.2 0 1.8 0.5 3.1 0.5 1.3 1.5 2 0.9 0.7 2.1 0.7z"/>
					<path class="s7" d="m617.3 296v-14h6.1q1.8 0 3.2 0.6 1.4 0.6 2.1 1.8 0.7 1.1 0.7 2.7 0 1.5-0.7 2.7-0.7 1.1-2.1 1.7-1.4 0.6-3.2 0.6h-4.3l1.4-1.4v5.3zm3.3-5l-1.5-1.5h4.1q1.5 0 2.3-0.6 0.7-0.7 0.7-1.8 0-1.2-0.7-1.8-0.8-0.7-2.3-0.7h-4.1l1.5-1.5zm16.3 5.1q-1.7 0-3.1-0.7-1.3-0.7-2.1-2-0.7-1.2-0.7-2.8 0-1.6 0.7-2.9 0.8-1.2 2.1-1.9 1.4-0.8 3.1-0.8 1.7 0 3 0.8 1.4 0.7 2.1 1.9 0.8 1.2 0.8 2.9 0 1.6-0.8 2.8-0.7 1.3-2.1 2-1.3 0.7-3 0.7zm0-2.5q0.8 0 1.4-0.4 0.6-0.4 1-1 0.3-0.7 0.3-1.6 0-1-0.3-1.6-0.4-0.7-1-1-0.6-0.4-1.4-0.4-0.8 0-1.4 0.4-0.6 0.3-1 1-0.4 0.6-0.4 1.6 0 0.9 0.4 1.6 0.4 0.6 1 1 0.6 0.4 1.4 0.4zm10.3 2.4l-3.9-10.8h3l3.2 9.3h-1.4l3.4-9.3h2.6l3.3 9.3h-1.4l3.3-9.3h2.7l-3.9 10.8h-3l-2.8-8h0.9l-3 8zm21.5 0.1q-1.8 0-3.2-0.7-1.4-0.7-2.1-2-0.8-1.2-0.8-2.8 0-1.6 0.7-2.9 0.8-1.2 2.1-1.9 1.3-0.8 2.9-0.8 1.6 0 2.9 0.7 1.3 0.7 2 1.9 0.7 1.3 0.7 3 0 0.2 0 0.4 0 0.3 0 0.5h-8.8v-1.9h7.1l-1.2 0.6q0-0.9-0.3-1.5-0.3-0.6-0.9-0.9-0.6-0.4-1.4-0.4-0.8 0-1.5 0.4-0.6 0.3-0.9 0.9-0.3 0.7-0.3 1.5v0.5q0 0.9 0.3 1.6 0.4 0.6 1.1 1 0.8 0.3 1.7 0.3 0.9 0 1.5-0.2 0.7-0.3 1.2-0.8l1.7 1.8q-0.8 0.8-1.9 1.3-1.1 0.4-2.6 0.4zm7.5-0.1v-10.8h3v3l-0.4-0.8q0.5-1.2 1.5-1.8 1.1-0.6 2.6-0.6v2.9q-0.2 0-0.4 0-0.1 0-0.3 0-1.3 0-2.1 0.7-0.8 0.7-0.8 2.3v5.1zm-58.7 24.1q-1.5 0-2.7-0.7-1.2-0.7-1.9-1.9-0.7-1.2-0.7-2.8 0-1.6 0.7-2.8 0.7-1.2 1.9-1.9 1.2-0.6 2.7-0.6 1.3 0 2.4 0.6 1.1 0.6 1.8 1.8 0.6 1.2 0.6 2.9 0 1.7-0.6 2.9-0.7 1.2-1.8 1.8-1 0.7-2.4 0.7zm0.1-1.3q1.1 0 2-0.5 0.9-0.5 1.4-1.4 0.5-1 0.5-2.2 0-1.2-0.5-2.2-0.5-0.9-1.4-1.4-0.9-0.5-2-0.5-1.1 0-2 0.5-0.9 0.5-1.4 1.4-0.5 1-0.5 2.2 0 1.2 0.5 2.2 0.5 0.9 1.4 1.4 0.9 0.5 2 0.5zm3.9 1.2v-3.2l0.2-2.1-0.2-2.1v-7.5h1.4v14.9zm4.9-8.8v-1.1h8.7v1.1zm0 4.7v-1.2h8.7v1.2zm11.5-0.7v-1.3h5.3v1.3zm13.4 4.9q-1.6 0-2.9-0.9-1.3-0.8-2-2.4-0.7-1.6-0.7-3.8 0-2.3 0.7-3.9 0.7-1.6 2-2.4 1.3-0.9 2.9-0.9 1.6 0 2.9 0.9 1.2 0.8 1.9 2.4 0.8 1.6 0.8 3.9 0 2.2-0.8 3.8-0.7 1.6-1.9 2.4-1.3 0.9-2.9 0.9zm0-1.3q1.2 0 2.1-0.7 1-0.7 1.5-2 0.5-1.3 0.5-3.1 0-1.9-0.5-3.2-0.5-1.3-1.5-2-0.9-0.6-2.1-0.6-1.2 0-2.2 0.6-0.9 0.7-1.4 2-0.5 1.3-0.5 3.2 0 1.8 0.5 3.1 0.5 1.3 1.4 2 1 0.7 2.2 0.7zm8.7 1.3q-0.4 0-0.8-0.4-0.3-0.3-0.3-0.7 0-0.5 0.3-0.8 0.4-0.3 0.8-0.3 0.4 0 0.7 0.3 0.4 0.3 0.4 0.8 0 0.4-0.4 0.7-0.3 0.4-0.7 0.4zm8.9 0q-1.9 0-3.2-0.8-1.2-0.9-1.9-2.4-0.7-1.6-0.7-3.8 0-2.4 0.8-4 0.9-1.6 2.3-2.4 1.4-0.9 3.3-0.9 1 0 1.8 0.2 0.9 0.2 1.6 0.6l-0.6 1.2q-0.6-0.4-1.3-0.5-0.7-0.2-1.4-0.2-2.3 0-3.7 1.4-1.3 1.5-1.3 4.3 0 0.5 0 1.1 0.1 0.7 0.3 1.3l-0.5-0.4q0.2-1 0.8-1.7 0.7-0.8 1.6-1.1 1-0.4 2.1-0.4 1.4 0 2.5 0.5 1.1 0.5 1.7 1.5 0.6 0.9 0.6 2.2 0 1.3-0.7 2.3-0.6 0.9-1.7 1.5-1.1 0.5-2.4 0.5zm-0.1-1.2q1 0 1.8-0.4 0.8-0.4 1.2-1.1 0.4-0.7 0.4-1.6 0-1.4-0.9-2.2-1-0.8-2.6-0.8-1.1 0-1.9 0.4-0.8 0.4-1.2 1.1-0.5 0.7-0.5 1.6 0 0.7 0.4 1.4 0.5 0.7 1.3 1.1 0.8 0.5 2 0.5zm6.5-2.6v-1.1l7.4-9.2h1.6l-7.3 9.2-0.8-0.2h11.2v1.3zm7.9 3.7v-3.7l0.1-1.3v-3.2h1.4v8.2z"/>
					<path class="s7" d="m746.4 370.3h-3.2v-14h10.6v2.6h-7.4zm-0.2-7.7h6.7v2.6h-6.7zm14.6 7.8q-1.7 0-3-0.7-1.4-0.7-2.1-1.9-0.8-1.3-0.8-2.9 0-1.6 0.8-2.9 0.7-1.2 2.1-1.9 1.3-0.7 3-0.7 1.7 0 3.1 0.7 1.3 0.7 2.1 1.9 0.7 1.3 0.7 2.9 0 1.6-0.7 2.9-0.8 1.2-2.1 1.9-1.4 0.7-3.1 0.7zm0-2.5q0.8 0 1.4-0.4 0.6-0.3 1-1 0.4-0.7 0.4-1.6 0-1-0.4-1.6-0.4-0.7-1-1-0.6-0.4-1.4-0.4-0.8 0-1.4 0.4-0.6 0.3-1 1-0.3 0.6-0.3 1.6 0 0.9 0.3 1.6 0.4 0.7 1 1 0.6 0.4 1.4 0.4zm13.4 2.5q-1.7 0-3.1-0.7-1.4-0.7-2.1-1.9-0.8-1.3-0.8-2.9 0-1.6 0.8-2.9 0.7-1.2 2.1-1.9 1.4-0.7 3.1-0.7 1.7 0 3 0.7 1.2 0.7 1.8 2l-2.4 1.3q-0.4-0.8-1.1-1.1-0.6-0.4-1.3-0.4-0.8 0-1.5 0.4-0.6 0.3-1 1-0.3 0.6-0.3 1.6 0 0.9 0.3 1.6 0.4 0.7 1 1 0.7 0.4 1.5 0.4 0.7 0 1.3-0.4 0.7-0.3 1.1-1.1l2.4 1.3q-0.6 1.3-1.8 2-1.3 0.7-3 0.7zm11.4 0q-1.4 0-2.4-0.5-1.1-0.5-1.7-1.6-0.5-1-0.5-2.7v-6.1h3.1v5.6q0 1.4 0.5 2 0.6 0.6 1.7 0.6 0.7 0 1.2-0.3 0.6-0.3 0.9-0.9 0.3-0.7 0.3-1.7v-5.3h3.2v10.8h-3v-3l0.5 0.9q-0.5 1.1-1.6 1.7-1 0.5-2.2 0.5zm13 0q-1.4 0-2.7-0.3-1.3-0.3-2-0.8l1-2.3q0.8 0.5 1.8 0.8 1 0.3 2 0.3 1.1 0 1.5-0.3 0.5-0.2 0.5-0.7 0-0.4-0.4-0.6-0.3-0.2-0.9-0.3-0.6-0.1-1.3-0.2-0.7-0.1-1.4-0.2-0.7-0.2-1.3-0.5-0.5-0.4-0.9-1-0.3-0.6-0.3-1.5 0-1 0.5-1.8 0.6-0.8 1.8-1.2 1.1-0.5 2.6-0.4 1.1 0 2.3 0.2 1.1 0.2 1.9 0.7l-1.1 2.2q-0.7-0.5-1.5-0.6-0.8-0.2-1.6-0.2-1 0-1.5 0.3-0.5 0.3-0.5 0.7 0 0.4 0.4 0.6 0.3 0.2 0.9 0.3 0.6 0.1 1.3 0.3 0.7 0 1.4 0.2 0.7 0.2 1.2 0.5 0.6 0.3 1 0.9 0.3 0.6 0.3 1.5 0 1-0.6 1.8-0.6 0.8-1.7 1.2-1.1 0.4-2.7 0.4zm-65.3 23.9v-14h6q1.9 0 3.3 0.6 1.3 0.6 2.1 1.7 0.7 1.2 0.7 2.8 0 1.5-0.7 2.7-0.8 1.1-2.1 1.7-1.4 0.6-3.3 0.6h-4.2l1.4-1.4v5.3zm3.2-5l-1.4-1.5h4.1q1.5 0 2.2-0.7 0.8-0.6 0.8-1.7 0-1.2-0.8-1.8-0.7-0.7-2.2-0.7h-4.1l1.4-1.5zm11.2 4.9v-10.7h3v3l-0.4-0.9q0.4-1.1 1.5-1.7 1.1-0.6 2.6-0.6v2.9q-0.2 0-0.4 0-0.1 0-0.3 0-1.3 0-2.1 0.7-0.8 0.7-0.8 2.3v5zm14 0.2q-1.8 0-3.2-0.7-1.4-0.7-2.2-2-0.7-1.2-0.7-2.8 0-1.7 0.7-2.9 0.8-1.3 2.1-2 1.3-0.7 2.9-0.7 1.6 0 2.9 0.7 1.2 0.7 2 1.9 0.7 1.3 0.7 3 0 0.2 0 0.4 0 0.2 0 0.4h-8.8v-1.8h7.1l-1.2 0.6q0-0.9-0.3-1.5-0.4-0.6-1-1-0.6-0.3-1.4-0.3-0.8 0-1.4 0.3-0.6 0.4-0.9 1-0.4 0.6-0.4 1.5v0.5q0 0.9 0.4 1.5 0.4 0.7 1.1 1.1 0.7 0.3 1.7 0.3 0.9 0 1.5-0.3 0.7-0.2 1.2-0.7l1.7 1.8q-0.8 0.8-1.9 1.3-1.1 0.4-2.6 0.4zm11.1 0q-1.4 0-2.6-0.3-1.3-0.4-2-0.9l1-2.2q0.7 0.5 1.7 0.8 1.1 0.2 2 0.2 1.1 0 1.6-0.2 0.4-0.3 0.4-0.7 0-0.4-0.3-0.6-0.4-0.2-1-0.3-0.5-0.1-1.2-0.2-0.7-0.1-1.4-0.3-0.7-0.1-1.3-0.5-0.6-0.3-0.9-0.9-0.4-0.6-0.4-1.5 0-1 0.6-1.8 0.6-0.8 1.7-1.2 1.1-0.5 2.7-0.5 1.1 0 2.2 0.3 1.2 0.2 1.9 0.7l-1 2.2q-0.8-0.5-1.6-0.6-0.8-0.2-1.5-0.2-1 0-1.5 0.3-0.5 0.2-0.5 0.7 0 0.4 0.3 0.6 0.4 0.2 1 0.3 0.6 0.1 1.2 0.2 0.7 0.1 1.4 0.3 0.7 0.1 1.3 0.5 0.6 0.3 0.9 0.9 0.4 0.6 0.4 1.5 0 1-0.6 1.8-0.6 0.7-1.7 1.2-1.2 0.4-2.8 0.4zm12.6 0q-1.9 0-3.3-0.7-1.4-0.7-2.1-2-0.8-1.2-0.8-2.8 0-1.7 0.8-2.9 0.7-1.3 2-2 1.3-0.7 3-0.7 1.5 0 2.8 0.7 1.3 0.7 2 1.9 0.8 1.3 0.8 3 0 0.2-0.1 0.4 0 0.2 0 0.4h-8.7v-1.8h7.1l-1.2 0.6q0-0.9-0.4-1.5-0.3-0.6-0.9-1-0.6-0.3-1.4-0.3-0.8 0-1.4 0.3-0.6 0.4-1 1-0.3 0.6-0.3 1.5v0.5q0 0.9 0.4 1.5 0.4 0.7 1.1 1.1 0.7 0.3 1.6 0.3 0.9 0 1.5-0.3 0.7-0.2 1.2-0.7l1.7 1.8q-0.7 0.8-1.9 1.3-1.1 0.4-2.5 0.4zm14-11.1q1.3 0 2.3 0.5 1 0.5 1.6 1.6 0.5 1 0.5 2.7v6.1h-3.1v-5.6q0-1.4-0.6-2-0.5-0.6-1.6-0.6-0.7 0-1.3 0.3-0.6 0.3-0.9 1-0.3 0.6-0.3 1.6v5.3h-3.2v-10.7h3v3l-0.5-0.9q0.5-1.1 1.6-1.7 1.1-0.6 2.5-0.6zm11.9 11.1q-1.9 0-3-1-1-0.9-1-2.9v-9.4h3.1v9.4q0 0.7 0.3 1.1 0.4 0.3 1 0.3 0.8 0 1.3-0.4l0.8 2.2q-0.5 0.4-1.1 0.5-0.7 0.2-1.4 0.2zm-5.7-8.3v-2.4h7.5v2.4zm-58.5 32.2q-1.5 0-2.7-0.6-1.2-0.7-1.8-1.9-0.7-1.2-0.7-2.8 0-1.6 0.7-2.8 0.6-1.2 1.8-1.9 1.2-0.7 2.7-0.7 1.4 0 2.5 0.7 1.1 0.6 1.7 1.8 0.7 1.1 0.7 2.9 0 1.7-0.7 2.9-0.6 1.2-1.7 1.8-1.1 0.6-2.5 0.6zm0.1-1.2q1.1 0 2-0.5 0.9-0.6 1.4-1.5 0.5-0.9 0.5-2.1 0-1.3-0.5-2.2-0.5-0.9-1.4-1.4-0.9-0.5-2-0.5-1.1 0-2 0.5-0.8 0.5-1.4 1.4-0.5 0.9-0.5 2.2 0 1.2 0.5 2.1 0.6 0.9 1.4 1.5 0.9 0.5 2 0.5zm4 1.1v-3.1l0.1-2.1-0.2-2.2v-7.4h1.4v14.8zm5-8.7v-1.2h8.7v1.2zm0 4.6v-1.1h8.7v1.1zm13.8 4.1v-13.4l0.6 0.7h-3.9v-1.3h4.7v14zm6.1 0.1q-0.5 0-0.8-0.3-0.3-0.3-0.3-0.8 0-0.5 0.3-0.7 0.3-0.3 0.8-0.3 0.4 0 0.7 0.3 0.3 0.2 0.3 0.7 0 0.5-0.3 0.8-0.3 0.3-0.7 0.3zm8.7 0.1q-1.6 0-2.9-0.9-1.3-0.8-2-2.4-0.7-1.6-0.7-3.9 0-2.2 0.7-3.8 0.7-1.6 2-2.4 1.3-0.9 2.9-0.9 1.6 0 2.9 0.9 1.2 0.8 1.9 2.4 0.8 1.6 0.8 3.8 0 2.3-0.8 3.9-0.7 1.6-1.9 2.4-1.3 0.9-2.9 0.9zm0-1.4q1.2 0 2.1-0.6 1-0.7 1.5-2 0.5-1.3 0.5-3.2 0-1.8-0.5-3.1-0.5-1.3-1.5-2-0.9-0.7-2.1-0.7-1.2 0-2.2 0.7-0.9 0.7-1.4 2-0.5 1.3-0.5 3.1 0 1.9 0.5 3.2 0.5 1.3 1.4 2 1 0.6 2.2 0.6zm13.4 1.4q-1.6 0-2.9-0.9-1.2-0.8-1.9-2.4-0.8-1.6-0.8-3.9 0-2.2 0.8-3.8 0.7-1.6 1.9-2.4 1.3-0.9 2.9-0.9 1.6 0 2.9 0.9 1.3 0.8 2 2.4 0.7 1.6 0.7 3.8 0 2.3-0.7 3.9-0.7 1.6-2 2.4-1.3 0.9-2.9 0.9zm0-1.4q1.3 0 2.2-0.6 0.9-0.7 1.4-2 0.5-1.3 0.5-3.2 0-1.8-0.5-3.1-0.5-1.3-1.4-2-0.9-0.7-2.2-0.7-1.2 0-2.1 0.7-1 0.7-1.5 2-0.5 1.3-0.5 3.1 0 1.9 0.5 3.2 0.5 1.3 1.5 2 0.9 0.6 2.1 0.6z"/>
					<path class="s7" d="m324.3 640.1q-1.7 0-3.2-0.4-1.5-0.5-2.5-1.2l1.1-2.5q0.9 0.7 2.1 1.1 1.3 0.4 2.5 0.4 1 0 1.6-0.2 0.6-0.2 0.9-0.5 0.2-0.4 0.2-0.8 0-0.6-0.4-0.9-0.4-0.3-1.2-0.5-0.7-0.2-1.6-0.4-0.8-0.2-1.7-0.5-0.9-0.3-1.6-0.7-0.7-0.5-1.2-1.2-0.4-0.7-0.4-1.8 0-1.2 0.6-2.2 0.7-1 2-1.6 1.3-0.6 3.3-0.6 1.3 0 2.6 0.3 1.3 0.3 2.3 1l-1 2.4q-1-0.5-2-0.8-1-0.3-1.9-0.3-1 0-1.6 0.2-0.6 0.3-0.8 0.6-0.3 0.4-0.3 0.8 0 0.6 0.5 0.9 0.4 0.3 1.1 0.5 0.7 0.2 1.6 0.4 0.9 0.2 1.7 0.5 0.9 0.2 1.6 0.7 0.8 0.4 1.2 1.1 0.5 0.8 0.5 1.9 0 1.1-0.7 2.1-0.7 1-2 1.6-1.3 0.6-3.3 0.6zm13.3-0.1q-1.8 0-3.1-0.7-1.3-0.7-2.1-2-0.8-1.2-0.8-2.8 0-1.6 0.8-2.9 0.8-1.2 2.1-1.9 1.3-0.8 3.1-0.8 1.7 0 3 0.8 1.3 0.7 2.1 1.9 0.8 1.2 0.8 2.9 0 1.6-0.8 2.8-0.8 1.3-2.1 2-1.3 0.7-3 0.7zm0-2.5q0.7 0 1.4-0.4 0.6-0.4 0.9-1 0.4-0.7 0.4-1.6 0-1-0.4-1.6-0.3-0.7-0.9-1-0.7-0.4-1.4-0.4-0.8 0-1.4 0.4-0.7 0.3-1 1-0.4 0.6-0.4 1.6 0 0.9 0.4 1.6 0.3 0.6 1 1 0.6 0.4 1.4 0.4zm13.3 2.5q-1.7 0-3-0.7-1.4-0.7-2.2-2-0.8-1.2-0.8-2.8 0-1.6 0.8-2.9 0.8-1.2 2.2-1.9 1.3-0.8 3-0.8 1.7 0 3 0.8 1.3 0.7 1.9 2l-2.4 1.3q-0.5-0.8-1.1-1.1-0.6-0.4-1.4-0.4-0.8 0-1.4 0.4-0.7 0.3-1 1-0.4 0.6-0.4 1.6 0 0.9 0.4 1.6 0.3 0.6 1 1 0.6 0.4 1.4 0.4 0.8 0 1.4-0.4 0.6-0.3 1.1-1.1l2.4 1.3q-0.6 1.3-1.9 2-1.3 0.7-3 0.7zm6.8-0.1v-10.8h3.1v10.8zm1.6-12.3q-0.9 0-1.4-0.5-0.6-0.5-0.6-1.2 0-0.8 0.6-1.3 0.5-0.5 1.4-0.5 0.8 0 1.4 0.5 0.5 0.5 0.5 1.2 0 0.8-0.5 1.3-0.5 0.5-1.4 0.5zm11.2 12.3v-2.1l-0.2-0.5v-3.8q0-1-0.6-1.5-0.6-0.6-1.8-0.6-0.9 0-1.7 0.3-0.9 0.3-1.4 0.7l-1.2-2.2q0.9-0.6 2.2-0.9 1.2-0.4 2.5-0.4 2.4 0 3.8 1.2 1.4 1.2 1.4 3.6v6.2zm-3.3 0.1q-1.3 0-2.2-0.4-0.9-0.4-1.4-1.2-0.4-0.7-0.4-1.6 0-1 0.4-1.7 0.5-0.7 1.5-1.1 1-0.5 2.7-0.5h2.8v1.9h-2.5q-1.1 0-1.5 0.3-0.4 0.4-0.4 0.9 0 0.6 0.5 1 0.4 0.3 1.3 0.3 0.7 0 1.4-0.3 0.6-0.4 0.9-1.1l0.4 1.4q-0.3 1-1.2 1.6-0.9 0.5-2.3 0.5zm9.2-0.1v-14.9h3.1v14.9zm-52.6 24.1q-1.5 0-2.7-0.7-1.2-0.7-1.9-1.9-0.7-1.2-0.7-2.8 0-1.6 0.7-2.8 0.7-1.2 1.9-1.9 1.2-0.6 2.7-0.6 1.4 0 2.4 0.6 1.1 0.6 1.8 1.8 0.6 1.2 0.6 2.9 0 1.7-0.6 2.9-0.6 1.2-1.8 1.8-1 0.7-2.4 0.7zm0.1-1.3q1.1 0 2-0.5 0.9-0.5 1.4-1.4 0.5-1 0.5-2.2 0-1.2-0.5-2.2-0.5-0.9-1.4-1.4-0.9-0.5-2-0.5-1.1 0-2 0.5-0.9 0.5-1.4 1.4-0.5 1-0.5 2.2 0 1.2 0.5 2.2 0.5 0.9 1.4 1.4 0.9 0.5 2 0.5zm3.9 1.2v-3.2l0.2-2.1-0.2-2.1v-7.5h1.4v14.9zm4.9-8.8v-1.1h8.7v1.1zm0 4.7v-1.2h8.7v1.2zm13.8 4.1v-13.4l0.6 0.6h-3.9v-1.2h4.7v14zm6.1 0.1q-0.4 0-0.7-0.4-0.3-0.3-0.3-0.7 0-0.5 0.3-0.8 0.3-0.3 0.7-0.3 0.5 0 0.8 0.3 0.3 0.3 0.3 0.8 0 0.4-0.3 0.7-0.3 0.4-0.8 0.4zm8.7 0q-1.6 0-2.8-0.9-1.3-0.8-2-2.4-0.7-1.6-0.7-3.8 0-2.3 0.7-3.9 0.7-1.6 2-2.4 1.2-0.9 2.8-0.9 1.7 0 2.9 0.9 1.3 0.8 2 2.4 0.7 1.6 0.7 3.9 0 2.2-0.7 3.8-0.7 1.6-2 2.4-1.2 0.9-2.9 0.9zm0-1.3q1.3 0 2.2-0.7 0.9-0.7 1.4-2 0.6-1.3 0.6-3.1 0-1.9-0.6-3.2-0.5-1.3-1.4-2-0.9-0.6-2.2-0.6-1.2 0-2.1 0.6-0.9 0.7-1.5 2-0.5 1.3-0.5 3.2 0 1.8 0.5 3.1 0.6 1.3 1.5 2 0.9 0.7 2.1 0.7zm13.5 1.3q-1.6 0-2.9-0.9-1.3-0.8-2-2.4-0.7-1.6-0.7-3.8 0-2.3 0.7-3.9 0.7-1.6 2-2.4 1.3-0.9 2.9-0.9 1.6 0 2.9 0.9 1.2 0.8 1.9 2.4 0.8 1.6 0.8 3.9 0 2.2-0.8 3.8-0.7 1.6-1.9 2.4-1.3 0.9-2.9 0.9zm0-1.3q1.2 0 2.1-0.7 1-0.7 1.5-2 0.5-1.3 0.5-3.1 0-1.9-0.5-3.2-0.5-1.3-1.5-2-0.9-0.6-2.1-0.6-1.2 0-2.2 0.6-0.9 0.7-1.4 2-0.5 1.3-0.5 3.2 0 1.8 0.5 3.1 0.5 1.3 1.4 2 1 0.7 2.2 0.7z"/>
					<path class="s7" d="m525.1 296v-14h3.2v11.4h7.1v2.6zm18.7 0v-2.1l-0.2-0.5v-3.7q0-1-0.6-1.6-0.6-0.5-1.9-0.5-0.9 0-1.7 0.2-0.8 0.3-1.4 0.8l-1.1-2.2q0.9-0.6 2.1-1 1.2-0.3 2.5-0.3 2.5 0 3.8 1.1 1.4 1.2 1.4 3.7v6.1zm-3.3 0.2q-1.2 0-2.1-0.5-0.9-0.4-1.4-1.1-0.5-0.8-0.5-1.7 0-1 0.5-1.7 0.4-0.7 1.5-1.1 1-0.4 2.6-0.4h2.9v1.8h-2.5q-1.1 0-1.6 0.4-0.4 0.3-0.4 0.9 0 0.6 0.5 0.9 0.5 0.4 1.3 0.4 0.8 0 1.4-0.4 0.6-0.4 0.9-1.1l0.5 1.4q-0.4 1.1-1.3 1.6-0.9 0.6-2.3 0.6zm14.5 0q-1.7 0-3.1-0.7-1.3-0.8-2.1-2-0.8-1.3-0.8-2.9 0-1.6 0.8-2.8 0.8-1.3 2.1-2 1.4-0.7 3.1-0.7 1.7 0 3 0.7 1.2 0.7 1.8 2l-2.4 1.3q-0.4-0.7-1-1.1-0.7-0.4-1.4-0.4-0.8 0-1.4 0.4-0.7 0.4-1.1 1-0.3 0.7-0.3 1.6 0 1 0.3 1.6 0.4 0.7 1.1 1 0.6 0.4 1.4 0.4 0.7 0 1.4-0.3 0.6-0.4 1-1.2l2.4 1.3q-0.6 1.3-1.8 2.1-1.3 0.7-3 0.7zm9.4-2.4v-3.8l5.1-4.8h3.7l-4.8 4.9-1.7 1.4zm-2.5 2.2v-14.9h3.1v14.9zm8 0l-3.6-4.6 1.9-2.4 5.5 7zm-48.6 24.1q-1.5 0-2.7-0.7-1.2-0.7-1.9-1.9-0.6-1.2-0.6-2.8 0-1.6 0.6-2.8 0.7-1.2 1.9-1.9 1.2-0.6 2.7-0.6 1.4 0 2.5 0.6 1.1 0.6 1.7 1.8 0.7 1.2 0.7 2.9 0 1.7-0.7 2.9-0.6 1.2-1.7 1.8-1.1 0.7-2.5 0.7zm0.1-1.3q1.1 0 2-0.5 0.9-0.5 1.4-1.4 0.5-1 0.5-2.2 0-1.2-0.5-2.2-0.5-0.9-1.4-1.4-0.9-0.5-2-0.5-1.1 0-2 0.5-0.9 0.5-1.4 1.4-0.5 1-0.5 2.2 0 1.2 0.5 2.2 0.5 0.9 1.4 1.4 0.9 0.5 2 0.5zm4 1.2v-3.2l0.1-2.1-0.2-2.1v-7.5h1.4v14.9zm5-8.8v-1.1h8.7v1.1zm0 4.7v-1.2h8.7v1.2zm16.9 4.2q-1.6 0-2.9-0.9-1.3-0.8-2-2.4-0.7-1.6-0.7-3.8 0-2.3 0.7-3.9 0.7-1.6 2-2.4 1.3-0.9 2.9-0.9 1.6 0 2.9 0.9 1.2 0.8 1.9 2.4 0.8 1.6 0.8 3.9 0 2.2-0.8 3.8-0.7 1.6-1.9 2.4-1.3 0.9-2.9 0.9zm0-1.3q1.2 0 2.1-0.7 1-0.7 1.5-2 0.5-1.3 0.5-3.1 0-1.9-0.5-3.2-0.5-1.3-1.5-2-0.9-0.6-2.1-0.6-1.2 0-2.2 0.6-0.9 0.7-1.4 2-0.5 1.3-0.5 3.2 0 1.8 0.5 3.1 0.5 1.3 1.4 2 1 0.7 2.2 0.7zm8.7 1.3q-0.4 0-0.8-0.4-0.3-0.3-0.3-0.7 0-0.5 0.3-0.8 0.4-0.3 0.8-0.3 0.4 0 0.7 0.3 0.4 0.3 0.4 0.8 0 0.4-0.4 0.7-0.3 0.4-0.7 0.4zm7.8 0q-1.5 0-2.9-0.5-1.3-0.5-2.1-1.3l0.7-1.2q0.6 0.7 1.8 1.2 1.1 0.5 2.5 0.5 1.7 0 2.7-0.8 0.9-0.8 0.9-2.1 0-0.9-0.4-1.5-0.5-0.7-1.5-1.1-1-0.3-2.8-0.3h-3l0.8-7h7.6v1.2h-7.1l0.8-0.7-0.6 5.9-0.8-0.7h2.6q2.2 0 3.4 0.5 1.3 0.5 1.9 1.5 0.6 0.9 0.6 2.1 0 1.2-0.6 2.2-0.6 1-1.7 1.5-1.1 0.6-2.8 0.6zm12.8 0q-1.8 0-3.1-0.8-1.3-0.9-1.9-2.4-0.7-1.6-0.7-3.8 0-2.4 0.8-4 0.8-1.6 2.3-2.4 1.4-0.9 3.3-0.9 0.9 0 1.8 0.2 0.9 0.2 1.5 0.6l-0.6 1.2q-0.5-0.4-1.2-0.5-0.7-0.2-1.5-0.2-2.2 0-3.6 1.4-1.3 1.5-1.3 4.3 0 0.5 0 1.1 0.1 0.7 0.2 1.3l-0.5-0.4q0.3-1 0.9-1.7 0.6-0.8 1.6-1.1 1-0.4 2.1-0.4 1.4 0 2.5 0.5 1 0.5 1.6 1.5 0.6 0.9 0.6 2.2 0 1.3-0.6 2.3-0.6 0.9-1.7 1.5-1.1 0.5-2.5 0.5zm0-1.2q1 0 1.7-0.4 0.8-0.4 1.3-1.1 0.4-0.7 0.4-1.6 0-1.4-1-2.2-0.9-0.8-2.5-0.8-1.1 0-1.9 0.4-0.8 0.4-1.3 1.1-0.4 0.7-0.4 1.6 0 0.7 0.4 1.4 0.4 0.7 1.2 1.1 0.9 0.5 2.1 0.5z"/>
					<path class="s7" d="m368.1 296l6.2-14h3.2l6.3 14h-3.4l-5.1-12.4h1.2l-5.1 12.4zm3.1-3l0.9-2.5h7.2l0.9 2.5zm20.5-7.9q1.3 0 2.3 0.5 1 0.5 1.6 1.6 0.6 1 0.6 2.6v6.2h-3.2v-5.7q0-1.3-0.5-1.9-0.6-0.6-1.6-0.6-0.8 0-1.4 0.3-0.6 0.3-0.9 0.9-0.3 0.7-0.3 1.7v5.3h-3.1v-10.8h2.9v3l-0.5-0.9q0.6-1.1 1.6-1.6 1.1-0.6 2.5-0.6zm14.1 10.9v-2.1l-0.2-0.5v-3.7q0-1-0.6-1.6-0.6-0.5-1.9-0.5-0.8 0-1.7 0.2-0.8 0.3-1.4 0.8l-1.1-2.2q0.9-0.6 2.1-1 1.3-0.3 2.5-0.3 2.5 0 3.9 1.1 1.3 1.2 1.3 3.7v6.1zm-3.3 0.2q-1.2 0-2.1-0.5-0.9-0.4-1.4-1.1-0.5-0.8-0.5-1.7 0-1 0.5-1.7 0.5-0.7 1.5-1.1 1-0.4 2.6-0.4h2.9v1.8h-2.5q-1.1 0-1.5 0.4-0.4 0.3-0.4 0.9 0 0.6 0.4 0.9 0.5 0.4 1.3 0.4 0.8 0 1.4-0.4 0.6-0.4 0.9-1.1l0.5 1.4q-0.3 1.1-1.2 1.6-0.9 0.6-2.4 0.6zm9.3-0.2v-14.8h3.1v14.8zm7.6 4q-0.9 0-1.7-0.2-0.8-0.3-1.3-0.7l1.1-2.3q0.4 0.4 0.8 0.5 0.5 0.2 1 0.2 0.6 0 1-0.3 0.4-0.3 0.7-1l0.6-1.3 0.2-0.4 3.9-9.3h3l-4.9 11.5q-0.5 1.3-1.2 2-0.6 0.7-1.5 1-0.8 0.3-1.7 0.3zm1.8-3.6l-4.8-11.2h3.2l3.7 9zm13.7-0.2q-1.9 0-3-1-1-1-1-2.9v-9.4h3.1v9.4q0 0.7 0.3 1 0.4 0.4 1 0.4 0.8 0 1.3-0.4l0.8 2.2q-0.5 0.3-1.1 0.5-0.7 0.2-1.4 0.2zm-5.7-8.3v-2.4h7.5v2.4zm10.1 8.1v-10.7h3.1v10.7zm1.6-12.2q-0.8 0-1.4-0.5-0.5-0.5-0.5-1.3 0-0.7 0.5-1.2 0.6-0.5 1.4-0.5 0.9 0 1.4 0.5 0.5 0.4 0.5 1.2 0 0.7-0.5 1.3-0.5 0.5-1.4 0.5zm9.9 12.4q-1.8 0-3.1-0.7-1.4-0.7-2.2-2-0.7-1.3-0.7-2.9 0-1.6 0.7-2.8 0.8-1.3 2.2-2 1.3-0.7 3.1-0.7 1.7 0 2.9 0.7 1.3 0.7 1.9 2l-2.4 1.3q-0.5-0.7-1.1-1.1-0.6-0.3-1.4-0.3-0.8 0-1.4 0.3-0.6 0.4-1 1-0.4 0.7-0.4 1.6 0 1 0.4 1.6 0.4 0.7 1 1.1 0.6 0.3 1.4 0.3 0.8 0 1.4-0.3 0.6-0.4 1.1-1.2l2.4 1.4q-0.6 1.3-1.9 2-1.2 0.7-2.9 0.7zm10.4 0q-1.4 0-2.7-0.3-1.2-0.4-2-0.9l1.1-2.2q0.7 0.4 1.7 0.7 1 0.3 2 0.3 1.1 0 1.5-0.2 0.5-0.3 0.5-0.8 0-0.3-0.4-0.5-0.3-0.2-0.9-0.3-0.6-0.1-1.3-0.2-0.6-0.1-1.3-0.3-0.7-0.2-1.3-0.5-0.6-0.3-1-0.9-0.3-0.6-0.3-1.5 0-1 0.6-1.8 0.6-0.8 1.7-1.2 1.1-0.5 2.7-0.5 1.1 0 2.2 0.2 1.2 0.3 1.9 0.7l-1 2.3q-0.8-0.5-1.6-0.7-0.8-0.1-1.5-0.1-1.1 0-1.5 0.2-0.5 0.3-0.5 0.8 0 0.4 0.3 0.6 0.4 0.2 1 0.3 0.5 0.1 1.2 0.2 0.7 0.1 1.4 0.3 0.7 0.1 1.3 0.5 0.6 0.3 0.9 0.9 0.4 0.5 0.4 1.5 0 1-0.6 1.7-0.6 0.8-1.8 1.2-1.1 0.5-2.7 0.5zm-75.9 23.9q-1.5 0-2.7-0.7-1.2-0.6-1.8-1.8-0.7-1.3-0.7-2.8 0-1.6 0.7-2.8 0.6-1.2 1.8-1.9 1.2-0.7 2.7-0.7 1.4 0 2.5 0.6 1.1 0.7 1.7 1.9 0.7 1.1 0.7 2.9 0 1.7-0.7 2.9-0.6 1.2-1.7 1.8-1.1 0.6-2.5 0.6zm0.1-1.2q1.1 0 2-0.5 0.9-0.6 1.4-1.5 0.5-0.9 0.5-2.1 0-1.3-0.5-2.2-0.5-0.9-1.4-1.4-0.9-0.5-2-0.5-1.1 0-2 0.5-0.8 0.5-1.4 1.4-0.5 0.9-0.5 2.2 0 1.2 0.5 2.1 0.6 0.9 1.4 1.5 0.9 0.5 2 0.5zm4 1.1v-3.1l0.1-2.2-0.2-2.1v-7.4h1.4v14.8zm5-8.7v-1.2h8.7v1.2zm0 4.6v-1.2h8.7v1.2zm11.5-0.7v-1.2h5.2v1.2zm13.4 4.9q-1.6 0-2.9-0.8-1.2-0.9-1.9-2.4-0.8-1.6-0.8-3.9 0-2.2 0.8-3.8 0.7-1.6 1.9-2.4 1.3-0.9 2.9-0.9 1.6 0 2.9 0.9 1.3 0.8 2 2.4 0.7 1.6 0.7 3.8 0 2.3-0.7 3.9-0.7 1.5-2 2.4-1.3 0.8-2.9 0.8zm0-1.3q1.3 0 2.2-0.6 0.9-0.7 1.4-2 0.5-1.3 0.5-3.2 0-1.9-0.5-3.1-0.5-1.3-1.4-2-0.9-0.7-2.2-0.7-1.2 0-2.1 0.7-1 0.7-1.5 2-0.5 1.2-0.5 3.1 0 1.9 0.5 3.2 0.5 1.3 1.5 2 0.9 0.6 2.1 0.6zm8.8 1.3q-0.5 0-0.8-0.3-0.3-0.3-0.3-0.8 0-0.5 0.3-0.8 0.3-0.3 0.8-0.3 0.4 0 0.7 0.3 0.3 0.3 0.3 0.8 0 0.5-0.3 0.8-0.3 0.3-0.7 0.3zm7.7-14.2q1.8 0 3.1 0.8 1.3 0.9 2 2.4 0.6 1.6 0.6 3.8 0 2.4-0.8 4-0.8 1.6-2.2 2.4-1.5 0.8-3.4 0.8-0.9 0-1.8-0.1-0.8-0.2-1.5-0.6l0.6-1.2q0.5 0.4 1.2 0.5 0.7 0.2 1.5 0.2 2.3 0 3.6-1.5 1.4-1.4 1.4-4.3 0-0.4-0.1-1.1 0-0.6-0.2-1.2l0.5 0.3q-0.2 1.1-0.9 1.8-0.6 0.7-1.6 1.1-0.9 0.4-2.1 0.4-1.4 0-2.4-0.5-1.1-0.5-1.7-1.5-0.6-0.9-0.6-2.2 0-1.3 0.6-2.3 0.6-0.9 1.7-1.5 1.1-0.5 2.5-0.5zm0 1.2q-1 0-1.7 0.4-0.8 0.4-1.2 1-0.5 0.7-0.5 1.7 0 1.3 1 2.2 0.9 0.8 2.5 0.8 1.1 0 1.9-0.4 0.8-0.4 1.3-1.1 0.4-0.7 0.4-1.6 0-0.8-0.4-1.4-0.4-0.7-1.2-1.1-0.8-0.5-2.1-0.5zm7.8 9.2v-1l7.4-9.3h1.6l-7.4 9.3-0.8-0.2h11.3v1.2zm7.9 3.7v-3.7-1.2-3.3h1.4v8.2z"/>
					<path class="s7" d="m530.8 133v-14h6.4q2.3 0 4 0.9 1.7 0.8 2.7 2.4 1 1.6 1 3.7 0 2.1-1 3.7-1 1.6-2.7 2.4-1.7 0.9-4 0.9zm3.2-2.7h3q1.4 0 2.4-0.5 1-0.5 1.6-1.5 0.6-1 0.6-2.3 0-1.3-0.6-2.3-0.6-1-1.6-1.5-1-0.5-2.4-0.5h-3zm17.8 2.8q-1.3 0-2.4-0.5-1-0.6-1.6-1.6-0.6-1.1-0.6-2.8v-6h3.1v5.6q0 1.3 0.6 2 0.6 0.6 1.6 0.6 0.7 0 1.3-0.3 0.6-0.3 0.9-1 0.3-0.6 0.3-1.6v-5.3h3.1v10.7h-2.9v-2.9l0.5 0.8q-0.5 1.1-1.6 1.7-1 0.6-2.3 0.6zm23.2-11.1q1.3 0 2.2 0.5 1 0.5 1.6 1.6 0.6 1 0.6 2.7v6.1h-3.1v-5.7q0-1.3-0.6-1.9-0.5-0.6-1.5-0.6-0.7 0-1.2 0.3-0.6 0.3-0.9 0.9-0.3 0.7-0.3 1.6v5.4h-3.1v-5.7q0-1.3-0.5-1.9-0.5-0.6-1.5-0.6-0.7 0-1.2 0.3-0.6 0.3-0.9 0.9-0.3 0.7-0.3 1.6v5.4h-3.1v-10.7h3v2.9l-0.6-0.9q0.6-1.1 1.6-1.6 1-0.6 2.4-0.6 1.4 0 2.5 0.8 1.2 0.7 1.5 2.2l-1.1-0.3q0.6-1.2 1.7-2 1.2-0.7 2.8-0.7zm21.2 0q1.2 0 2.2 0.5 1 0.5 1.6 1.6 0.6 1 0.6 2.7v6.1h-3.2v-5.7q0-1.3-0.5-1.9-0.5-0.6-1.5-0.6-0.7 0-1.2 0.3-0.6 0.3-0.9 0.9-0.3 0.7-0.3 1.6v5.4h-3.1v-5.7q0-1.3-0.5-1.9-0.6-0.6-1.5-0.6-0.7 0-1.3 0.3-0.5 0.3-0.8 0.9-0.3 0.7-0.3 1.6v5.4h-3.1v-10.7h3v2.9l-0.6-0.9q0.6-1.1 1.6-1.6 1-0.6 2.3-0.6 1.5 0 2.6 0.8 1.1 0.7 1.5 2.2l-1.1-0.3q0.5-1.2 1.7-2 1.2-0.7 2.8-0.7zm8.5 15q-0.8 0-1.6-0.3-0.9-0.3-1.4-0.7l1.2-2.2q0.3 0.3 0.8 0.5 0.5 0.1 0.9 0.1 0.7 0 1.1-0.3 0.4-0.3 0.7-1l0.5-1.3 0.3-0.4 3.8-9.2h3l-4.8 11.4q-0.5 1.3-1.2 2-0.7 0.8-1.5 1.1-0.8 0.3-1.8 0.3zm1.9-3.7l-4.8-11.1h3.2l3.7 9zm19.2-0.3q-1.9 0-2.9-1-1.1-0.9-1.1-2.9v-9.4h3.1v9.4q0 0.7 0.4 1.1 0.3 0.3 1 0.3 0.7 0 1.2-0.4l0.9 2.2q-0.5 0.4-1.2 0.5-0.7 0.2-1.4 0.2zm-5.7-8.3v-2.4h7.5v2.4zm15.2 8.3q-1.9 0-3.3-0.7-1.3-0.7-2.1-2-0.8-1.2-0.8-2.8 0-1.7 0.8-2.9 0.7-1.3 2-2 1.3-0.7 3-0.7 1.6 0 2.8 0.7 1.3 0.7 2 1.9 0.8 1.3 0.8 3 0 0.2 0 0.4-0.1 0.2-0.1 0.4h-8.7v-1.8h7.1l-1.2 0.6q0-0.9-0.4-1.5-0.3-0.6-0.9-1-0.6-0.3-1.4-0.3-0.8 0-1.4 0.3-0.6 0.4-1 1-0.3 0.6-0.3 1.5v0.5q0 0.9 0.4 1.5 0.4 0.7 1.1 1.1 0.7 0.3 1.7 0.3 0.8 0 1.5-0.3 0.6-0.2 1.2-0.7l1.6 1.8q-0.7 0.8-1.8 1.3-1.2 0.4-2.6 0.4zm5.8-0.2l4.8-6.3v1.7l-4.7-6.1h3.5l3 4h-1.4l3.1-4h3.3l-4.7 6.1v-1.7l4.8 6.3h-3.5l-3.1-4.2 1.3 0.1-3 4.1zm17.9 0.2q-1.9 0-3-1-1.1-0.9-1.1-2.9v-9.4h3.2v9.4q0 0.7 0.3 1.1 0.4 0.3 1 0.3 0.7 0 1.3-0.4l0.8 2.2q-0.5 0.4-1.2 0.5-0.6 0.2-1.3 0.2zm-5.7-8.3v-2.4h7.4v2.4zm-89.4 32.2q-1.5 0-2.7-0.6-1.2-0.7-1.9-1.9-0.6-1.2-0.6-2.8 0-1.6 0.6-2.8 0.7-1.2 1.9-1.9 1.2-0.7 2.7-0.7 1.4 0 2.5 0.7 1.1 0.6 1.7 1.8 0.7 1.2 0.7 2.9 0 1.7-0.7 2.9-0.6 1.2-1.7 1.8-1.1 0.6-2.5 0.6zm0.1-1.2q1.1 0 2-0.5 0.9-0.5 1.4-1.5 0.5-0.9 0.5-2.1 0-1.3-0.5-2.2-0.5-0.9-1.4-1.4-0.9-0.5-2-0.5-1.1 0-2 0.5-0.9 0.5-1.4 1.4-0.5 0.9-0.5 2.2 0 1.2 0.5 2.1 0.5 1 1.4 1.5 0.9 0.5 2 0.5zm4 1.1v-3.1l0.1-2.1-0.2-2.2v-7.4h1.4v14.8zm5-8.7v-1.2h8.7v1.2zm0 4.6v-1.1h8.7v1.1zm11.5-0.7v-1.2h5.2v1.2zm13.4 5q-1.6 0-2.9-0.9-1.2-0.8-1.9-2.4-0.8-1.6-0.8-3.9 0-2.2 0.8-3.8 0.7-1.6 1.9-2.4 1.3-0.9 2.9-0.9 1.6 0 2.9 0.9 1.3 0.8 2 2.4 0.7 1.6 0.7 3.8 0 2.3-0.7 3.9-0.7 1.6-2 2.4-1.3 0.9-2.9 0.9zm0-1.4q1.3 0 2.2-0.6 0.9-0.7 1.4-2 0.5-1.3 0.5-3.2 0-1.8-0.5-3.1-0.5-1.3-1.4-2-0.9-0.7-2.2-0.7-1.2 0-2.1 0.7-1 0.7-1.5 2-0.5 1.3-0.5 3.1 0 1.9 0.5 3.2 0.5 1.3 1.5 2 0.9 0.6 2.1 0.6zm8.7 1.3q-0.4 0-0.7-0.3-0.3-0.3-0.3-0.8 0-0.4 0.3-0.7 0.3-0.3 0.7-0.3 0.5 0 0.8 0.3 0.3 0.3 0.3 0.7 0 0.5-0.3 0.8-0.3 0.3-0.8 0.3zm7.8 0.1q-1.5 0-2.9-0.5-1.3-0.5-2.2-1.3l0.7-1.2q0.7 0.7 1.9 1.2 1.1 0.4 2.5 0.4 1.7 0 2.6-0.7 1-0.8 1-2.1 0-1.2-0.9-2-0.9-0.8-2.9-0.8h-1v-1l4.3-5.4 0.2 0.5h-7.8v-1.3h9v1.1l-4.3 5.4-0.7-0.5h0.5q2.6 0 3.8 1.1 1.3 1.2 1.3 2.9 0 1.2-0.6 2.1-0.6 1-1.7 1.5-1.1 0.6-2.8 0.6zm12.6 0q-1.7 0-2.9-0.5-1.2-0.5-1.9-1.4-0.6-0.9-0.6-2.2 0-1.2 0.6-2 0.7-0.9 1.9-1.3 1.2-0.5 2.9-0.5 1.7 0 2.9 0.5 1.2 0.4 1.9 1.3 0.6 0.8 0.6 2 0 1.3-0.6 2.2-0.7 0.9-1.9 1.4-1.2 0.5-2.9 0.5zm0-1.3q1.9 0 2.9-0.7 1.1-0.8 1.1-2.1 0-1.3-1.1-2-1-0.8-2.9-0.8-1.9 0-2.9 0.8-1 0.7-1 2 0 1.3 1 2.1 1 0.7 2.9 0.7zm0-5.8q-1.6 0-2.7-0.4-1-0.4-1.6-1.2-0.6-0.8-0.6-1.9 0-1.1 0.6-2 0.6-0.8 1.7-1.2 1.1-0.5 2.6-0.5 1.5 0 2.6 0.5 1.1 0.4 1.7 1.2 0.6 0.9 0.6 2 0 1.1-0.5 1.9-0.6 0.8-1.7 1.2-1.1 0.4-2.7 0.4zm0-0.9q1.6 0 2.6-0.7 0.9-0.7 0.9-1.8 0-1.2-1-1.9-0.9-0.7-2.5-0.7-1.6 0-2.5 0.7-1 0.7-1 1.9 0 1.1 0.9 1.8 1 0.7 2.6 0.7z"/>
					<text id="" style="transform: matrix(1,0,0,1,387,113)" >
					</text>
					<text id="Text layer 34" style="transform: matrix(1,0,0,1,375,124)" >
						<tspan>
							Hello
						</tspan>
					</text>
					<path class="s7" d="m260.1 454.2l-1.3 4.8-0.5-1.8q0.9 0 1.4 0.5 0.6 0.5 0.6 1.3 0 0.9-0.6 1.4-0.5 0.6-1.4 0.6-0.8 0-1.4-0.6-0.5-0.5-0.5-1.4 0-0.2 0-0.5 0.1-0.2 0.2-0.6 0.1-0.3 0.3-0.9l1.2-2.8zm4.7 0l-1.3 4.8-0.4-1.8q0.8 0 1.4 0.5 0.5 0.5 0.5 1.3 0 0.9-0.6 1.4-0.5 0.6-1.3 0.6-0.9 0-1.4-0.6-0.6-0.5-0.6-1.4 0-0.2 0.1-0.5 0-0.2 0.1-0.6 0.2-0.3 0.4-0.9l1.1-2.8zm2.6 14.8v-14h3.2v14zm5.8-8.2l1.4-4.8 0.4 1.8q-0.9 0-1.4-0.5-0.6-0.5-0.6-1.4 0-0.8 0.6-1.4 0.6-0.5 1.4-0.5 0.8 0 1.4 0.5 0.5 0.6 0.5 1.4 0 0.3 0 0.5-0.1 0.3-0.2 0.6-0.1 0.4-0.3 0.9l-1.2 2.9zm4.7 0l1.4-4.8 0.4 1.8q-0.9 0-1.4-0.5-0.6-0.5-0.6-1.4 0-0.8 0.6-1.4 0.6-0.5 1.4-0.5 0.8 0 1.4 0.5 0.5 0.6 0.5 1.4 0 0.3 0 0.5-0.1 0.3-0.2 0.6-0.1 0.4-0.3 0.9l-1.2 2.9zm-30.3 32.3q-1.5 0-2.7-0.7-1.1-0.7-1.8-1.9-0.7-1.2-0.7-2.8 0-1.6 0.7-2.8 0.7-1.2 1.8-1.8 1.2-0.7 2.7-0.7 1.4 0 2.5 0.6 1.1 0.6 1.7 1.8 0.7 1.2 0.7 2.9 0 1.7-0.6 2.9-0.7 1.2-1.8 1.9-1.1 0.6-2.5 0.6zm0.1-1.3q1.2 0 2-0.5 0.9-0.5 1.4-1.4 0.6-0.9 0.6-2.2 0-1.2-0.6-2.1-0.5-0.9-1.4-1.4-0.8-0.6-2-0.6-1.1 0-1.9 0.6-0.9 0.5-1.4 1.4-0.6 0.9-0.6 2.1 0 1.3 0.6 2.2 0.5 0.9 1.4 1.4 0.8 0.5 1.9 0.5zm4 1.2v-3.2l0.1-2.1-0.2-2.1v-7.4h1.5v14.8zm4.7-8.7v-1.2h8.7v1.2zm0 4.6v-1.2h8.7v1.2zm10.9 4.1v-1l5.8-5.7q0.8-0.8 1.2-1.4 0.4-0.6 0.5-1.1 0.2-0.5 0.2-1 0-1.2-0.9-1.9-0.8-0.7-2.4-0.7-1.2 0-2.2 0.4-0.9 0.4-1.6 1.2l-1.1-0.9q0.9-1 2.1-1.5 1.3-0.5 2.9-0.5 1.4 0 2.5 0.4 1 0.5 1.6 1.3 0.6 0.9 0.5 2.1 0.1 0.6-0.2 1.3-0.1 0.7-0.6 1.4-0.5 0.7-1.5 1.6l-5.3 5.3-0.4-0.6h8.7v1.3zm12.9 0.1q-0.4 0-0.8-0.3-0.3-0.3-0.3-0.8 0-0.5 0.3-0.8 0.4-0.3 0.8-0.3 0.4 0 0.7 0.3 0.4 0.3 0.4 0.8 0 0.5-0.4 0.8-0.3 0.3-0.7 0.3zm5.4-0.1v-13.4l0.6 0.7h-3.9v-1.3h4.7v14zm7.2 0v-13.4l0.7 0.7h-4v-1.3h4.8v14z"/>
				</g>
			</g>
			<path fill-rule="evenodd" class="s1" d="m455.1-4.4c44-1.1 64.7-1.5 84.6 2.2 16.9 3.1 33.3 9.1 63.1 20.1 5.1 1.9 10.6 3.9 16.6 6 42.2 15.5 85.2 32 118.4 55.6l-0.2 0.4 0.2-0.4c9 6.4 15 13.5 20.5 21.2 2.1 2.9 4 5.9 6.1 8.9 3.3 5.1 6.8 10.3 10.9 15.7l39.8 51.3c16.3 20.9 30 37 41.3 50.1 4.1 4.8 7.9 9.2 11.3 13.3 12.8 15.3 20.9 26.5 24.1 38.6 3.6 13.4 5.6 32.5 7.5 53.8q0.4 4.3 0.8 8.7c1.7 18.9 3.5 39.2 6.4 58.6 3.4 22.4 8.2 43.7 16.1 60.5 7.8 16.8 18.5 29 33.7 33.4l1.6 0.5-1.6 0.5c-6.2 2-12.5 1.5-19-2-6.1-3.3-12.3-9.2-18.7-17.9 3.8 40.3 4.8 65.6-3.9 87.3-8.8 22-27.6 40.2-63.4 66.4v0.1h-0.1c-8.5 3.8-16.5 6.8-24 9.6q-0.9 0.4-1.8 0.7c-8 3-15.4 5.9-22.2 9.3-13.6 6.7-25 15.5-34.5 32l-0.5 0.9-0.4-0.9c-3.6-9.6-4.8-14.3-4.9-19.2 0-2.4 0.3-4.8 0.8-7.8q0.1-1 0.3-2.1c0.3-2 0.6-4.3 0.9-7-6.2 10.5-12.3 17-17.5 22.6-2.1 2.3-4.1 4.4-5.9 6.6-3.2 3.9-5.9 8.1-7.7 13.7-1.8 5.7-2.8 12.8-2.8 22.7v1.3l-0.8-0.9c-5.7-6.2-6.7-12.3-6.7-18.4 0.1-2 0.2-4.1 0.3-6.1q0.1-1.5 0.2-3c0.2-2.6 0.2-5.3-0.1-7.9-3.5 4-6.6 7.5-9.4 10.8-6.6 7.6-11.7 13.5-16 18.1-6.3 6.7-11 10.7-16.2 13.6-5.3 2.9-11.2 4.6-19.8 6.7-2.7 0.6-5.5 1.2-8.7 1.9h-0.1c-7.4 1.7-16.5 3.7-28.1 6.7h-0.1l-26.3 0.4c-0.2-12.6 0.5-25.5 2.1-38.7l22.6-0.3h0.1 0.1c10.2-2.6 18.1-4.3 24.6-5.8 2.8-0.6 5.3-1.2 7.6-1.7 7.6-1.8 12.8-3.2 17.5-5.8 4.7-2.5 8.8-6.1 14.3-11.9 3.8-4 8.2-9.1 14-15.7h0.1q3.3-3.9 7.3-8.4c0.1 1.8 0.1 3.6 0 5.5q-0.1 1.3-0.2 2.6c-0.1 1.7-0.2 3.5-0.3 5.3 0 5.3 1 10.8 6 16.3l1.7 1.9v-2.6c0-8.5 0.9-14.7 2.5-19.5 1.5-4.8 3.8-8.3 6.6-11.7 1.5-1.8 3.2-3.7 5.1-5.6v-0.1c4.1-4.4 9-9.5 14-17.4q-0.2 1.1-0.3 2.1-0.1 0.7-0.2 1.3l-0.1 0.4q0 0.4-0.1 0.8v0.2q0 0.2-0.1 0.4c-0.4 2.7-0.6 4.8-0.6 6.9 0 4.3 1.1 8.5 4.3 16.8l0.7 2 1.1-1.9c8.2-14.1 18.1-21.7 29.9-27.5 5.9-2.9 12.3-5.4 19.3-8q0.8-0.3 1.6-0.6c6.6-2.4 13.6-5.1 21-8.3l0.1-0.1h0.1c31.3-22.8 47.9-38.6 55.7-57.8 7.5-18.6 6.7-40.2 3.6-74 5.1 6.8 10.2 11.4 15.3 14.1 5.8 3.1 11.5 3.6 17.1 1.8l3.1-1-3.1-0.9c-13.1-3.8-22.4-14.2-29.2-28.7-6.8-14.4-11-32.8-14-52.2-2.5-16.8-4.1-34.4-5.6-50.8q-0.3-3.8-0.7-7.5c-1.7-18.4-3.4-35-6.5-46.7-2.9-10.6-10.1-20.4-21.2-33.6-3.1-3.6-6.4-7.4-10-11.6-9.8-11.3-21.8-25.2-36-43.3l-34.7-44.5c-3.7-4.6-6.7-9.1-9.6-13.5-1.8-2.6-3.5-5.2-5.3-7.8-4.8-6.6-10.1-12.9-18.1-18.4-29.1-20.5-66.7-34.8-103.6-48.2q-7.8-2.8-14.5-5.3c-26.1-9.5-40.4-14.7-55.3-17.4-17.4-3.2-35.6-2.9-74-1.9q-3.6-0.6-7-1.1l-0.2-0.1c-34.6-5.4-49.7-7.8-63.3-6.3-7.3 0.8-14 2.7-23 5.8-3.9 1.4-8.2 3-13.2 4.8q-1.2 0.4-2.3 0.8c-6 2.2-12.9 4.7-21 7.5-16.9 5.8-36.9 9.3-56 12.7q-2.7 0.5-5.4 1l21.4-2.9c-5.3 1-10.6 2-15.8 2.9q-2.7 0.5-5.4 0.9c-16.1 2.9-22.2 14.6-29.3 28.4q-0.9 1.7-1.8 3.4l-1.3 0.4c-2.5 4.6-2.7 9.8-1.6 15.3 1.1 5.4 3.5 11.2 6.5 16.8 2.9 5.6 6.4 11.3 9.7 16.4l0.6 1.1c2.9 4.6 5.6 8.8 7.5 12.4q-4.7 6.5-9.2 12.6v0.1c-28.6 39.4-49 67.4-72 108.3-8.4 14.9-11.4 34-12.7 49.7-0.5 6.8-0.8 12.9-0.9 17.9q-0.1 1.3-0.1 2.4c-0.1 2.7-0.2 4.9-0.4 6.6q-0.1 1.2-0.3 2c-0.1 0.5-0.2 0.7-0.2 0.8-8.6 12.3-20.6 22.1-33.6 31.1-5.3 3.7-10.7 7.2-16.1 10.7q-1.9 1.2-3.8 2.5c-6.6 4.3-13.1 8.6-19.2 13.2l-0.1 0.1c-4.8 2.8-9.9 5.9-13.6 9.9-3.8 4.1-6.3 9.2-5.8 16.1 0.3 3.2 1.7 6.4 3.8 9.4 2.1 2.9 5 5.8 8 8.5 5.4 4.6 11.6 8.7 16.1 11.7q0.8 0.5 1.5 1c2.4 9.6 2.4 16.2 0 22-2.4 6-7.2 11.2-14.9 18.2l-0.2 0.2-0.1 0.2c-1.3 4.3-1.7 8.1-1.2 11.4 0.5 3.4 1.8 6.4 3.7 9.3 1.9 2.9 4.4 5.7 7.4 8.6q2 2.1 4.2 4.3l0.4 0.4q2.2 2.1 4.5 4.4-2 2-3.7 3.6c-2.3 2.2-4.2 4-5.7 5.6-2.5 2.6-4.2 4.7-5.2 7.1-1 2.4-1.3 5.1-1.2 8.7 0 3.1 0.3 6.9 0.7 12q0.1 1.2 0.2 2.4l0.1 0.7 0.6 0.2 12.4 3.4c2.9 0.9 4.4 2.3 5.1 4 0.7 1.7 0.7 3.9 0.1 6.3-1.1 4.8-4 9.9-5.9 13.2l-0.2 0.2v0.1 0.1c-6.4 16.3-6.2 28.2-1.4 36.7 4.8 8.4 14 13.2 25 15.8 21.9 5 51.7 1.1 70.5-1.7 29.5-4.5 56.9 1.1 73.4 12.8 15.7 11.3 25.8 28.2 35 47.8 3.1 6.5 6 13.4 9 20.4h0.1c6 13.9 12.2 28.4 20.1 42.5 2.9 10.9 5.7 20.8 8.2 30 13.3 48.4 21.4 77.7 23.4 132.6 0.3 7.7 0.3 11.7-0.4 15.5-0.7 3.7-1.9 7.2-4.2 13.7l-0.4 1c-18.7 18.2-22.2 35.2-26.6 56.8q-0.6 2.8-1.2 5.7c0.1-2.8 0-6.1-0.2-10.3-2.3-63.5-11.5-97.4-26.7-153.3-2.9-10.6-6.1-22.1-9.4-34.7-9.1-16.3-16.2-33.1-23.1-49.1-3.5-8.1-6.9-16-10.4-23.6-10.5-22.6-22.1-42.3-40.2-55.4-19-13.7-50.6-20.2-84.4-14.9-21.6 3.3-55.5 7.7-80.4 1.9-12.5-2.9-22.9-8.3-28.2-17.9-5.4-9.5-5.7-23 1.6-41.8l0.2-0.3c2.1-3.8 5.6-9.8 6.9-15.4 0.6-2.9 0.7-5.6-0.2-7.8-0.9-2.1-2.8-3.9-6.3-4.9l0.2-0.5-0.2 0.5-14.1-4-0.4-0.1v-0.3q-0.1-1.4-0.2-2.8c-0.5-5.8-0.8-10.3-0.9-13.8 0-4.1 0.3-7.1 1.4-9.8 1.1-2.7 3-5 5.8-8 1.7-1.8 3.9-3.9 6.5-6.4q2.2-2 4.8-4.6-3-3-5.6-5.6l-0.5-0.5q-2.6-2.5-4.9-4.9c-3.3-3.4-6.2-6.6-8.3-9.8-2.2-3.3-3.6-6.7-4.1-10.5-0.6-3.7-0.2-7.9 1.3-12.9v-0.1l0.1-0.1c8.8-8 14.5-14.2 17.3-21.2 2.8-6.9 2.7-14.7-0.1-26q-0.9-0.6-1.9-1.3c-5.2-3.5-12.3-8.2-18.4-13.6-3.4-3-6.6-6.3-9-9.6-2.4-3.4-3.9-7-4.2-10.5-0.5-7.8 2.2-13.5 6.4-18.1 4.2-4.6 9.9-8 15.5-11.4h0.1c6.9-5.3 14.4-10.3 22-15.3q2.2-1.5 4.3-2.9c6.2-4 12.4-8.1 18.4-12.4 14.9-10.4 28.8-21.8 38.6-36 0.1-0.2 0.3-0.6 0.4-1.2q0.2-1 0.3-2.4c0.2-1.9 0.3-4.5 0.4-7.6q0.1-0.3 0.1-0.5 0-0.3 0-0.6 0-0.8 0-1.7c0.3-5.8 0.5-12.8 1.1-20.6 1.5-18.2 4.9-40.1 14.4-57.2 26.3-47.1 49.6-79.4 82.2-124.7q5.3-7.4 11-15.2c-2.3-4.3-5.4-9.4-8.8-14.8q-0.4-0.6-0.7-1.2c-3.8-6-7.8-12.4-11.1-18.9-3.4-6.5-6.1-13.1-7.3-19.3-1.3-6.2-1-12.1 1.7-17.2q1.3-2.5 2.5-4.9c3.7-7.2 7.1-13.9 11.5-19.4 5.3-6.8 12.1-11.8 22.4-13.6q3.2-0.6 6.4-1.1c21.8-3.9 44.7-7.9 64-14.7 9.2-3.2 17.1-6.1 23.9-8.6q1.4-0.5 2.7-1c5.7-2.1 10.6-3.9 15.1-5.4 10.2-3.6 17.9-5.8 26.2-6.7 15.4-1.8 32.7 1 72.3 7.3q3.9 0.6 8.2 1.3zm-118.8 1106.6l-0.5 1.5c-3.9 11.2-7.8 22.6-9.8 32.4-12.7 33.8-24.2 62.6-36 89.8 2-6.3 4.2-12.9 6.5-19.5l0.6-1.7c4.3-12.5 8.4-24.7 10.8-35 1-4.8 2-9.5 2.9-14 5-24.5 8.9-43.7 29.2-64.1-1.2 3.4-2.4 7-3.7 10.6zm138.7-1047.7l-2.4 0.6-1.1-0.2z"/>
		</g>
	</g>
</svg>