<svg version="1.2" xmlns="http://www.w3.org/2000/svg" viewBox="0 0 953 977" width="953" height="977">
	<title>Group 4</title>
	<defs>
		<clipPath clipPathUnits="userSpaceOnUse" id="cp1">
			<path d="m0 0h953v1277h-953z"/>
		</clipPath>
		<clipPath clipPathUnits="userSpaceOnUse" id="cp2">
			<path d="m633.92 865.39c-27.49-52.28-40.41-108.17-32.58-172.28l23.44-0.31c58.29-14.61 44.8-3.65 86.32-50.58 1.86 10.43-4.06 20.88 5.55 31.31-0.12-34.54 14.55-30.71 30.78-58.9-2 16.84-4.1 16.63 2.21 33.12 16.65-28.75 40.11-30.79 72.32-44.91 62.63-45.42 65.33-62.65 58.51-134.39 11.71 16.51 22.8 21.87 33.43 18.39-53.72-15.52-44.3-140.18-56.67-186.55-5.54-20.76-28.16-38.6-66.96-88.19l-34.78-44.45c-11.77-15.04-17.11-28.63-32.7-39.57-29.02-20.42-66.5-34.68-103.45-48.06-71.37-25.84-66.42-26.4-143.49-24.54-79.72-12.53-64.57-11.19-129.59 11.35-18.56 6.43-40.94 10.06-61.56 13.71-17.75 3.13-23.3 17.02-31.52 32.6-9.16 17.33 14.55 45.32 23 61.66-33.85 46.7-56.03 76.13-81.51 121.39-16.54 29.36-12.02 75.67-14.66 79.46-17.3 24.88-48.55 39.49-72.96 57.81-9.77 5.85-19.94 11.93-18.99 25.16 0.85 11.96 19.88 23.83 29.24 30.07 5.05 19.85 0.22 27.66-15.12 41.53-5.11 16.85 4.99 23.35 19.51 38.14-17.77 17.19-17.38 14.04-15.36 39.26l12.37 3.47c12.51 3.5 3.44 18.73-0.29 25.16-25.26 64.69 55.39 55.19 93.1 49.44 29.65-4.54 57.31 1.09 74.08 13.04 31.91 22.8 40.77 68.59 64.61 111.08 18.22 68.32 29.21 97.44 31.6 163 0.56 15.37 0.04 16.28-5.11 30.72-21.94 21.27-22.78 40.77-29.07 68.63-4.23 18.69-15.71 44.78-19.75 64.2-17.5 46.78-32.82 83.96-49.69 120.64h526.15c-22.12-105.72-57.89-224.18-111.57-295.59-23.82-31.67-44.54-68.85-58.8-96.02z"/>
		</clipPath>
	</defs>
	<style>
		.s0 { fill: #3a256e } 
		.s1 { fill: none;stroke: #231f20;stroke-miterlimit:10 } 
		.s2 { fill: #ffffff;stroke: #231f20;stroke-miterlimit:10 } 
		.s3 { fill: none;stroke: #231f20;stroke-width: 2 } 
		.s4 { fill: #ffffff;stroke: #231f20;stroke-width: 2 } 
		.s5 { fill: #000000 } 
	</style>
	<g id="Clip-Path" clip-path="url(#cp1)">
		<path fill-rule="evenodd" class="s0" d="m703.2 1043c-27.3-36.6-51-79.5-67.3-110.8-31.4-60.4-46.3-124.9-37.3-198.9l26.9-0.4c66.6-16.9 51.2-4.2 98.7-58.4 2.1 12-4.7 24.1 6.3 36.1-0.1-39.8 16.7-35.4 35.2-68-2.3 19.5-4.6 19.3 2.6 38.3 19-33.2 45.9-35.6 82.7-51.9 71.6-52.4 74.7-72.3 66.9-155.1 13.4 19 26.1 25.2 38.3 21.2-61.5-17.9-50.7-161.8-64.9-215.4-6.3-24-32.2-44.5-76.6-101.8l-39.8-51.3c-13.4-17.4-19.5-33-37.3-45.7-33.3-23.6-76.1-40-118.4-55.5-81.6-29.8-76-30.5-164.1-28.3-91.2-14.5-73.9-12.9-148.3 13.1-21.2 7.4-46.8 11.6-70.4 15.8-20.3 3.6-26.7 19.7-36.1 37.6-10.5 20 16.7 52.3 26.3 71.2-38.7 53.9-64.1 87.9-93.2 140.2-18.9 33.9-13.8 87.4-16.8 91.7-19.8 28.8-55.5 45.6-83.5 66.8-11.1 6.7-22.8 13.8-21.7 29 1 13.8 22.7 27.5 33.4 34.8 5.8 22.8 0.3 31.9-17.2 47.9-5.9 19.4 5.7 26.9 22.3 44-20.4 19.9-19.9 16.2-17.6 45.3l14.2 4c14.3 4.1 3.9 21.7-0.4 29.1-28.9 74.7 63.4 63.7 106.5 57.1 33.9-5.3 65.6 1.2 84.8 15 36.5 26.3 46.6 79.2 73.9 128.3 20.8 78.9 33.4 112.5 36.1 188.2 0.7 17.7 0.1 18.8-5.8 35.4-25.1 24.6-26.1 47.1-33.3 79.2-4.8 21.6-17.9 51.7-22.6 74.2"/>
		<path fill-rule="evenodd" class="s1" d="m703.2 1043c-27.3-36.6-51-79.5-67.3-110.8-31.4-60.4-46.3-124.9-37.3-198.9l26.9-0.4c66.6-16.9 51.2-4.2 98.7-58.4 2.1 12-4.7 24.1 6.3 36.1-0.1-39.8 16.7-35.4 35.2-68-2.3 19.5-4.6 19.3 2.6 38.3 19-33.2 45.9-35.6 82.7-51.9 71.6-52.4 74.7-72.3 66.9-155.1 13.4 19 26.1 25.2 38.3 21.2-61.5-17.9-50.7-161.8-64.9-215.4-6.3-24-32.2-44.5-76.6-101.8l-39.8-51.3c-13.4-17.4-19.5-33-37.3-45.7-33.3-23.6-76.1-40-118.4-55.5-81.6-29.8-76-30.5-164.1-28.3-91.2-14.5-73.9-12.9-148.3 13.1-21.2 7.4-46.8 11.6-70.4 15.8-20.3 3.6-26.7 19.7-36.1 37.6-10.5 20 16.7 52.3 26.3 71.2-38.7 53.9-64.1 87.9-93.2 140.2-18.9 33.9-13.8 87.4-16.8 91.7-19.8 28.8-55.5 45.6-83.5 66.8-11.1 6.7-22.8 13.8-21.7 29 1 13.8 22.7 27.5 33.4 34.8 5.8 22.8 0.3 31.9-17.2 47.9-5.9 19.4 5.7 26.9 22.3 44-20.4 19.9-19.9 16.2-17.6 45.3l14.2 4c14.3 4.1 3.9 21.7-0.4 29.1-28.9 74.7 63.4 63.7 106.5 57.1 33.9-5.3 65.6 1.2 84.8 15 36.5 26.3 46.6 79.2 73.9 128.3 20.8 78.9 33.4 112.5 36.1 188.2 0.7 17.7 0.1 18.8-5.8 35.4-25.1 24.6-26.1 47.1-33.3 79.2-4.8 21.6-17.9 51.7-22.6 74.2"/>
		<path fill-rule="evenodd" class="s2" d="m632.9 866.4c-27.5-52.3-40.4-108.2-32.6-172.3l23.5-0.3c58.3-14.6 44.8-3.6 86.3-50.6 1.9 10.5-4.1 20.9 5.5 31.3-0.1-34.5 14.6-30.7 30.8-58.9-2 16.9-4.1 16.7 2.2 33.1 16.7-28.7 40.2-30.7 72.4-44.9 62.6-45.4 65.3-62.6 58.5-134.3 11.7 16.5 22.8 21.8 33.4 18.3-53.7-15.5-44.3-140.1-56.7-186.5-5.5-20.8-28.1-38.6-66.9-88.2l-34.8-44.5c-11.8-15-17.1-28.6-32.7-39.5-29-20.4-66.5-34.7-103.5-48.1-71.3-25.8-66.4-26.4-143.4-24.5-79.8-12.6-64.6-11.2-129.6 11.3-18.6 6.5-41 10.1-61.6 13.7-17.8 3.2-23.3 17.1-31.5 32.6-9.2 17.4 14.5 45.4 23 61.7-33.9 46.7-56.1 76.1-81.5 121.4-16.6 29.4-12.1 75.7-14.7 79.5-17.3 24.8-48.5 39.4-73 57.8-9.7 5.8-19.9 11.9-18.9 25.1 0.8 12 19.8 23.8 29.2 30.1 5 19.8 0.2 27.6-15.1 41.5-5.1 16.9 5 23.4 19.5 38.2-17.8 17.2-17.4 14-15.4 39.2l12.4 3.5c12.5 3.5 3.4 18.7-0.3 25.1-25.2 64.7 55.4 55.2 93.1 49.5 29.7-4.5 57.3 1.1 74.1 13 31.9 22.8 40.8 68.6 64.6 111.1 18.2 68.3 29.2 97.5 31.6 163 0.6 15.4 0 16.3-5.1 30.7-21.9 21.3-22.8 40.8-29.1 68.7-4.2 18.6-15.7 44.7-19.7 64.2-17.5 46.7-32.9 83.9-49.7 120.6h526.1c-22.1-105.7-57.9-224.2-111.5-295.6-23.9-31.7-44.6-68.8-58.8-96z"/>
	</g>
	<g id="Clip-Path" clip-path="url(#cp2)">
		<g>
			<g style="opacity: .9">
				<path fill-rule="evenodd" class="s3" d="m714 346.9h54.2c7.1 0 7.9 6 7.9 9.1 0 6.6-8 8.2-8 20.3 0 10.1 8.1 18.4 18.2 18.7 10.1-0.3 18.2-8.6 18.2-18.7 0-12.1-8-13.7-8-20.3 0-3.1 0.8-9.1 7.9-9.1h53.5v53.3m-143.9 90.6c20.9 0 54.2 0 54.2 0 7.1 0 7.9-5.9 7.9-9 0-6.7-8-8.2-8-20.3 0-10.1 8.1-18.4 18.2-18.8 10.1 0.4 18.2 8.7 18.2 18.8 0 12.1-8 13.6-8 20.3 0 3.1 0.8 9 7.9 9h53.5v-92"/>
			</g>
			<g style="opacity: .9">
				<path fill-rule="evenodd" class="s3" d="m356.9 616.2h-39.2c-6.2 0-6.9 5.2-6.9 8 0 5.8 7 7.2 7 17.8 0 9.1-7.4 16.5-16.5 16.5-9.2 0-16.6-7.4-16.6-16.5 0-10.6 7.1-16.4 7.1-17.8 0-0.7-0.8-8-6.9-8h-40.1v-45.8c0-6.2 5.2-6.9 8-6.9 5.8 0 7.2 7 17.8 7 8.9 0 16.1-7.1 16.5-15.9-0.4-8.9-7.6-16-16.5-16-10.6 0-12 7.1-17.8 7.1-2.8 0-8-0.8-8-6.9v-48.8h112.1"/>
			</g>
			<g style="opacity: .9">
				<path class="s4" d="m357.8 489.8h-1v1 59.5c0 3.5-1.5 5.4-3.2 6.4-1.9 1.1-4.2 1.3-5.9 1.3-2.8 0-4.6-1.4-7.1-3.2q-0.6-0.5-1.4-1c-3.1-2.4-7.2-4.7-14.2-4.7-12.2 0-22 9.9-22 22 0 12.1 9.8 22 22 22 7 0 12.4-2.3 16.2-4.6 1.8-1.1 3.2-2.1 4.4-2.9q0.1-0.1 0.2-0.2 0.9-0.7 1.4-1 0.3-0.1 0.4-0.2 0.1 0 0.1 0c0.4 0 2.7 0.2 4.9 1.3 2.2 1.1 4.2 3 4.2 6.4v59.5 1h1 59.6c4.3 0 6.8-1.9 8.2-4.3 1.4-2.3 1.6-5 1.6-6.8 0-3.5-1.8-6-3.7-8.4q-0.5-0.6-0.9-1.2c-2.2-3-4.3-6.6-4.3-13 0-10.8 8.5-19.6 19.3-20 10.7 0.4 19.2 9.2 19.2 20 0 6.4-2.1 10-4.2 13q-0.5 0.6-1 1.2c-1.9 2.4-3.7 4.9-3.7 8.4 0 1.8 0.2 4.5 1.6 6.8 1.4 2.4 3.9 4.3 8.2 4.3h59.6 1v-1-59.5c0-3.4 2-5.3 4.2-6.4 2.2-1.1 4.5-1.3 4.9-1.3q0 0 0.1 0 0.1 0.1 0.4 0.2 0.5 0.3 1.4 1 0.1 0.1 0.3 0.2c1.1 0.8 2.5 1.8 4.3 2.9 3.8 2.3 9.2 4.6 16.2 4.6 12.2 0 22.1-9.9 22.1-22 0-12.1-9.9-22-22.1-22-7 0-11 2.3-14.2 4.7q-0.7 0.5-1.4 1c-2.4 1.8-4.3 3.2-7.1 3.2-1.6 0-4-0.2-5.8-1.3-1.8-1-3.3-2.9-3.3-6.4v-59.5-1h-1-59.6c-4.3 0-6.8 1.9-8.2 4.3-1.4 2.3-1.6 5-1.6 6.8 0 3.5 1.8 6 3.7 8.4q0.5 0.6 1 1.2c2.1 3 4.2 6.6 4.2 13 0 10.8-8.5 19.6-19.2 20-10.8-0.4-19.3-9.2-19.3-20 0-6.4 2.1-10 4.3-13q0.4-0.6 0.9-1.2c1.9-2.4 3.7-4.9 3.7-8.4 0-1.8-0.2-4.5-1.6-6.8-1.4-2.4-3.9-4.3-8.2-4.3z"/>
			</g>
			<g style="opacity: .9">
				<path fill-rule="evenodd" class="s3" d="m714.3 491.8v41.2c0 5.4-4.6 6.1-7 6.1-5.1 0-6.4-6.2-15.7-6.2-8.1 0-14.6 6.5-14.6 14.5 0 8.1 6.5 14.6 14.6 14.6 9.3 0 14.4-6.2 15.7-6.2 0.6 0 7 0.6 7 6.1v41.1h41.3c5.4 0 6.1-4.6 6.1-7 0-5.1-6.2-6.3-6.2-15.6 0-7.9 6.2-14.3 14-14.5 7.8 0.2 14.1 6.6 14.1 14.5 0 9.3-6.2 10.5-6.2 15.6 0 2.4 0.6 7 6 7h41.3v-41.1c0-5.5 6.4-6.1 7-6.1 1.3 0 6.4 6.2 15.7 6.2 8.1 0 14.6-6.5 14.6-14.6 0-8-6.5-14.5-14.6-14.5-9.3 0-10.5 6.2-15.7 6.2-2.4 0-7-0.7-7-6.1v-41.2"/>
			</g>
			<g style="opacity: .9">
				<path fill-rule="evenodd" class="s3" d="m244 595.4h-39c-5.1 0-5.7-4.4-5.7-6.7 0-4.8 5.8-6 5.8-14.8 0-7.4-5.9-13.5-13.3-13.8-7.3 0.3-13.2 6.4-13.2 13.8 0 8.8 5.8 10 5.8 14.8 0 2.3-0.6 6.7-5.7 6.7h-39.1v-39c0-5.2-6-5.8-6.6-5.8-1.2 0-6 5.9-14.8 5.9-7.6 0-13.8-6.2-13.8-13.8 0-7.6 6.2-13.8 13.8-13.8 8.8 0 10 5.9 14.8 5.9 2.3 0 6.6-0.7 6.6-5.8v-39h39.1c5.1 0 5.7 4.4 5.7 6.6 0 4.9-5.8 6-5.8 14.9 0 7.4 5.9 13.4 13.2 13.7 7.4-0.2 13.3-6.3 13.3-13.7 0-8.9-5.8-10-5.8-14.9 0-2.2 0.6-6.6 5.7-6.6h39"/>
			</g>
			<g style="opacity: .9">
				<path fill-rule="evenodd" class="s3" d="m243 322.3h-70.6v48.5c0 6.4 5.4 7.2 8.2 7.2 6.1 0 7.5-7.3 18.5-7.3 9.2 0 16.8 7.3 17.1 16.5-0.3 9.2-7.9 16.5-17.1 16.5-11 0-12.4-7.3-18.5-7.3-2.8 0-8.2 0.8-8.2 7.2v86.4h8.6"/>
			</g>
			<g style="opacity: .9">
				<path fill-rule="evenodd" class="s3" d="m518.7 633.7h80.4c6.5 0 7.3 7.6 7.3 8.3 0 1.6-7.4 7.6-7.4 18.7 0 9.6 7.8 17.4 17.4 17.4 9.6 0 17.3-7.8 17.3-17.4 0-11.1-7.3-12.6-7.3-18.7 0-2.8 0.7-8.3 7.2-8.3h80.4v-32.4"/>
			</g>
			<g style="opacity: .9">
				<path fill-rule="evenodd" class="s3" d="m302.4 321.3v62.3c0 8.3-9.8 9.3-10.7 9.3-2 0-9.7-9.4-24-9.4-12.3 0-22.3 9.9-22.3 22 0 12.2 10 22.1 22.3 22.1 14.3 0 16.1-9.4 24-9.4 3.7 0 10.7 1 10.7 9.2v62.4h77.6"/>
			</g>
			<g style="opacity: .9">
				<path fill-rule="evenodd" class="s3" d="m394.3 652.4v32.1c0 4.2-3.6 4.7-5.5 4.7-4 0-4.9-4.8-12.2-4.8-6.2 0-11.3 5-11.3 11.3 0 6.3 5.1 11.3 11.3 11.3 7.3 0 11.2-4.8 12.2-4.8 0.5 0 5.5 0.5 5.5 4.7v32.1h32.1c4.2 0 4.7-3.6 4.7-5.5 0-3.9-4.8-4.9-4.8-12.1 0-6.2 4.8-11.1 10.9-11.3 6 0.2 10.9 5.1 10.9 11.3 0 7.2-4.8 8.2-4.8 12.1 0 1.9 0.5 5.5 4.7 5.5h32.1v-32.1c0-4.2 5-4.7 5.4-4.7 1 0 5 4.8 12.2 4.8 6.3 0 11.4-5 11.4-11.3 0-6.3-5.1-11.3-11.4-11.3-7.2 0-8.2 4.8-12.2 4.8-1.8 0-5.4-0.5-5.4-4.7v-32.1"/>
			</g>
			<g style="opacity: .9">
				<path fill-rule="evenodd" class="s3" d="m714 322.3v72.3c0 9.5-8.1 10.7-12.3 10.7-9 0-11.1-10.9-27.5-10.9-13.8 0-25 11-25.5 24.6 0.5 13.7 11.7 24.6 25.5 24.6 16.4 0 18.5-10.8 27.5-10.8 4.2 0 12.3 1.1 12.3 10.6v72.4h-72.3c-9.5 0-10.6 8-10.6 12.3 0 8.9 10.8 11.1 10.8 27.5 0 14.1-11.4 25.5-25.5 25.5-14.1 0-25.6-11.4-25.6-25.5 0-16.4 10.9-25.3 10.9-27.5 0-1.1-1.2-12.3-10.7-12.3h-72.3v-72.4c0-9.5 8.1-10.6 12.4-10.6 8.9 0 11 10.8 27.4 10.8 13.8 0 25-10.9 25.5-24.6-0.5-13.6-11.7-24.6-25.5-24.6-16.4 0-18.5 10.9-27.4 10.9-4.3 0-12.4-1.2-12.4-10.7v-72.3"/>
			</g>
			<g style="opacity: .9">
				<path fill-rule="evenodd" class="s3" d="m504 97.2h80.3c11 0 12.3 9.3 12.3 14.2 0 10.3-12.5 12.8-12.5 31.7 0 15.9 12.6 28.8 28.4 29.3 15.7-0.5 28.4-13.4 28.4-29.3 0-18.9-12.6-21.4-12.6-31.7 0-4.9 1.4-14.2 12.3-14.2h73.4v83.3m-210 141.8c32.5 0 80.3 0 80.3 0 11 0 12.3-9.3 12.3-14.2 0-10.3-12.5-12.8-12.5-31.7 0-15.9 12.6-28.8 28.4-29.3 15.7 0.5 28.4 13.4 28.4 29.3 0 18.9-12.6 21.4-12.6 31.7 0 4.9 1.4 14.2 12.3 14.2h73.4v-143.9"/>
			</g>
			<g style="opacity: .9">
				<path class="s4" d="m503.3 46.4v-1h-1-258.3-1v1 108.4c0 6.9 3 10.9 6.8 13.1 3.7 2.1 8.2 2.5 11.2 2.5 5.6 0 9.4-2.9 13.5-6q1-0.8 2.1-1.6c5-3.7 11.1-7.3 22.1-7.3 18.4 0 33.3 14.6 34 32.8-0.7 18.3-15.6 32.8-34 32.8-11 0-17.1-3.6-22.1-7.2q-1.1-0.8-2.1-1.6c-4.1-3.1-7.9-6.1-13.5-6.1-3 0-7.4 0.4-11.2 2.6-3.8 2.2-6.8 6.2-6.8 13.1v99.3 1h1 89.4c6 0 9.4 3.6 11.3 7.4 1.9 3.9 2.3 7.9 2.3 8.5q0 0 0 0.1 0 0.1-0.1 0.2-0.1 0.3-0.4 0.8-0.6 0.9-1.6 2.4-0.2 0.2-0.4 0.5c-1.3 1.8-3.1 4.2-4.8 7.1-3.8 6.4-7.6 15.2-7.6 26.7 0 19.9 16.1 36.1 36.1 36.1 19.9 0 36-16.2 36-36.1 0-11.5-3.8-18.1-7.6-23.3q-0.9-1.2-1.7-2.3c-3.1-4-5.6-7.3-5.6-12.2 0-2.8 0.4-6.8 2.3-10.1 1.9-3.2 5.2-5.8 11.4-5.8h99.3 1v-1-99.3c0-6.9-3-10.9-6.8-13.1-3.7-2.2-8.2-2.6-11.1-2.6-5.6 0-9.5 3-13.5 6.1q-1.1 0.8-2.2 1.6c-4.9 3.6-11.1 7.2-22.1 7.2-18.3 0-33.3-14.5-34-32.8 0.7-18.2 15.7-32.8 34-32.8 11 0 17.2 3.6 22.1 7.3q1.1 0.8 2.2 1.6c4 3.1 7.9 6 13.5 6 2.9 0 7.4-0.3 11.1-2.5 3.8-2.2 6.8-6.2 6.8-13.1z"/>
			</g>
			<path id="Risk" class="s5" aria-label="Risk"  d="m350.1 104.2h2.7q2 0 2.9-0.7 0.9-0.8 0.9-2.5 0-1.7-0.9-2.4-0.9-0.8-2.9-0.8h-2.7zm1.8 4.5h-1.8v9.3h-6.4v-24.7h9.8q4.9 0 7.2 1.6 2.2 1.6 2.2 5.2 0 2.5-1.2 4-1.1 1.6-3.5 2.4 1.3 0.3 2.3 1.3 1.1 1.1 2.1 3.2l3.5 7h-6.8l-3-6.1q-0.9-1.9-1.9-2.6-0.9-0.6-2.5-0.6zm17.7 9.3v-18.6h6v18.6zm0-20.9v-4.9h5.9v4.9zm26.2 2.9v4.5q-1.9-0.8-3.7-1.2-1.8-0.3-3.3-0.3-1.7 0-2.6 0.4-0.8 0.4-0.8 1.3 0 0.7 0.6 1.1 0.7 0.4 2.3 0.5l1 0.2q4.6 0.6 6.2 1.9 1.5 1.3 1.5 4.2 0 2.9-2.1 4.4-2.2 1.5-6.6 1.5-1.8 0-3.8-0.3-2-0.3-4-0.8v-4.6q1.7 0.9 3.6 1.3 1.9 0.5 3.8 0.5 1.7 0 2.6-0.5 0.9-0.5 0.9-1.4 0-0.8-0.6-1.2-0.6-0.4-2.4-0.6l-1.1-0.2q-3.9-0.5-5.5-1.8-1.6-1.4-1.6-4.1 0-2.9 2-4.4 2-1.4 6.2-1.4 1.7 0 3.5 0.2 1.8 0.3 3.9 0.8zm5.7 18v-25.8h6v14.1l6.8-6.9h6.9l-9.1 8.6 9.8 10h-7.2l-7.2-7.7v7.7z"/>
			<path id="(d = 12.0)" class="s5" aria-label="(d = 12.0)"  d="m317.9 128.5h2.1q-1.8 3-2.6 6-0.9 3-0.9 6 0 3.1 0.9 6.1 0.8 2.9 2.6 6h-2.1q-2-3.1-3-6.1-1-3-1-6 0-2.9 1-5.9 1-3 3-6.1zm15.1 20.5l0.4-2.2q-1 1.3-2.3 1.9-1.3 0.7-2.9 0.7-2.3 0-3.5-1.5-1.3-1.5-1.3-4.2 0-2.1 0.8-4.1 0.7-2 2.2-3.6 1-1 2.2-1.6 1.2-0.5 2.6-0.5 1.4 0 2.5 0.7 1.1 0.6 1.7 1.9l1.6-8h2.4l-4 20.5zm-7.1-5.7q0 1.9 0.9 3 0.9 1.1 2.4 1.1 1.1 0 2.1-0.6 1-0.5 1.7-1.6 0.8-1.1 1.2-2.6 0.5-1.4 0.5-2.8 0-1.9-0.9-2.9-0.9-1-2.4-1-1.1 0-2.1 0.5-1 0.6-1.7 1.6-0.8 1.1-1.2 2.5-0.5 1.5-0.5 2.8zm24.9-4.3v-2.3h16.9v2.3zm0 5.4v-2.3h16.9v2.3zm31.7 4.6v-2.2h4.3v-15.1l-4.7 1v-2.4l4.7-1h2.6v17.5h4.4v2.2zm19-2.2h9.3v2.2h-12.5v-2.2q1.5-1.6 4.1-4.2 2.6-2.7 3.3-3.5 1.3-1.4 1.8-2.4 0.5-1 0.5-2 0-1.5-1.1-2.5-1.1-1-2.9-1-1.2 0-2.6 0.4-1.4 0.5-3 1.4v-2.7q1.6-0.7 3-1 1.4-0.3 2.6-0.3 3.1 0 4.9 1.5 1.8 1.5 1.8 4.1 0 1.2-0.5 2.3-0.4 1.1-1.6 2.5-0.3 0.4-2.1 2.3-1.8 1.8-5 5.1zm14.9 2.2v-3.3h2.8v3.3zm14.2-17.9q-2 0-3.1 2-1 2-1 6.1 0 4 1 6.1 1.1 2 3.1 2 2.1 0 3.1-2 1.1-2.1 1.1-6.1 0-4.1-1.1-6.1-1-2-3.1-2zm0-2.1q3.4 0 5.1 2.6 1.7 2.6 1.7 7.6 0 4.9-1.7 7.6-1.7 2.6-5.1 2.6-3.3 0-5-2.6-1.8-2.7-1.8-7.6 0-5 1.8-7.6 1.7-2.6 5-2.6zm10.8-0.5h2.1q2 3.1 3 6.1 1 3 1 5.9 0 3-1 6-1 3-3 6.1h-2.1q1.8-3.1 2.6-6 0.9-3 0.9-6.1 0-3-0.9-6-0.8-3-2.6-6z"/>
			<path id="Anger" class="s5" aria-label="Anger"  d="m579.7 203l-1.4-4.3h-9.5l-1.4 4.3h-6.1l8.7-23.3h7.1l8.7 23.3zm-6.2-17.9l-3.2 9.3h6.4zm32.6 7.2v10.7h-5.6v-1.8-6.4q0-2.2-0.1-3.1-0.1-0.9-0.3-1.3-0.4-0.5-0.9-0.8-0.6-0.3-1.3-0.3-1.8 0-2.8 1.3-1 1.4-1 3.8v8.6h-5.6v-17.5h5.6v2.5q1.3-1.5 2.7-2.2 1.4-0.7 3.2-0.7 3 0 4.6 1.8 1.5 1.9 1.5 5.4zm17.1 8.9v-1.2q-1.1 1.5-2.5 2.3-1.4 0.7-3.2 0.7-3.2 0-5.3-2.5-2.1-2.6-2.1-6.5 0-3.9 2.1-6.4 2.1-2.5 5.3-2.5 1.8 0 3.2 0.7 1.4 0.7 2.5 2.3v-2.6h5.7v15.7q0 4.2-2.7 6.5-2.7 2.2-7.7 2.2-1.7 0-3.2-0.3-1.5-0.2-3.1-0.7v-4.4q1.5 0.9 2.9 1.3 1.4 0.4 2.8 0.4 2.8 0 4.1-1.2 1.2-1.2 1.2-3.8zm-3.7-12.1q-1.7 0-2.7 1.3-0.9 1.3-0.9 3.6 0 2.4 0.9 3.7 0.9 1.2 2.7 1.2 1.8 0 2.8-1.3 0.9-1.2 0.9-3.6 0-2.3-0.9-3.6-1-1.3-2.8-1.3zm32.2 5.1v1.6h-13.1q0.2 1.9 1.4 2.9 1.3 1 3.5 1 1.7 0 3.6-0.5 1.8-0.5 3.8-1.6v4.3q-2 0.8-4 1.2-2 0.3-4 0.3-4.7 0-7.4-2.4-2.6-2.4-2.6-6.8 0-4.2 2.6-6.7 2.6-2.4 7.1-2.4 4.1 0 6.6 2.4 2.5 2.5 2.5 6.7zm-13-1.9h7.3q0-1.6-1-2.5-0.9-1-2.4-1-1.6 0-2.6 0.9-1.1 0.9-1.3 2.6zm30.2-7.1v5q-0.7-0.3-1.4-0.5-0.8-0.1-1.5-0.1-2.1 0-3.3 1.4-1.2 1.3-1.2 3.9v8.1h-5.6v-17.5h5.6v2.9q1.1-1.8 2.5-2.5 1.4-0.8 3.4-0.8 0.2 0 0.6 0 0.3 0 0.9 0.1z"/>
			<path id="Guilt" class="s5" aria-label="Guilt"  d="m594.4 362.9v10.5q-2.1 1-4.4 1.5-2.2 0.5-4.7 0.5-5.4 0-8.6-3-3.2-3.1-3.2-8.3 0-5.3 3.2-8.3 3.3-3.1 9-3.1 2.1 0 4.1 0.4 2 0.5 3.8 1.3v4.5q-1.8-1.1-3.6-1.6-1.8-0.5-3.7-0.5-3.3 0-5.2 1.9-1.8 1.9-1.8 5.4 0 3.5 1.8 5.3 1.7 1.9 5 1.9 0.9 0 1.6-0.1 0.8-0.1 1.4-0.3v-4.3h-3.5v-3.7zm4.6 5.7v-10h5.3v1.6q0 1.4-0.1 3.4 0 2 0 2.7 0 1.9 0.1 2.8 0.1 0.9 0.4 1.3 0.3 0.5 0.8 0.8 0.5 0.3 1.2 0.3 1.7 0 2.6-1.3 0.9-1.3 0.9-3.5v-8.1h5.3v16.4h-5.3v-2.4q-1.2 1.5-2.5 2.2-1.3 0.6-2.9 0.6-2.8 0-4.3-1.7-1.5-1.8-1.5-5.1zm21.5 6.4v-16.4h5.3v16.4zm0-18.5v-4.3h5.2v4.3zm10.3 18.5v-22.8h5.2v22.8zm10.8-21.1h5.2v4.7h5.4v3.7h-5.4v7q0 1.1 0.5 1.6 0.4 0.4 1.8 0.4h2.7v3.7h-4.5q-3.1 0-4.4-1.3-1.3-1.3-1.3-4.4v-7h-2.6v-3.7h2.6z"/>
			<path id="(d = 10.0)" class="s5" aria-label="(d = 10.0)"  d="m558.1 465h2q-1.7 2.8-2.5 5.6-0.8 2.7-0.8 5.6 0 2.8 0.8 5.5 0.8 2.8 2.5 5.6h-2q-1.8-2.9-2.7-5.6-1-2.8-1-5.5 0-2.8 1-5.5 0.9-2.8 2.7-5.7zm15.3 7.4v-7.4h2.3v19h-2.3v-2.1q-0.7 1.3-1.8 1.9-1.1 0.6-2.6 0.6-2.5 0-4-2-1.6-2-1.6-5.2 0-3.2 1.6-5.2 1.5-2 4-2 1.5 0 2.6 0.6 1.1 0.6 1.8 1.8zm-7.6 4.8q0 2.5 1 3.9 1 1.4 2.8 1.4 1.8 0 2.8-1.4 1-1.4 1-3.9 0-2.5-1-3.9-1-1.4-2.8-1.4-1.8 0-2.8 1.4-1 1.4-1 3.9zm22.7-2.5v-2.1h15.7v2.1zm0 5v-2.1h15.6v2.1zm29.4 4.3v-2.1h4v-13.9l-4.4 0.9v-2.2l4.4-0.9h2.4v16.1h4.1v2.1zm20.7-16.6q-1.9 0-2.9 1.9-0.9 1.8-0.9 5.6 0 3.8 0.9 5.6 1 1.9 2.9 1.9 1.9 0 2.9-1.9 0.9-1.8 0.9-5.6 0-3.8-0.9-5.6-1-1.9-2.9-1.9zm0-2q3.1 0 4.7 2.5 1.6 2.4 1.6 7 0 4.6-1.6 7-1.6 2.5-4.7 2.5-3.1 0-4.7-2.5-1.6-2.4-1.6-7 0-4.6 1.6-7 1.6-2.5 4.7-2.5zm10.6 18.6v-3.1h2.6v3.1zm13.2-16.6q-1.9 0-2.8 1.9-1 1.8-1 5.6 0 3.8 1 5.6 0.9 1.9 2.8 1.9 2 0 2.9-1.9 1-1.8 1-5.6 0-3.8-1-5.6-0.9-1.9-2.9-1.9zm0-2q3.1 0 4.7 2.5 1.6 2.4 1.6 7 0 4.6-1.6 7-1.6 2.5-4.7 2.5-3 0-4.6-2.5-1.7-2.4-1.7-7 0-4.6 1.7-7 1.6-2.5 4.6-2.5zm10-0.4h2q1.8 2.9 2.7 5.7 0.9 2.7 0.9 5.5 0 2.7-0.9 5.5-0.9 2.7-2.7 5.6h-2q1.6-2.8 2.4-5.6 0.8-2.7 0.8-5.5 0-2.9-0.8-5.6-0.8-2.8-2.4-5.6z"/>
			<path id="(d = 11.0)" class="s5" aria-label="(d = 11.0)"  d="m552.7 215.3h2.1q-1.7 2.9-2.6 5.7-0.8 2.9-0.8 5.8 0 3 0.8 5.9 0.9 2.8 2.6 5.7h-2.1q-1.9-3-2.8-5.8-1-2.9-1-5.8 0-2.8 1-5.7 0.9-2.8 2.8-5.8zm15.9 7.6v-7.7h2.4v19.8h-2.4v-2.1q-0.7 1.2-1.8 1.9-1.1 0.6-2.7 0.6-2.6 0-4.2-2.1-1.6-2-1.6-5.4 0-3.3 1.6-5.4 1.6-2.1 4.2-2.1 1.6 0 2.7 0.7 1.1 0.6 1.8 1.8zm-7.9 5q0 2.6 1 4.1 1.1 1.4 3 1.4 1.8 0 2.9-1.4 1-1.5 1-4.1 0-2.6-1-4-1.1-1.5-2.9-1.5-1.9 0-3 1.5-1 1.4-1 4zm23.7-2.6v-2.1h16.2v2.1zm0 5.2v-2.1h16.3v2.1zm30.5 4.5v-2.2h4.2v-14.4l-4.5 0.9v-2.3l4.5-1h2.6v16.8h4.2v2.2zm16.5 0v-2.2h4.2v-14.4l-4.6 0.9v-2.3l4.6-1h2.5v16.8h4.2v2.2zm16.1 0v-3.2h2.7v3.2zm13.7-17.3q-1.9 0-2.9 2-1 1.9-1 5.8 0 3.9 1 5.9 1 1.9 2.9 1.9 2 0 3-1.9 1-2 1-5.9 0-3.9-1-5.8-1-2-3-2zm0-2q3.2 0 4.9 2.5 1.7 2.5 1.7 7.3 0 4.8-1.7 7.4-1.7 2.5-4.9 2.5-3.1 0-4.8-2.5-1.7-2.6-1.7-7.4 0-4.8 1.7-7.3 1.7-2.5 4.8-2.5zm10.4-0.4h2q1.9 3 2.9 5.8 0.9 2.9 0.9 5.7 0 2.9-0.9 5.8-1 2.8-2.9 5.8h-2q1.7-2.9 2.5-5.7 0.9-2.9 0.9-5.9 0-2.9-0.9-5.8-0.8-2.8-2.5-5.7z"/>
			<path id="Family" class="s5" aria-label="Family"  d="m365.3 443v-20.4h14.2v4h-9v3.8h8.4v3.9h-8.4v8.7zm26.7-6.9h-2.5q-1.6 0-2.3 0.5-0.8 0.5-0.8 1.6 0 0.9 0.6 1.4 0.6 0.5 1.7 0.5 1.4 0 2.4-0.9 0.9-1 0.9-2.5zm4.9-1.9v8.8h-4.9v-2.3q-1 1.4-2.2 2-1.2 0.7-3 0.7-2.4 0-3.9-1.4-1.4-1.4-1.4-3.6 0-2.7 1.8-4 1.9-1.2 5.8-1.2h2.9v-0.4q0-1.2-0.9-1.7-0.9-0.6-2.9-0.6-1.5 0-2.9 0.3-1.3 0.4-2.5 1v-3.7q1.6-0.4 3.2-0.6 1.5-0.2 3.1-0.2 4.2 0 6 1.6 1.8 1.6 1.8 5.3zm18.8-4q0.9-1.4 2.2-2.2 1.3-0.7 2.8-0.7 2.6 0 4 1.6 1.4 1.6 1.4 4.7v9.4h-4.9v-8q0-0.2 0-0.4 0-0.2 0-0.5 0-1.7-0.5-2.4-0.4-0.7-1.5-0.7-1.4 0-2.2 1.1-0.7 1.2-0.8 3.3v7.6h-4.9v-8q0-2.6-0.4-3.3-0.4-0.7-1.6-0.7-1.4 0-2.1 1.1-0.8 1.2-0.8 3.3v7.6h-4.9v-15.4h4.9v2.3q0.9-1.3 2.1-2 1.1-0.6 2.5-0.6 1.6 0 2.8 0.7 1.3 0.8 1.9 2.2zm15 12.8v-15.4h4.9v15.4zm0-17.3v-4h4.9v4zm9.6 17.3v-21.3h4.9v21.3zm14.4 0.5l-6.9-15.9h4.9l4.2 10.4 3.5-10.4h4.8l-6.4 16.8q-1 2.6-2.3 3.6-1.2 1-3.4 1h-2.8v-3.2h1.5q1.3 0 1.8-0.4 0.6-0.4 0.9-1.4z"/>
			<path id="(d = 9.0)" class="s5" aria-label="(d = 9.0)"  d="m365.6 453.8h1.8q-1.5 2.7-2.3 5.3-0.8 2.7-0.8 5.4 0 2.7 0.8 5.3 0.8 2.7 2.3 5.4h-1.8q-1.8-2.8-2.7-5.5-0.8-2.6-0.8-5.2 0-2.6 0.8-5.3 0.9-2.6 2.7-5.4zm14.7 7.1v-7.1h2.1v18.2h-2.1v-2q-0.7 1.2-1.8 1.8-1 0.5-2.4 0.5-2.4 0-3.9-1.9-1.5-1.9-1.5-5 0-3 1.5-4.9 1.5-1.9 3.9-1.9 1.4 0 2.4 0.5 1.1 0.6 1.8 1.8zm-7.4 4.5q0 2.4 1 3.8 1 1.3 2.7 1.3 1.7 0 2.7-1.3 1-1.4 1-3.8 0-2.3-1-3.7-1-1.3-2.7-1.3-1.7 0-2.7 1.3-1 1.4-1 3.7zm21.9-2.3v-2h15v2zm0 4.8v-2h15v2zm27.8 3.7v-2.1q0.9 0.4 1.9 0.6 0.9 0.2 1.7 0.2 2.4 0 3.6-1.5 1.3-1.6 1.4-4.8-0.6 1-1.7 1.5-1 0.6-2.3 0.6-2.6 0-4.2-1.6-1.5-1.6-1.5-4.4 0-2.7 1.6-4.3 1.6-1.6 4.3-1.6 3 0 4.6 2.3 1.6 2.3 1.6 6.8 0 4.1-2 6.6-1.9 2.4-5.2 2.4-0.9 0-1.9-0.1-0.9-0.2-1.9-0.6zm4.8-7.4q1.6 0 2.5-1.1 0.9-1.1 0.9-3 0-1.8-0.9-2.9-0.9-1.1-2.5-1.1-1.6 0-2.6 1.1-0.9 1.1-0.9 2.9 0 1.9 0.9 3 1 1.1 2.6 1.1zm10.4 7.8v-3h2.5v3zm12.7-15.9q-1.8 0-2.7 1.8-1 1.8-1 5.4 0 3.6 1 5.4 0.9 1.8 2.7 1.8 1.9 0 2.8-1.8 0.9-1.8 0.9-5.4 0-3.6-0.9-5.4-0.9-1.8-2.8-1.8zm0-1.9q3 0 4.5 2.3 1.6 2.3 1.6 6.8 0 4.4-1.6 6.7-1.5 2.3-4.5 2.3-2.9 0-4.5-2.3-1.5-2.3-1.5-6.7 0-4.5 1.5-6.8 1.6-2.3 4.5-2.3zm9.6-0.4h1.8q1.8 2.8 2.7 5.4 0.9 2.7 0.9 5.3 0 2.6-0.9 5.2-0.9 2.7-2.7 5.5h-1.8q1.5-2.7 2.3-5.4 0.8-2.6 0.8-5.3 0-2.7-0.8-5.4-0.8-2.6-2.3-5.3z"/>
			<path id="(d = 8.0)" class="s5" aria-label="(d = 8.0)"  d="m393.3 578.5h1.8q-1.5 2.6-2.2 5.2-0.7 2.5-0.7 5.1 0 2.6 0.7 5.1 0.7 2.6 2.2 5.1h-1.8q-1.7-2.6-2.5-5.2-0.8-2.5-0.8-5 0-2.5 0.8-5.1 0.8-2.5 2.5-5.2zm14.1 6.8v-6.8h2.1v17.5h-2.1v-1.9q-0.6 1.1-1.6 1.7-1 0.5-2.4 0.5-2.3 0-3.7-1.8-1.5-1.8-1.5-4.8 0-2.9 1.5-4.8 1.4-1.8 3.7-1.8 1.4 0 2.4 0.6 1 0.5 1.6 1.6zm-7 4.4q0 2.3 0.9 3.6 1 1.3 2.6 1.3 1.6 0 2.6-1.3 0.9-1.3 0.9-3.6 0-2.3-0.9-3.5-1-1.4-2.6-1.4-1.6 0-2.6 1.4-0.9 1.2-0.9 3.5zm20.9-2.3v-1.8h14.4v1.8zm0 4.6v-1.9h14.4v1.9zm31.5-4q-1.6 0-2.6 0.9-0.9 0.9-0.9 2.4 0 1.5 0.9 2.4 1 0.8 2.6 0.8 1.6 0 2.5-0.8 1-0.9 1-2.4 0-1.5-1-2.4-0.9-0.9-2.5-0.9zm-2.3-0.9q-1.5-0.4-2.3-1.4-0.8-1-0.8-2.4 0-2 1.4-3.2 1.5-1.2 4-1.2 2.5 0 3.9 1.2 1.4 1.2 1.4 3.2 0 1.4-0.8 2.4-0.8 1-2.2 1.4 1.6 0.4 2.5 1.5 0.9 1.1 0.9 2.7 0 2.4-1.5 3.7-1.5 1.3-4.2 1.3-2.8 0-4.3-1.3-1.5-1.3-1.5-3.7 0-1.6 0.9-2.7 1-1.1 2.6-1.5zm-0.8-3.6q0 1.3 0.8 2 0.8 0.8 2.3 0.8 1.4 0 2.3-0.8 0.8-0.7 0.8-2 0-1.3-0.8-2-0.9-0.8-2.3-0.8-1.5 0-2.3 0.8-0.8 0.7-0.8 2zm12.9 12.5v-2.9h2.3v2.9zm12.2-15.3q-1.8 0-2.7 1.8-0.8 1.7-0.8 5.1 0 3.5 0.8 5.2 0.9 1.7 2.7 1.7 1.7 0 2.6-1.7 0.9-1.7 0.9-5.2 0-3.4-0.9-5.1-0.9-1.8-2.6-1.8zm0-1.8q2.8 0 4.3 2.3 1.5 2.2 1.5 6.4 0 4.3-1.5 6.5-1.5 2.2-4.3 2.2-2.8 0-4.3-2.2-1.5-2.2-1.5-6.5 0-4.2 1.5-6.4 1.5-2.3 4.3-2.3zm9.2-0.4h1.7q1.7 2.7 2.6 5.2 0.8 2.6 0.8 5.1 0 2.5-0.8 5-0.9 2.6-2.6 5.2h-1.7q1.4-2.5 2.2-5.1 0.7-2.5 0.7-5.1 0-2.6-0.7-5.1-0.8-2.6-2.2-5.2z"/>
			<path id="(d = 7.0)" class="s5" aria-label="(d = 7.0)"  d="m190.1 448.3h1.7q-1.4 2.5-2.1 4.9-0.7 2.4-0.7 4.9 0 2.5 0.7 4.9 0.7 2.4 2.1 4.9h-1.7q-1.6-2.5-2.4-5-0.8-2.4-0.8-4.8 0-2.4 0.8-4.8 0.8-2.5 2.4-5zm13.5 6.5v-6.5h1.9v16.7h-1.9v-1.8q-0.6 1.1-1.6 1.6-1 0.5-2.3 0.5-2.2 0-3.5-1.7-1.4-1.8-1.4-4.6 0-2.8 1.4-4.6 1.3-1.7 3.5-1.7 1.3 0 2.3 0.5 1 0.5 1.6 1.6zm-6.8 4.2q0 2.2 0.9 3.4 0.9 1.3 2.5 1.3 1.6 0 2.5-1.3 0.9-1.2 0.9-3.4 0-2.2-0.9-3.4-0.9-1.3-2.5-1.3-1.6 0-2.5 1.3-0.9 1.2-0.9 3.4zm20.1-2.2v-1.8h13.7v1.8zm0 4.4v-1.8h13.8v1.8zm24.9-10.4v-1.8h10.3v0.9l-5.8 15.1h-2.3l5.5-14.2zm14.6 14.2v-2.7h2.2v2.7zm11.7-14.6q-1.7 0-2.6 1.6-0.8 1.7-0.8 5 0 3.3 0.8 4.9 0.9 1.7 2.6 1.7 1.6 0 2.5-1.7 0.8-1.6 0.8-4.9 0-3.3-0.8-5-0.9-1.6-2.5-1.6zm0-1.7q2.7 0 4.1 2.1 1.4 2.1 1.4 6.2 0 4-1.4 6.2-1.4 2.1-4.1 2.1-2.7 0-4.2-2.1-1.4-2.2-1.4-6.2 0-4.1 1.4-6.2 1.5-2.1 4.2-2.1zm8.7-0.4h1.7q1.7 2.5 2.5 5 0.8 2.4 0.8 4.8 0 2.4-0.8 4.8-0.8 2.5-2.5 5h-1.7q1.5-2.5 2.2-4.9 0.7-2.4 0.7-4.9 0-2.5-0.7-4.9-0.7-2.4-2.2-4.9z"/>
			<path id="Fear" class="s5" aria-label="Fear"  d="m213.2 357v-17.5h12.2v3.4h-7.7v3.3h7.2v3.4h-7.2v7.4zm28.4-6.6v1.2h-9.9q0.2 1.5 1.1 2.2 0.9 0.8 2.6 0.8 1.3 0 2.7-0.4 1.4-0.4 2.8-1.2v3.2q-1.5 0.6-2.9 0.9-1.5 0.2-3 0.2-3.6 0-5.6-1.8-1.9-1.8-1.9-5.1 0-3.2 1.9-5 1.9-1.8 5.3-1.8 3.1 0 5 1.8 1.9 1.9 1.9 5zm-9.8-1.4h5.4q0-1.2-0.7-1.9-0.7-0.8-1.8-0.8-1.2 0-2 0.7-0.7 0.7-0.9 2zm21 2.1h-2.2q-1.3 0-2 0.4-0.6 0.5-0.6 1.4 0 0.7 0.5 1.2 0.5 0.5 1.5 0.5 1.2 0 2-0.9 0.8-0.8 0.8-2.1zm4.2-1.6v7.5h-4.2v-2q-0.9 1.2-1.9 1.8-1.1 0.5-2.6 0.5-2 0-3.3-1.2-1.3-1.2-1.3-3.1 0-2.3 1.6-3.3 1.6-1.1 5-1.1h2.5v-0.4q0-0.9-0.8-1.4-0.8-0.5-2.4-0.5-1.4 0-2.6 0.3-1.1 0.3-2.1 0.8v-3.2q1.3-0.3 2.7-0.5 1.4-0.2 2.7-0.2 3.6 0 5.1 1.4 1.6 1.4 1.6 4.6zm13.7-5.9v3.8q-0.6-0.2-1.1-0.3-0.6-0.2-1.1-0.2-1.6 0-2.5 1.1-0.9 1-0.9 2.9v6.1h-4.2v-13.1h4.2v2.1q0.8-1.3 1.9-1.9 1-0.6 2.5-0.6 0.2 0 0.4 0.1 0.3 0 0.8 0z"/>
			<path id="Rage" class="s5" aria-label="Rage"  d="m760.4 407.7h1.9q1.3 0 1.9-0.5 0.6-0.5 0.6-1.7 0-1.1-0.6-1.6-0.6-0.5-1.9-0.5h-1.9zm1.3 3h-1.3v6.3h-4.3v-16.8h6.6q3.3 0 4.9 1.1 1.5 1.2 1.5 3.6 0 1.6-0.8 2.7-0.8 1.1-2.4 1.6 0.9 0.2 1.6 0.9 0.7 0.7 1.4 2.1l2.4 4.8h-4.7l-2-4.2q-0.6-1.2-1.3-1.7-0.6-0.4-1.6-0.4zm19.7 0.6h-2.1q-1.3 0-1.9 0.5-0.6 0.4-0.6 1.2 0 0.8 0.5 1.2 0.5 0.5 1.4 0.5 1.1 0 1.9-0.9 0.8-0.8 0.8-2zm4-1.5v7.2h-4v-1.9q-0.8 1.1-1.9 1.7-1 0.5-2.4 0.5-2 0-3.2-1.1-1.2-1.2-1.2-3 0-2.2 1.5-3.3 1.5-1 4.8-1h2.4v-0.3q0-1-0.8-1.4-0.7-0.4-2.3-0.4-1.3 0-2.4 0.2-1.1 0.3-2.1 0.8v-3.1q1.3-0.3 2.6-0.5 1.3-0.1 2.6-0.1 3.4 0 4.9 1.3 1.5 1.4 1.5 4.4zm12.3 5.9v-0.9q-0.8 1.1-1.8 1.6-1 0.6-2.3 0.6-2.3 0-3.8-1.8-1.5-1.9-1.5-4.7 0-2.8 1.5-4.6 1.5-1.8 3.8-1.8 1.3 0 2.3 0.5 1 0.5 1.8 1.6v-1.8h4.1v11.3q0 3-2 4.6-1.9 1.6-5.5 1.6-1.2 0-2.3-0.2-1.1-0.1-2.2-0.5v-3.1q1.1 0.6 2.1 0.9 1 0.3 2 0.3 2 0 2.9-0.9 0.9-0.9 0.9-2.7zm-2.6-8.7q-1.3 0-2 0.9-0.7 0.9-0.7 2.6 0 1.8 0.7 2.7 0.7 0.8 2 0.8 1.2 0 1.9-0.9 0.7-0.9 0.7-2.6 0-1.7-0.7-2.6-0.7-0.9-1.9-0.9zm23.1 3.6v1.2h-9.4q0.1 1.4 1 2.1 0.9 0.7 2.5 0.7 1.2 0 2.5-0.4 1.4-0.3 2.8-1.1v3.1q-1.4 0.5-2.9 0.8-1.4 0.3-2.8 0.3-3.4 0-5.3-1.7-1.9-1.8-1.9-4.9 0-3.1 1.8-4.9 1.9-1.7 5.2-1.7 2.9 0 4.7 1.8 1.8 1.7 1.8 4.7zm-9.4-1.3h5.2q0-1.1-0.6-1.8-0.7-0.7-1.8-0.7-1.1 0-1.9 0.6-0.7 0.7-0.9 1.9z"/>
			<path id="(d = 6.0)" class="s5" aria-label="(d = 6.0)"  d="m746.9 424.1h1.6q-1.4 2.3-2 4.6-0.7 2.3-0.7 4.7 0 2.4 0.7 4.7 0.6 2.3 2 4.7h-1.6q-1.6-2.4-2.3-4.8-0.8-2.3-0.8-4.6 0-2.3 0.8-4.6 0.7-2.3 2.3-4.7zm12.8 6.2v-6.3h1.9v16h-1.9v-1.7q-0.6 1-1.5 1.5-0.9 0.5-2.2 0.5-2 0-3.3-1.7-1.3-1.6-1.3-4.3 0-2.7 1.3-4.4 1.3-1.7 3.3-1.7 1.3 0 2.2 0.5 0.9 0.5 1.5 1.6zm-6.4 4q0 2 0.9 3.2 0.8 1.2 2.3 1.2 1.5 0 2.4-1.2 0.8-1.2 0.8-3.2 0-2.1-0.8-3.3-0.9-1.2-2.4-1.2-1.5 0-2.3 1.2-0.9 1.2-0.9 3.3zm19.1-2.1v-1.7h13.2v1.7zm0 4.2v-1.8h13.1v1.8zm29-4.9q-1.4 0-2.2 1-0.8 0.9-0.8 2.6 0 1.6 0.8 2.6 0.8 1 2.2 1 1.4 0 2.2-1 0.8-1 0.8-2.6 0-1.7-0.8-2.6-0.8-1-2.2-1zm4.1-6.5v1.9q-0.8-0.4-1.6-0.5-0.8-0.2-1.5-0.2-2.1 0-3.2 1.3-1.1 1.4-1.2 4.2 0.6-0.9 1.5-1.3 0.9-0.5 2-0.5 2.3 0 3.7 1.4 1.3 1.4 1.3 3.8 0 2.3-1.4 3.8-1.4 1.4-3.7 1.4-2.7 0-4.1-2-1.4-2.1-1.4-5.9 0-3.7 1.7-5.8 1.8-2.2 4.7-2.2 0.8 0 1.5 0.2 0.8 0.1 1.7 0.4zm4.6 15v-2.6h2.1v2.6zm11.1-13.9q-1.6 0-2.4 1.5-0.8 1.6-0.8 4.8 0 3.1 0.8 4.7 0.8 1.6 2.4 1.6 1.6 0 2.4-1.6 0.9-1.6 0.9-4.7 0-3.2-0.9-4.8-0.8-1.5-2.4-1.5zm0-1.7q2.6 0 4 2.1 1.3 2 1.3 5.9 0 3.8-1.3 5.9-1.4 2-4 2-2.5 0-3.9-2-1.4-2.1-1.4-5.9 0-3.9 1.4-5.9 1.4-2.1 3.9-2.1zm8.4-0.3h1.6q1.6 2.4 2.3 4.7 0.8 2.3 0.8 4.6 0 2.3-0.8 4.6-0.7 2.4-2.3 4.8h-1.6q1.4-2.4 2-4.7 0.7-2.3 0.7-4.7 0-2.4-0.7-4.7-0.6-2.3-2-4.6z"/>
			<path id="(d = 5.0)" class="s5" aria-label="(d = 5.0)"  d="m578.6 609.8h1.6q-1.3 2.3-1.9 4.5-0.7 2.2-0.7 4.4 0 2.3 0.7 4.5 0.6 2.2 1.9 4.4h-1.6q-1.4-2.3-2.2-4.5-0.7-2.2-0.7-4.4 0-2.2 0.7-4.4 0.8-2.2 2.2-4.5zm12.3 5.9v-5.9h1.8v15.2h-1.8v-1.6q-0.6 0.9-1.5 1.4-0.8 0.5-2 0.5-2 0-3.3-1.6-1.2-1.6-1.2-4.2 0-2.5 1.2-4.1 1.3-1.6 3.3-1.6 1.2 0 2 0.5 0.9 0.4 1.5 1.4zm-6.1 3.8q0 2 0.8 3.2 0.8 1.1 2.2 1.1 1.4 0 2.3-1.1 0.8-1.2 0.8-3.2 0-1.9-0.8-3.1-0.9-1.1-2.3-1.1-1.4 0-2.2 1.1-0.8 1.2-0.8 3.1zm18.2-1.9v-1.7h12.5v1.7zm0 4v-1.7h12.5v1.7zm23.2-3.9v-7.3h7.7v1.7h-5.9v3.6q0.4-0.2 0.8-0.3 0.5 0 0.9 0 2.4 0 3.9 1.3 1.4 1.3 1.4 3.6 0 2.4-1.5 3.7-1.4 1.3-4.1 1.3-0.9 0-1.9-0.2-0.9-0.1-1.9-0.4v-2q0.8 0.5 1.8 0.7 0.9 0.2 2 0.2 1.6 0 2.6-0.9 1-0.9 1-2.4 0-1.5-1-2.4-1-0.9-2.6-0.9-0.8 0-1.6 0.2-0.8 0.2-1.6 0.5zm12.7 7.3v-2.5h2v2.5zm10.6-13.3q-1.5 0-2.3 1.5-0.7 1.5-0.7 4.5 0 3 0.7 4.5 0.8 1.5 2.3 1.5 1.5 0 2.3-1.5 0.8-1.5 0.8-4.5 0-3-0.8-4.5-0.8-1.5-2.3-1.5zm0-1.5q2.5 0 3.7 1.9 1.3 1.9 1.3 5.6 0 3.7-1.3 5.6-1.2 2-3.7 2-2.4 0-3.7-2-1.3-1.9-1.3-5.6 0-3.7 1.3-5.6 1.3-1.9 3.7-1.9zm8-0.4h1.5q1.5 2.3 2.2 4.5 0.8 2.2 0.8 4.4 0 2.2-0.8 4.4-0.7 2.2-2.2 4.5h-1.5q1.3-2.2 1.9-4.4 0.7-2.2 0.7-4.5 0-2.2-0.7-4.4-0.6-2.2-1.9-4.5z"/>
			<path id="(d = 4.0)" class="s5" aria-label="(d = 4.0)"  d="m734.4 544.6h1.5q-1.3 2.1-1.9 4.2-0.6 2.1-0.6 4.2 0 2.2 0.6 4.3 0.7 2.1 1.9 4.2h-1.5q-1.4-2.2-2.1-4.3-0.7-2.1-0.7-4.2 0-2 0.7-4.1 0.7-2.1 2.1-4.3zm11.6 5.6v-5.6h1.7v14.4h-1.7v-1.6q-0.5 1-1.3 1.4-0.8 0.5-2 0.5-1.9 0-3.1-1.5-1.1-1.5-1.1-4 0-2.4 1.1-3.9 1.2-1.5 3.1-1.5 1.2 0 2 0.4 0.8 0.5 1.3 1.4zm-5.8 3.6q0 1.9 0.8 3 0.8 1 2.1 1 1.4 0 2.2-1 0.7-1.1 0.7-3 0-1.9-0.7-2.9-0.8-1.1-2.2-1.1-1.3 0-2.1 1.1-0.8 1-0.8 2.9zm17.3-1.9v-1.5h11.9v1.5zm0 3.8v-1.5h11.9v1.5zm27.1-1.5v-7.4l-4.7 7.4zm-6.2-0.3l5.7-8.8h2.4v9.1h1.9v1.5h-1.9v3.3h-1.9v-3.3h-6.2zm13.1 5.1v-2.3h2v2.3zm10.1-12.6q-1.5 0-2.2 1.4-0.8 1.4-0.8 4.3 0 2.8 0.8 4.3 0.7 1.4 2.2 1.4 1.4 0 2.1-1.4 0.8-1.5 0.8-4.3 0-2.9-0.8-4.3-0.7-1.4-2.1-1.4zm0-1.5q2.3 0 3.5 1.9 1.2 1.8 1.2 5.3 0 3.5-1.2 5.3-1.2 1.9-3.5 1.9-2.4 0-3.6-1.9-1.2-1.8-1.2-5.3 0-3.5 1.2-5.3 1.2-1.9 3.6-1.9zm7.5-0.3h1.5q1.4 2.2 2.1 4.3 0.7 2.1 0.7 4.1 0 2.1-0.7 4.2-0.7 2.1-2.1 4.3h-1.5q1.3-2.1 1.9-4.2 0.6-2.1 0.6-4.3 0-2.1-0.6-4.2-0.6-2.1-1.9-4.2z"/>
			<path id="(d = 3.0)" class="s5" aria-label="(d = 3.0)"  d="m250.2 596.3h1.4q-1.2 2.1-1.8 4-0.5 2-0.5 4 0 2.1 0.5 4.1 0.6 2 1.8 4h-1.4q-1.3-2.1-2-4.1-0.7-2-0.7-4 0-1.9 0.7-3.9 0.6-2 2-4.1zm11 5.4v-5.4h1.6v13.7h-1.6v-1.5q-0.5 0.9-1.3 1.3-0.8 0.5-1.9 0.5-1.7 0-2.9-1.5-1.1-1.4-1.1-3.7 0-2.3 1.1-3.8 1.2-1.4 2.9-1.4 1.1 0 1.9 0.4 0.8 0.5 1.3 1.4zm-5.5 3.4q0 1.8 0.7 2.8 0.8 1 2 1 1.3 0 2.1-1 0.7-1 0.7-2.8 0-1.8-0.7-2.8-0.8-1-2.1-1-1.2 0-2 1-0.7 1-0.7 2.8zm16.4-1.8v-1.5h11.2v1.5zm0 3.6v-1.5h11.3v1.5zm26.2-4q1.3 0.3 2 1.2 0.7 0.8 0.7 2.1 0 1.9-1.3 3-1.4 1.1-3.8 1.1-0.8 0-1.7-0.2-0.9-0.2-1.8-0.5v-1.7q0.7 0.4 1.6 0.6 0.9 0.3 1.8 0.3 1.7 0 2.6-0.7 0.9-0.7 0.9-1.9 0-1.2-0.9-1.8-0.8-0.7-2.2-0.7h-1.6v-1.4h1.6q1.4 0 2.1-0.6 0.6-0.5 0.6-1.5 0-1-0.7-1.5-0.7-0.6-2-0.6-0.8 0-1.6 0.2-0.8 0.2-1.8 0.5v-1.6q1-0.3 1.9-0.4 0.9-0.2 1.6-0.2 2.1 0 3.2 1 1.2 0.9 1.2 2.4 0 1.1-0.6 1.9-0.6 0.7-1.8 1zm6.1 7.1v-2.2h1.8v2.2zm9.6-12q-1.4 0-2.1 1.4-0.7 1.3-0.7 4.1 0 2.7 0.7 4 0.7 1.3 2.1 1.3 1.3 0 2-1.3 0.7-1.3 0.7-4 0-2.8-0.7-4.1-0.7-1.4-2-1.4zm0-1.4q2.2 0 3.3 1.8 1.2 1.7 1.2 5.1 0 3.3-1.2 5-1.1 1.8-3.3 1.8-2.2 0-3.4-1.8-1.2-1.7-1.2-5 0-3.4 1.2-5.1 1.2-1.8 3.4-1.8zm7.1-0.3h1.4q1.4 2.1 2 4.1 0.7 2 0.7 3.9 0 2-0.7 4-0.6 2-2 4.1h-1.4q1.2-2 1.8-4 0.6-2 0.6-4.1 0-2-0.6-4-0.6-1.9-1.8-4z"/>
			<path id="(d = 2.0)" class="s5" aria-label="(d = 2.0)"  d="m158.9 544.1h1.4q-1.1 1.9-1.7 3.8-0.5 1.8-0.5 3.8 0 1.9 0.5 3.8 0.6 1.8 1.7 3.7h-1.4q-1.2-1.9-1.8-3.8-0.6-1.9-0.6-3.7 0-1.9 0.6-3.8 0.6-1.8 1.8-3.8zm10.5 5v-5h1.5v12.9h-1.5v-1.4q-0.5 0.8-1.3 1.2-0.7 0.4-1.7 0.4-1.7 0-2.8-1.3-1-1.3-1-3.5 0-2.2 1-3.6 1.1-1.3 2.8-1.3 1 0 1.7 0.4 0.8 0.4 1.3 1.2zm-5.3 3.3q0 1.6 0.7 2.6 0.7 1 1.9 1 1.3 0 2-1 0.7-1 0.7-2.6 0-1.7-0.7-2.7-0.7-0.9-2-0.9-1.2 0-1.9 0.9-0.7 1-0.7 2.7zm15.5-1.7v-1.4h10.7v1.4zm0 3.4v-1.4h10.6v1.4zm21.1 1.5h5.9v1.4h-7.9v-1.4q1-1 2.6-2.7 1.7-1.6 2.1-2.1 0.8-0.9 1.1-1.5 0.3-0.7 0.3-1.3 0-1-0.7-1.6-0.7-0.6-1.8-0.6-0.8 0-1.6 0.3-0.9 0.2-1.9 0.8v-1.7q1-0.4 1.9-0.6 0.9-0.2 1.6-0.2 1.9 0 3.1 0.9 1.1 1 1.1 2.6 0 0.8-0.3 1.5-0.3 0.7-1 1.6-0.2 0.2-1.3 1.4-1.2 1.1-3.2 3.2zm9.4 1.4v-2.1h1.7v2.1zm9-11.3q-1.3 0-1.9 1.3-0.7 1.3-0.7 3.8 0 2.6 0.7 3.8 0.6 1.3 1.9 1.3 1.3 0 2-1.3 0.6-1.2 0.6-3.8 0-2.5-0.6-3.8-0.7-1.3-2-1.3zm0-1.3q2.1 0 3.2 1.6 1.1 1.7 1.1 4.8 0 3.1-1.1 4.8-1.1 1.6-3.2 1.6-2.1 0-3.2-1.6-1-1.7-1-4.8 0-3.1 1-4.8 1.1-1.6 3.2-1.6zm6.8-0.3h1.3q1.3 2 1.9 3.8 0.6 1.9 0.6 3.8 0 1.8-0.6 3.7-0.6 1.9-1.9 3.8h-1.3q1.1-1.9 1.7-3.7 0.5-1.9 0.5-3.8 0-2-0.5-3.8-0.6-1.9-1.7-3.8z"/>
			<path id="(d = 1.0)" class="s5" aria-label="(d = 1.0)"  d="m404.7 688.9h1.3q-1.1 1.8-1.6 3.5-0.5 1.8-0.5 3.6 0 1.8 0.5 3.6 0.5 1.7 1.6 3.5h-1.3q-1.2-1.8-1.7-3.6-0.6-1.8-0.6-3.5 0-1.8 0.6-3.5 0.5-1.8 1.7-3.6zm9.8 4.7v-4.8h1.4v12.2h-1.4v-1.3q-0.4 0.8-1.1 1.2-0.7 0.3-1.7 0.3-1.6 0-2.6-1.2-1-1.3-1-3.4 0-2 1-3.3 1-1.3 2.6-1.3 1 0 1.7 0.4 0.7 0.4 1.1 1.2zm-4.9 3q0 1.6 0.7 2.5 0.6 0.9 1.8 0.9 1.1 0 1.8-0.9 0.6-0.9 0.6-2.5 0-1.6-0.6-2.5-0.7-0.9-1.8-0.9-1.2 0-1.8 0.9-0.7 0.9-0.7 2.5zm14.6-1.6v-1.3h10v1.3zm0 3.3v-1.4h10v1.4zm18.8 2.7v-1.3h2.6v-8.9l-2.8 0.5v-1.4l2.8-0.6h1.5v10.4h2.6v1.3zm9.9 0v-2h1.7v2zm8.4-10.6q-1.2 0-1.8 1.2-0.6 1.2-0.6 3.6 0 2.4 0.6 3.6 0.6 1.2 1.8 1.2 1.3 0 1.9-1.2 0.6-1.2 0.6-3.6 0-2.4-0.6-3.6-0.6-1.2-1.9-1.2zm0-1.3q2 0 3 1.6 1.1 1.5 1.1 4.5 0 2.9-1.1 4.5-1 1.5-3 1.5-1.9 0-3-1.5-1-1.6-1-4.5 0-3 1-4.5 1.1-1.6 3-1.6zm6.4-0.2h1.3q1.1 1.8 1.7 3.6 0.6 1.7 0.6 3.5 0 1.7-0.6 3.5-0.6 1.8-1.7 3.6h-1.3q1-1.8 1.5-3.5 0.6-1.8 0.6-3.6 0-1.8-0.6-3.6-0.5-1.7-1.5-3.5z"/>
			<path id="Joy" class="s5" aria-label="Joy"  d="m603 598.4v-14.4h4.2v14.4q0 3-1.7 4.5-1.6 1.5-4.9 1.5h-0.8v-3.1h0.6q1.3 0 2-0.7 0.6-0.8 0.6-2.2zm13.8-8q-1.3 0-2 1-0.7 0.9-0.7 2.6 0 1.7 0.7 2.6 0.7 1 2 1 1.2 0 1.9-1 0.6-0.9 0.6-2.6 0-1.7-0.6-2.6-0.7-1-1.9-1zm0-2.7q3.1 0 4.8 1.7 1.8 1.6 1.8 4.6 0 3-1.8 4.6-1.7 1.7-4.8 1.7-3.2 0-4.9-1.7-1.8-1.6-1.8-4.6 0-3 1.8-4.6 1.7-1.7 4.9-1.7zm13.1 12.8l-5.3-12.5h3.8l3.2 8.1 2.8-8.1h3.8l-5 13.1q-0.8 2-1.8 2.9-1 0.7-2.7 0.7h-2.2v-2.5h1.2q1 0 1.4-0.3 0.5-0.3 0.7-1.1z"/>
			<path id="Grief" class="s5" aria-label="Grief"  d="m757.7 525.5v7.4q-1.5 0.7-3.1 1-1.6 0.4-3.3 0.4-3.8 0-6-2.1-2.3-2.2-2.3-5.8 0-3.7 2.3-5.9 2.3-2.1 6.3-2.1 1.5 0 2.9 0.3 1.4 0.3 2.6 0.9v3.1q-1.3-0.7-2.5-1.1-1.3-0.3-2.6-0.3-2.3 0-3.6 1.3-1.3 1.3-1.3 3.8 0 2.4 1.3 3.7 1.2 1.3 3.5 1.3 0.6 0 1.1 0 0.5-0.1 0.9-0.3v-3h-2.4v-2.6zm11.9-3.2v3.3q-0.5-0.2-1-0.3-0.5-0.1-0.9-0.1-1.5 0-2.2 0.9-0.8 0.9-0.8 2.6v5.3h-3.7v-11.5h3.7v1.9q0.7-1.1 1.6-1.6 1-0.6 2.2-0.6 0.2 0 0.4 0.1 0.3 0 0.7 0zm1.8 11.7v-11.5h3.7v11.5zm0-13v-3h3.6v3zm18.7 7.2v1.1h-8.6q0.2 1.3 1 1.9 0.8 0.7 2.2 0.7 1.2 0 2.4-0.4 1.2-0.3 2.5-1v2.8q-1.3 0.5-2.6 0.8-1.3 0.2-2.6 0.2-3.2 0-4.9-1.6-1.7-1.6-1.7-4.4 0-2.8 1.7-4.5 1.7-1.6 4.7-1.6 2.7 0 4.3 1.7 1.6 1.6 1.6 4.3zm-8.5-1.2h4.7q0-1-0.6-1.7-0.6-0.6-1.6-0.6-1 0-1.7 0.6-0.7 0.6-0.8 1.7zm16-9h2.8v2.5h-2q-0.8 0-1.1 0.2-0.3 0.3-0.3 1v0.8h3.2v2.6h-3.2v8.9h-3.7v-8.9h-1.8v-2.6h1.8v-0.8q0-1.9 1.1-2.8 1-0.9 3.2-0.9z"/>
			<path id="Trust" class="s5" aria-label="Trust"  d="m276.1 516.3v-2.9h13.4v2.9h-4.8v11.7h-3.8v-11.7zm21.2 0.6v3.1q-0.5-0.2-0.9-0.3-0.5-0.1-0.9-0.1-1.4 0-2.1 0.9-0.7 0.8-0.7 2.5v5h-3.5v-10.9h3.5v1.8q0.6-1.1 1.5-1.6 0.9-0.5 2.1-0.5 0.2 0 0.4 0 0.2 0 0.6 0.1zm1.6 6.8v-6.6h3.5v1.1q0 0.8 0 2.2 0 1.3 0 1.8 0 1.3 0.1 1.9 0 0.6 0.2 0.8 0.2 0.4 0.6 0.6 0.3 0.1 0.8 0.1 1.1 0 1.7-0.8 0.6-0.8 0.6-2.3v-5.4h3.5v10.9h-3.5v-1.6q-0.8 1-1.7 1.4-0.8 0.5-1.9 0.5-1.9 0-2.9-1.2-1-1.1-1-3.4zm22.9-6.3v2.7q-1.1-0.5-2.2-0.7-1-0.3-1.9-0.3-1 0-1.5 0.3-0.5 0.2-0.5 0.7 0 0.5 0.4 0.7 0.3 0.2 1.3 0.3l0.6 0.1q2.7 0.3 3.6 1.1 0.9 0.8 0.9 2.5 0 1.7-1.2 2.6-1.3 0.9-3.9 0.9-1.1 0-2.2-0.2-1.2-0.2-2.4-0.5v-2.7q1 0.6 2.1 0.8 1.1 0.3 2.3 0.3 1 0 1.5-0.3 0.5-0.3 0.5-0.9 0-0.4-0.3-0.7-0.4-0.2-1.5-0.3l-0.6-0.1q-2.3-0.3-3.2-1.1-1-0.8-1-2.4 0-1.7 1.2-2.6 1.2-0.8 3.7-0.8 0.9 0 2 0.1 1.1 0.2 2.3 0.5zm3.7-3.4h3.5v3.1h3.6v2.5h-3.6v4.6q0 0.8 0.3 1 0.3 0.3 1.2 0.3h1.8v2.5h-3q-2.1 0-2.9-0.9-0.9-0.8-0.9-2.9v-4.6h-1.7v-2.5h1.7z"/>
			<path id="Mom" class="s5" aria-label="Mom"  d="m169.7 540v-13.1h4.3l2.9 7 3.1-7h4.3v13.1h-3.2v-9.6l-3.1 7.1h-2.1l-3-7.1v9.6zm22.4-7.8q-1 0-1.6 0.7-0.5 0.8-0.5 2.2 0 1.4 0.5 2.2 0.6 0.7 1.6 0.7 1 0 1.6-0.7 0.5-0.8 0.5-2.2 0-1.4-0.5-2.2-0.6-0.7-1.6-0.7zm0-2.3q2.6 0 4 1.4 1.4 1.4 1.4 3.8 0 2.4-1.4 3.8-1.4 1.4-4 1.4-2.5 0-4-1.4-1.4-1.4-1.4-3.8 0-2.4 1.4-3.8 1.5-1.4 4-1.4zm16.8 1.9q0.6-0.9 1.4-1.4 0.9-0.5 1.8-0.5 1.7 0 2.6 1.1 0.9 1 0.9 3v6h-3.1v-5.1q0-0.1 0-0.3 0-0.1 0-0.3 0-1.1-0.3-1.5-0.3-0.5-1-0.5-0.9 0-1.4 0.7-0.5 0.8-0.5 2.2v4.8h-3.2v-5.1q0-1.7-0.3-2.1-0.2-0.5-1-0.5-0.9 0-1.4 0.7-0.5 0.8-0.5 2.2v4.8h-3.1v-9.8h3.1v1.4q0.6-0.8 1.4-1.3 0.7-0.4 1.6-0.4 1.1 0 1.8 0.5 0.8 0.5 1.2 1.4z"/>
			<path id="Friends" class="s5" aria-label="Friends"  d="m405.5 683v-11.7h8.1v2.3h-5.1v2.2h4.8v2.3h-4.8v4.9zm16.3-8.9v2.5q-0.4-0.1-0.8-0.2-0.3-0.1-0.7-0.1-1.1 0-1.7 0.7-0.5 0.7-0.5 2v4h-2.8v-8.8l2.8 0.1v1.4q0.5-0.9 1.2-1.3 0.7-0.4 1.7-0.4 0.1 0 0.3 0.1 0.1 0 0.4 0zm1.4 8.9v-8.8l2.8 0.1v8.7zm0-9.9v-2.3h2.8v2.3zm14.3 5.5v0.8h-6.6q0.1 1 0.7 1.5 0.6 0.5 1.7 0.5 0.9 0 1.8-0.3 1-0.3 1.9-0.8v2.2q-0.9 0.3-1.9 0.5-1 0.2-2 0.2-2.4 0-3.7-1.2-1.3-1.2-1.3-3.4 0-2.1 1.3-3.3 1.3-1.3 3.5-1.3 2.1 0 3.3 1.3 1.3 1.2 1.3 3.3zm-6.5-0.9h3.6q0-0.8-0.5-1.3-0.4-0.5-1.2-0.5-0.8 0-1.3 0.5-0.5 0.4-0.6 1.3zm17.4 0v5.3h-2.8v-0.9-3.2q0-1.1-0.1-1.5 0-0.5-0.2-0.7-0.1-0.2-0.4-0.4-0.3-0.2-0.6-0.2-0.9 0-1.4 0.7-0.5 0.7-0.5 1.9v4.3h-2.8v-8.7h2.8v1.2q0.6-0.7 1.3-1.1 0.7-0.4 1.6-0.4 1.5 0 2.3 1 0.8 0.9 0.8 2.7zm8.5-2.2v-4.7h2.8v12.2h-2.8v-1.3q-0.6 0.8-1.3 1.2-0.6 0.3-1.6 0.3-1.6 0-2.6-1.3-1.1-1.2-1.1-3.3 0-2 1.1-3.3 1-1.3 2.6-1.3 0.9 0 1.6 0.4 0.7 0.4 1.3 1.1zm-1.8 5.7q0.9 0 1.3-0.7 0.5-0.6 0.5-1.9 0-1.2-0.5-1.9-0.4-0.6-1.3-0.6-0.9 0-1.4 0.6-0.5 0.7-0.5 1.9 0 1.3 0.5 1.9 0.5 0.7 1.4 0.7zm14.2-6.7v2.1q-0.9-0.3-1.8-0.5-0.8-0.2-1.6-0.2-0.8 0-1.1 0.2-0.4 0.2-0.4 0.6 0 0.3 0.3 0.5 0.3 0.2 1 0.3l0.5 0.1q2.2 0.2 2.9 0.9 0.7 0.6 0.7 1.9 0 1.4-1 2.1-1 0.7-3.1 0.7-0.8 0-1.8-0.1-0.9-0.1-1.9-0.4v-2.1q0.9 0.4 1.8 0.6 0.8 0.2 1.7 0.2 0.9 0 1.3-0.3 0.4-0.2 0.4-0.6 0-0.4-0.3-0.6-0.3-0.2-1.1-0.3h-0.5q-1.9-0.3-2.6-0.9-0.8-0.6-0.8-1.9 0-1.4 1-2.1 0.9-0.7 2.9-0.7 0.8 0 1.6 0.2 0.9 0.1 1.9 0.3z"/>
			<path id="Anxiety" class="s5" aria-label="Anxiety"  d="m401.1 568l-1.2-3.5h-7.7l-1.2 3.5h-4.9l7-19h5.9l7 19zm-5-14.5l-2.6 7.5h5.2zm26.5 5.9v8.6h-4.6v-1.4-5.2q0-1.8-0.1-2.5 0-0.7-0.2-1.1-0.3-0.4-0.8-0.6-0.4-0.3-1-0.3-1.4 0-2.2 1.1-0.8 1.1-0.8 3v7h-4.6v-14.2h4.6v2.1q1-1.2 2.1-1.8 1.2-0.6 2.6-0.6 2.5 0 3.7 1.5 1.3 1.5 1.3 4.4zm2.4 8.6l5.4-7.2-5.1-7h4.8l2.9 4.2 2.9-4.2h4.9l-5.2 6.9 5.4 7.3h-4.8l-3.2-4.5-3.2 4.5zm18.6 0v-14.2h4.5v14.2zm0-16v-3.7h4.6v3.7zm23.1 8.9v1.3h-10.6q0.1 1.6 1.1 2.4 1 0.8 2.8 0.8 1.4 0 2.9-0.4 1.5-0.5 3.1-1.3v3.5q-1.6 0.6-3.2 0.9-1.6 0.3-3.2 0.3-3.9 0-6-1.9-2.2-2-2.2-5.6 0-3.4 2.1-5.4 2.1-2 5.8-2 3.4 0 5.4 2 2 2 2 5.4zm-10.6-1.5h5.9q0-1.3-0.7-2.1-0.8-0.8-2-0.8-1.3 0-2.2 0.7-0.8 0.8-1 2.2zm14.5-9.6h4.5v4h4.7v3.3h-4.7v6q0 1 0.4 1.3 0.4 0.4 1.6 0.4h2.3v3.2h-3.9q-2.7 0-3.8-1.1-1.1-1.1-1.1-3.8v-6h-2.3v-3.3h2.3zm16.4 18.8l-6.3-14.7h4.5l3.9 9.6 3.2-9.6h4.6l-6 15.5q-0.9 2.4-2.1 3.3-1.2 1-3.2 1h-2.6v-3h1.4q1.2 0 1.7-0.4 0.5-0.3 0.8-1.3z"/>
		</g>
	</g>
</svg>