<svg xmlns="http://www.w3.org/2000/svg" xml:space="preserve" width="90%" height="90%" version="1.1" viewBox="0 0 960 960">
<g clip-path="url(#a)">
  <g transform="translate(203.195 368.19)"><path fill="none" stroke="#292929" stroke-dasharray="none" stroke-linecap="butt" stroke-linejoin="miter" stroke-miterlimit="10" stroke-opacity="1" stroke-width="1" d="M0 0v29.516c0 3.887-3.297 4.353-5.023 4.353-3.66 0-4.529-4.433-11.222-4.433-5.757 0-10.425 4.673-10.425 10.429s4.668 10.429 10.425 10.429c6.693 0 7.562-4.433 11.222-4.433 1.726 0 5.023.466 5.023 4.353V79.73h29.516c3.887 0 4.353-3.297 4.353-5.023 0-3.66-4.433-4.529-4.433-11.222 0-5.757 4.673-10.425 10.429-10.425s10.429 4.668 10.429 10.425c0 6.693-4.433 7.562-4.433 11.222 0 1.726.466 5.023 4.353 5.023H79.73V50.214c0-3.887 3.297-4.353 5.023-4.353 3.66 0 4.529 4.433 11.222 4.433 5.757 0 10.425-4.673 10.425-10.429s-4.668-10.429-10.425-10.429c-6.693 0-7.562 4.433-11.222 4.433-1.726 0-5.023-.466-5.023-4.353V0H50.214c-3.887 0-4.353 3.297-4.353 5.023 0 3.66 4.433 4.529 4.433 11.222 0 5.756-4.673 10.425-10.429 10.425s-10.429-4.669-10.429-10.425c0-6.693 4.433-7.562 4.433-11.222 0-1.726-.466-5.023-4.353-5.023Z"></path></g>  
</g>
</svg>