<svg version="1.2" xmlns="http://www.w3.org/2000/svg" viewBox="0 0 1440 1440" width="1440" height="1440">
	<title>Language Model Conceptual</title>
	<style>
		tspan { white-space:pre } 
		.s0 { fill: #39256e;stroke: #231f20;stroke-miterlimit:10;stroke-width: 2 } 
		.s1 { fill: #fefefe;stroke: #231f20;stroke-miterlimit:10;stroke-width: 2 } 
		.s2 { fill: none;stroke: #050505;stroke-miterlimit:10;stroke-width: 2 } 
		.t3 { font-size: 18px;fill: #2c2e35;font-weight: bold;font-family: "Arial Narrow" } 
		.t4 { font-size: 18px;fill: #2c2e35;font-style: italic;font-family: "Arial Narrow" } 
		.t5 { font-size: 18px;fill: #2c2e35;font-family: "Arial Narrow" } 
		.t6 { font-size: 14px;fill: #2c2e35;font-weight: bold;font-family: "Arial Narrow" } 
		.t7 { font-size: 14px;fill: #2c2e35;font-style: italic;font-family: "Arial Narrow" } 
		.t8 { font-size: 14px;fill: #2c2e35;font-family: "Arial Narrow" } 
		.t9 { font-size: 12px;fill: #2c2e35;font-weight: bold;font-family: "Arial Narrow" } 
		.t10 { font-size: 12px;fill: #2c2e35;font-style: italic;font-family: "Arial Narrow" } 
		.t11 { font-size: 12px;fill: #2c2e35;font-family: "Arial Narrow" } 
		.t12 { font-size: 10px;fill: #2c2e35;font-weight: bold;font-family: "Arial Narrow" } 
		.t13 { font-size: 10px;fill: #2c2e35;font-style: italic;font-family: "Arial Narrow" } 
		.t14 { font-size: 10px;fill: #2c2e35;font-family: "Arial Narrow" } 
		.t15 { font-size: 11px;fill: #2c2e35;font-weight: bold;font-family: "Arial Narrow" } 
		.t16 { font-size: 11px;fill: #2c2e35;font-style: italic;font-family: "Arial Narrow" } 
		.t17 { font-size: 11px;fill: #2c2e35;font-family: "Arial Narrow" } 
	</style>
	<g id="Layer 1">
		<path id="&lt;Path&gt;" class="s0" d="m784.1 1196.2c-30.9-41.4-57.7-90.1-76.2-125.6-35.7-68.5-52.4-141.7-42.3-225.6l30.4-0.4c75.6-19.1 58.1-4.8 112-66.2 2.3 13.7-5.3 27.3 7.1 41-0.1-45.2 18.9-40.2 39.9-77.1-2.6 22-5.3 21.8 2.9 43.3 21.6-37.6 52-40.3 93.8-58.7 81.2-59.5 84.7-82 75.8-176 15.2 21.7 29.6 28.7 43.4 24.1-69.7-20.3-57.4-183.5-73.5-244.2-7.2-27.2-36.5-50.5-86.8-115.4l-45.1-58.2c-15.3-19.7-22.2-37.5-42.4-51.8-37.7-26.7-86.3-45.4-134.1-62.9-92.6-33.9-86.2-34.6-186.1-32.1-103.4-16.4-83.7-14.7-168 14.8-24.1 8.4-53.1 13.2-79.8 18-23.1 4.1-30.3 22.2-40.9 42.6-11.9 22.7 18.9 59.3 29.8 80.7-43.9 61.2-72.7 99.7-105.7 159-21.4 38.4-15.6 99-19 104-22.4 32.6-62.9 51.7-94.6 75.7-12.7 7.6-25.8 15.6-24.6 32.9 1.1 15.6 25.7 31.2 37.9 39.4 6.5 25.9 0.3 36.2-19.6 54.3-6.6 22.1 6.5 30.6 25.3 49.9-23.1 22.5-22.6 18.4-20 51.4l16.1 4.6c16.2 4.6 4.4 24.5-0.4 32.9-32.7 84.7 71.8 72.3 120.7 64.7 38.5-5.9 74.4 1.4 96.1 17.1 41.3 29.8 52.8 89.8 83.7 145.4 23.7 89.4 37.9 127.6 41 213.4 0.8 20.1 0.1 21.3-6.6 40.2-28.4 27.8-29.5 53.3-37.7 89.8-5.5 24.5-20.4 58.6-25.6 84"/>
		<path id="&lt;Path&gt;" class="s1" d="m700.4 996c-31.1-59.3-45.8-122.7-36.9-195.3l26.6-0.4c66-16.6 50.7-4.1 97.8-57.3 2.1 11.8-4.6 23.6 6.3 35.5-0.2-39.2 16.5-34.9 34.8-66.8-2.2 19.1-4.6 18.8 2.5 37.5 18.9-32.6 45.5-34.9 82-50.9 71-51.5 74.1-71 66.3-152.4 13.3 18.8 25.9 24.8 37.9 20.9-60.9-17.6-50.2-159-64.2-211.5-6.3-23.6-31.9-43.8-75.9-100l-39.4-50.4c-13.4-17.1-19.4-32.5-37.1-44.9-32.9-23.1-75.4-39.3-117.2-54.5-80.9-29.3-75.3-29.9-162.6-27.8-90.4-14.2-73.2-12.7-146.9 12.9-21.1 7.3-46.4 11.4-69.8 15.5-20.1 3.6-26.4 19.3-35.7 37-10.4 19.6 16.5 51.3 26 69.9-38.3 52.9-63.5 86.3-92.4 137.6-18.7 33.3-13.6 85.8-16.6 90.1-19.6 28.2-55 44.8-82.7 65.6-11 6.6-22.5 13.5-21.5 28.5 1 13.6 22.5 27 33.1 34.1 5.8 22.5 0.3 31.4-17.1 47.1-5.8 19.1 5.7 26.5 22.1 43.2-20.1 19.5-19.7 15.9-17.4 44.5l14 4c14.2 3.9 3.9 21.2-0.3 28.5-28.6 73.3 62.8 62.6 105.5 56 33.6-5.1 65 1.3 84 14.8 36.1 25.9 46.2 77.8 73.2 126 20.6 77.4 33.1 110.5 35.8 184.8 0.7 17.4 0.1 18.5-5.8 34.8-24.8 24.1-25.8 46.2-32.9 77.8-4.8 21.2-17.8 50.8-22.4 72.8-19.8 53.1-37.2 95.2-56.3 136.8h596.3c-25.1-119.9-65.6-254.2-126.4-335.1-27-36-50.5-78.1-66.7-108.9z"/>
		<path id="&lt;Path&gt;" class="s2" d="m635.1 164.6h81.4c10.8 0 12.1 8.6 12.1 13.1 0 9.6-12.3 11.8-12.3 29.3 0 15.1-5.7 27.3 28.8 27.3 34.5 0 28.8-12.2 28.8-27.3 0-17.5-12.2-19.7-12.2-29.3 0-4.5 1.3-13.1 12-13.1h81.5v77.1c0 10.2 9.1 11.4 13.8 11.4 10.1 0 12.5-11.6 31-11.6 15.9 0 28.8 12.2 28.8 27.3 0 15-12.9 27.2-28.8 27.2-18.5 0-20.9-11.6-31-11.6-4.7 0-13.8-10.6-13.8 11.4v77.2h-81.5c-10.7 0-12-8.7-12-13.2 0-9.5 12.2-11.8 12.2-29.3 0-15-12.9-27.2-28.8-27.2-15.9 0-28.8 12.2-28.8 27.2 0 17.5 12.3 19.8 12.3 29.3 0 4.5-1.3 13.2-12.1 13.2h-81.4"/>
		<path id="&lt;Path&gt;" class="s2" d="m640.4 727.7v43.1h-43.1c-5.6 0-6.3-4.9-6.3-7.4 0-5.3 6.5-6.6 6.5-16.3 0-8.4-6.9-15.2-15.2-15.2-8.4 0-15.2 6.8-15.2 15.2 0 9.7 6.4 11 6.4 16.3 0 2.5-0.7 7.4-6.3 7.4h-43"/>
		<path id="&lt;Path&gt;" class="s2" d="m631 654.6v43c0 5.6 4.8 6.3 7.3 6.3 5.4 0 6.6-6.4 16.4-6.4 8.4 0 15.2 6.8 15.2 15.2 0 8.3-21.2 15-29.5 15"/>
		<path id="&lt;Path&gt;" class="s2" d="m528.5 658.2c0 8.8-7.5 9.9-11.4 9.9-8.4 0-10.3-10.1-25.6-10.1-13.1 0-23.8 10.6-23.8 23.8 0 13.1 10.7 23.7 23.8 23.7 15.3 0 17.2-10.1 25.6-10.1 3.9 0 11.4 1.1 11.4 9.9v67.3"/>
		<path id="&lt;Path&gt;" class="s2" d="m976.4 588.1c-9.4 0-10.5-8-10.5-12.1 0-8.9 10.7-10.9 10.7-27.1 0-13.8-11.3-25.1-25.1-25.1-13.9 0-25.1 11.3-25.1 25.1 0 16.2 10.6 18.2 10.6 27.1 0 4.1-1.1 12.1-10.5 12.1h-71.1v-71.1"/>
		<path id="&lt;Path&gt;" class="s2" d="m855.4 467.1v-85.1h71.1c9.4 14 10.5 21.9 10.5 26.1 0 8.8-10.6 10.9-10.6 27 0 13.9 11.2 25.1 25.1 25.1"/>
		<g id="&lt;Group&gt;">
			<path id="&lt;Path&gt;" class="s2" d="m854.9 382.3v82.4c0 10.9-9.2 12.2-14 12.2-10.3 0-12.7-12.4-31.4-12.4-16.1 0-29.1 13.1-29.1 29.2 0 16 13 29.1 29.1 29.1 18.7 0 21.1-12.4 31.4-12.4 4.8 0 14 1.3 14 12.2v82.5h-82.5c-10.8 0-12.1 9.2-12.1 14 0 10.2 12.4 12.7 12.4 31.4 0 16-13.1 29.1-29.2 29.1"/>
			<path id="&lt;Path&gt;" class="s2" d="m743.5 679.6c-16.1 0-29.1-13.1-29.1-29.1 0-18.7 12.4-21.2 12.4-31.4 0-4.8-1.3-14-12.2-14h-82.5v-82.5c0-10.9 9.2-12.2 14-12.2 10.3 0 12.7 12.4 31.4 12.4 16.1 0 29.1-13.1 29.1-29.1 0-16.1-13-29.2-29.1-29.2-18.7 0-21.1 12.4-31.4 12.4-4.8 0-14-1.3-14-12.2"/>
		</g>
		<path id="&lt;Path&gt;" class="s2" d="m853.8 608.4v71.1c0 9.4 8.4 10.5 12.9 10.5 9.3 0 11.6-10.7 28.7-10.7 14.8 0 26.8 11.3 26.8 25.1"/>
		<path id="&lt;Path&gt;" class="s2" d="m169.4 778.9v-69c0-9.1-7.7-10.1-11.8-10.1-8.5 0-10.6 10.3-26.2 10.3-13.4 0-24.3-10.9-24.3-24.4 0-13.4 10.9-24.3 24.3-24.3 15.6 0 17.7 10.3 26.2 10.3 4.1 0 11.8-1.1 11.8-10.1v-69h68.9c9.1 0 10.2 7.7 10.2 11.7 0 8.6-10.3 10.6-10.3 26.3 0 13.4 10.9 24.3 24.3 24.3 13.5 0 24.4-10.9 24.4-24.3 0-15.7-10.4-17.7-10.4-26.3 0-4 1.1-11.7 10.2-11.7h69v69c0 9 7.7 10.1 11.7 10.1 8.6 0 10.6-10.3 26.2-10.3 13.5 0 24.4 10.9 24.4 24.3 0 13.5-10.9 24.4-24.4 24.4-15.6 0-17.6-10.3-26.2-10.3-4 0-11.7 1-11.7 10.1v69h-69c-9.1 0-10.2-7.7-10.2-11.7 0-8.6 10.4-10.6 10.4-26.3 0-13.4-10.9-24.3-24.4-24.3-13.4 0-24.3 10.9-24.3 24.3 0 15.7 10.3 17.7 10.3 26.3 0 4-1.1 11.7-10.2 11.7z"/>
		<path id="&lt;Path&gt;" class="s2" d="m464.5 595.8h63.3v63.3c0 8.3-7.1 9.3-10.8 9.3"/>
		<path id="&lt;Path&gt;" class="s2" d="m356.8 595.8h63.3"/>
		<path id="&lt;Path&gt;" class="s2" d="m632.9 90.7v142.2c0 18.7-15.9 21-24.2 21-17.7 0-21.9-21.4-54.1-21.4-27.7 0-50.2 22.5-50.2 50.3 0 27.7 22.5 50.2 50.2 50.2 32.2 0 36.4-21.3 54.1-21.3 8.3 0 24.2 2.2 24.2 20.9v142.2h-142.2c-18.8 0-21 15.9-21 24.2 0 17.7 21.3 21.9 21.3 54.1 0 27.7-22.5 50.2-50.2 50.2-27.7 0-50.2-22.5-50.2-50.2 0-32.2 21.3-49.6 21.3-54.1 0-2-2.2-24.2-21-24.2h-142.2v-142.2c0-18.7 15.9-20.9 24.2-20.9 17.7 0 21.8 21.3 54.1 21.3 27.7 0 50.2-22.5 50.2-50.2 0-27.8-22.5-50.3-50.2-50.3-32.3 0-36.4 21.4-54.1 21.4"/>
		<text id="    Risk  (d = 4.70)" style="transform: matrix(2.337,0,0,2.337,330.979,386.828)" >
			<tspan x="0" y="0" class="t3">    Risk 
</tspan>
			<tspan x="0" y="21.6" class="t3">(</tspan><tspan  y="21.6" class="t4">d</tspan><tspan  y="21.6" class="t3"> </tspan><tspan  y="21.6" class="t5">= 4.70</tspan><tspan  y="21.6" class="t3">)
</tspan>
		</text>
		<text id="“I” (d = 2.11)
" style="transform: matrix(2.337,0,0,2.337,617.579,284.782)" >
			<tspan x="0" y="0" class="t6">“I” (</tspan><tspan  y="0" class="t7">d</tspan><tspan  y="0" class="t6"> </tspan><tspan  y="0" class="t8">= 2.11</tspan><tspan  y="0" class="t6">)
</tspan>
		</text>
		<text id="     Negate
    (d = 1.00)
" style="transform: matrix(2.337,0,0,2.337,634.92,550.991)" >
			<tspan x="0" y="0" class="t9">     Negate
</tspan>
			<tspan x="0" y="14.4" class="t9">    (</tspan><tspan  y="14.4" class="t10">d</tspan><tspan  y="14.4" class="t9"> </tspan><tspan  y="14.4" class="t11">= 1.00</tspan><tspan  y="14.4" class="t9">)
</tspan>
		</text>
		<text id="Focus  Present     (d = 1.00)" style="transform: matrix(2.337,0,0,2.337,860.548,455.949)" >
			<tspan x="0" y="0" class="t12">Focus 
</tspan>
			<tspan x="0" y="12" class="t12">Present
</tspan>
			<tspan x="0" y="24" class="t12">    (</tspan><tspan  y="24" class="t13">d</tspan><tspan  y="24" class="t12"> </tspan><tspan  y="24" class="t14">= 1.00</tspan><tspan  y="24" class="t12">)
</tspan>
		</text>
		<text id="     Social
    (d = -1.00)
" style="transform: matrix(2.197,0,0,2.197,644.027,701.215)" >
			<tspan x="0" y="0" class="t15">     Social
</tspan>
			<tspan x="0" y="13.2" class="t15">    (</tspan><tspan  y="13.2" class="t16">d</tspan><tspan  y="13.2" class="t15"> </tspan><tspan  y="13.2" class="t17">= -1.00</tspan><tspan  y="13.2" class="t15">)
</tspan>
		</text>
		<text id="Analytic (d = -.94)
" style="transform: matrix(2.09,0,0,2.09,167.11,698.016)" >
			<tspan x="0" y="0" class="t15">Analytic (</tspan><tspan  y="0" class="t16">d</tspan><tspan  y="0" class="t15"> </tspan><tspan  y="0" class="t17">= -.94)
</tspan>
		</text>
		<text id="Discrepancy        (d = .78)" style="transform: matrix(2.167,0,0,2.167,358.988,732.889)" >
			<tspan x="0" y="0" class="t15">Discrepancy   
</tspan>
			<tspan x="0" y="13.2" class="t15">    (</tspan><tspan  y="13.2" class="t16">d</tspan><tspan  y="13.2" class="t15"> </tspan><tspan  y="13.2" class="t17">= .78)
</tspan>
		</text>
		<path id="&lt;Path&gt;" class="s2" d="m527.8 595.8l24.5-2.2c7.2-0.4-8.8-9-8.8-22.2 0-11.4 9.2-20.6 20.6-20.6 11.4 0 20.6 9.2 20.6 20.6 0 13.2-8.7 14.9-8.7 22.2 0 3.4 0.9 9.9 8.6 9.9h58.3"/>
		<text id="  Power  (d = -.64)" style="transform: matrix(2.337,0,0,2.337,496.695,504.843)" >
			<tspan x="0" y="0" class="t15">  Power 
</tspan>
			<tspan x="0" y="13.2" class="t15">(</tspan><tspan  y="13.2" class="t16">d</tspan><tspan  y="13.2" class="t15"> </tspan><tspan  y="13.2" class="t17">= -.64)
</tspan>
		</text>
		<text id="  “you”  (d = . " style="transform: matrix(2.337,0,0,2.337,516.445,666.313)" >
			<tspan x="0" y="0" class="t6">  “you”
</tspan>
			<tspan x="0" y="16.4" class="t6"> (d = .
</tspan>
		</text>
		<path id="&lt;Path&gt;" class="s2" d="m527 776h-64.1c-8.4 0-9.4 7.2-9.4 10.9 0 7.9 9.6 9.8 9.6 24.3 0 12.5-10.1 22.7-22.6 22.7-12.5 0-22.6-10.2-22.6-22.7 0-14.5 9.6-22.3 9.6-24.3 0-0.9-1-10.9-9.5-10.9h-64"/>
		<path id="&lt;Path&gt;" class="s2" d="m631.2 611.3v57.6"/>
		<path id="&lt;Path&gt;" class="s2" d="m635.3 773.6h42.6v35.6"/>
		<path id="&lt;Path&gt;" class="s2" d="m242.1 586.8v-81.2c0 5.6-6.2 4.7-9.5 4.7-6.9 0-8.5 8.3-21.1 8.3-10.8 0-19.6-8.7-19.6-19.6 0-10.8 8.8-19.6 19.6-19.6 12.6 0 14.2 8.4 21.1 8.4 3.3 0 9.5-0.9 9.5-8.2"/>
		<text id="Lack
(d = .56)
" style="transform: matrix(2.337,0,0,2.337,263.276,517.96)" >
			<tspan x="0" y="0" class="t15">Lack
</tspan>
			<tspan x="0" y="13.2" class="t15">(</tspan><tspan  y="13.2" class="t16">d</tspan><tspan  y="13.2" class="t15"> </tspan><tspan  y="13.2" class="t17">= .56)
</tspan>
		</text>
		<text id="Focus Past
   (d = -.38)
" style="transform: matrix(2.015,0,0,2.015,103.726,541.244)" >
			<tspan x="0" y="0" class="t15">Focus Past
</tspan>
			<tspan x="0" y="13.2" class="t15">   (</tspan><tspan  y="13.2" class="t16">d</tspan><tspan  y="13.2" class="t15"> </tspan><tspan  y="13.2" class="t17">= -.38)
</tspan>
		</text>
	</g>
</svg>