<?xml version="1.0" standalone="no"?>
<!DOCTYPE svg PUBLIC "-//W3C//DTD SVG 20010904//EN"
 "http://www.w3.org/TR/2001/REC-SVG-20010904/DTD/svg10.dtd">
<svg version="1.0" xmlns="http://www.w3.org/2000/svg"
 width="1080.000000pt" height="1080.000000pt" viewBox="0 0 1080.000000 1080.000000"
 preserveAspectRatio="xMidYMid meet">

<g transform="translate(0.000000,0) scale(0.100000,-0.100000)"
fill="orange" stroke="none">
<path d="M4880 8779 c-350 -42 -588 -114 -845 -253 -221 -119 -411 -291 -601
-541 -178 -236 -287 -429 -697 -1235 -91 -179 -194 -374 -229 -435 -142 -246
-187 -398 -155 -528 9 -36 49 -135 91 -219 94 -194 108 -235 109 -328 0 -97
-24 -145 -133 -260 -220 -231 -467 -614 -545 -845 -26 -76 -31 -169 -12 -199
24 -36 120 -106 220 -162 49 -27 104 -58 123 -69 19 -10 55 -40 80 -67 38 -41
44 -53 44 -90 0 -28 -9 -60 -25 -88 -80 -143 -115 -241 -115 -327 0 -67 10
-91 56 -136 l38 -37 -22 -38 c-51 -92 -48 -186 10 -235 133 -115 156 -139 186
-195 26 -49 32 -71 32 -121 0 -75 -11 -103 -82 -207 -159 -232 -142 -407 49
-507 142 -74 201 -80 808 -82 484 -1 514 -2 596 -22 154 -38 228 -103 248
-218 6 -33 13 -73 16 -90 3 -16 10 -118 14 -227 9 -192 10 -198 42 -267 l33
-71 200 0 c191 0 199 1 176 17 -306 209 -325 248 -350 703 -14 268 -30 317
-120 372 -95 57 -157 63 -670 63 -500 1 -559 5 -680 52 -124 49 -194 123 -207
221 -10 73 41 211 113 307 108 144 78 264 -104 414 -29 25 -60 57 -68 72 -22
43 -17 99 14 159 l27 54 -37 36 c-70 69 -62 177 27 356 65 130 70 167 26 216
-16 18 -69 55 -117 83 -143 79 -216 129 -257 173 -32 36 -37 49 -37 90 1 123
146 411 339 672 63 85 196 243 236 280 37 35 65 92 72 150 8 65 -23 161 -96
309 -111 221 -122 291 -72 440 30 88 50 129 163 331 36 63 138 259 228 435 89
176 169 325 176 331 8 6 14 18 14 27 0 18 183 355 244 450 20 31 44 57 52 57
10 0 14 6 10 15 -17 44 242 348 424 497 261 213 647 353 1073 388 228 18 541
8 752 -25 50 -8 124 -19 165 -25 305 -44 801 -182 1065 -295 386 -165 703
-388 918 -644 187 -223 385 -587 482 -886 96 -296 125 -449 136 -715 5 -118
11 -249 15 -291 12 -151 -31 -455 -97 -679 -32 -109 -66 -193 -151 -370 -110
-228 -143 -294 -168 -334 -26 -40 -285 -456 -341 -546 -54 -89 -167 -299 -207
-386 -61 -134 -71 -160 -109 -274 -98 -296 -60 -503 146 -805 116 -170 172
-242 319 -403 110 -121 512 -334 463 -245 -5 10 -92 101 -193 203 -229 231
-349 391 -472 626 -34 65 -38 79 -43 180 -14 269 78 645 205 833 71 107 140
224 174 297 17 38 80 146 138 239 59 94 122 197 142 230 107 179 399 742 426
820 115 335 145 857 71 1230 -11 55 -29 115 -39 132 -11 18 -33 81 -50 140
-17 60 -39 115 -48 123 -10 8 -31 56 -46 105 -44 142 -111 307 -193 475 -217
441 -456 721 -838 981 -170 117 -406 236 -620 315 -66 25 -136 51 -155 59
-122 48 -543 156 -765 196 -215 39 -283 48 -496 69 -265 25 -506 24 -719 -1z"/>
</g>
</svg>
