<svg version="1.2" xmlns="http://www.w3.org/2000/svg" viewBox="0 0 1440 1440" width="1440" height="1440">
	<title>Language Model Conceptual</title>
	<style>
		.s0 { fill: #39256e;stroke: #231f20;stroke-miterlimit:10;stroke-width: 2 }
		.s1 { fill: #fefefe;stroke: #231f20;stroke-miterlimit:10;stroke-width: 2 }
	</style>
	<g id="Layer 1">
		<path id="&lt;Path&gt;" class="s1" d="m935.4 996c-31.1-59.3-45.8-122.7-36.9-195.3l26.6-0.4c66-16.6 50.7-4.1 97.8-57.3 2.1 11.8-4.6 23.6 6.3 35.5-0.2-39.2 16.5-34.9 34.8-66.8-2.2 19.1-4.6 18.8 2.5 37.5 18.9-32.6 45.5-34.9 82-50.9 71-51.5 74.1-71 66.3-152.4 13.3 18.8 25.9 24.8 37.9 20.9-60.9-17.6-50.2-159-64.2-211.5-6.3-23.6-31.9-43.8-75.9-100l-39.4-50.4c-13.4-17.1-19.4-32.5-37.1-44.9-32.9-23.1-75.4-39.3-117.2-54.5-80.9-29.3-75.3-29.9-162.6-27.8-90.4-14.2-73.2-12.7-146.9 12.9-21.1 7.3-46.4 11.4-69.8 15.5-20.1 3.6-26.4 19.3-35.7 37-10.4 19.6 16.5 51.3 26 69.9-38.3 52.9-63.5 86.3-92.4 137.6-18.7 33.3-13.6 85.8-16.6 90.1-19.6 28.2-55 44.8-82.7 65.6-11 6.6-22.5 13.5-21.5 28.5 1 13.6 22.5 27 33.1 34.1 5.8 22.5 0.3 31.4-17.1 47.1-5.8 19.1 5.7 26.5 22.1 43.2-20.1 19.5-19.7 15.9-17.4 44.5l14 4c14.2 3.9 3.9 21.2-0.3 28.5-28.6 73.3 62.8 62.6 105.5 56 33.6-5.1 65 1.3 84 14.8 36.1 25.9 46.2 77.8 73.2 126 20.6 77.4 33.1 110.5 35.8 184.8 0.7 17.4 0.1 18.5-5.8 34.8-24.8 24.1-25.8 46.2-32.9 77.8-4.8 21.2-17.8 50.8-22.4 72.8-19.8 53.1-37.2 95.2-56.3 136.8h596.3c-25.1-119.9-65.6-254.2-126.4-335.1-27-36-50.5-78.1-66.7-108.9z"/>
	</g>
</svg>