<svg version="1.2" xmlns="http://www.w3.org/2000/svg" viewBox="0 0 865 1440" width="865" height="1440">
	<title>Language Model Conceptual</title>
	<style>
		.s0 { fill: white;stroke: #050505;stroke-miterlimit:10;stroke-width: 2 ;} 
	</style>
	<g id="Layer 1">
		<path id="&lt;Path&gt;" class="s0" d="m1 288.5h319.3c42.1 0 47.1-35.6 47.1-54.3 0-39.6-47.9-49-47.9-121.4 0-62.3 50.5-112.8 112.8-112.8 62.3 0 112.8 50.5 112.8 112.8 0 72.4-47.9 81.8-47.9 121.4 0 18.7 5 54.3 47.1 54.3h319.3v319.4c0 42-35.7 47.1-54.4 47.1-39.6 0-49-48-121.4-48-62.3 0-112.8 50.5-112.8 112.8 0 62.3 50.5 112.8 112.8 112.8 72.4 0 81.8-47.9 121.4-47.9 18.7 0 54.4 5 54.4 47.1v319.3h-319.3c-42.1 0-47.1 35.7-47.1 54.4 0 39.5 47.9 48.9 47.9 121.4 0 62.2-50.5 112.7-112.8 112.7-62.3 0-112.8-50.5-112.8-112.7 0-72.5 47.9-81.9 47.9-121.4 0-18.7-5-54.4-47.1-54.4h-319.3v-319.3c0-42.1 35.7-47.1 54.3-47.1 39.6 0 49 47.9 121.5 47.9 62.2 0 112.7-50.5 112.7-112.8 0-62.3-50.5-112.8-112.7-112.8-72.5 0-81.9 48-121.5 48-18.6 0-54.3-5.1-54.3-47.1z"/>
	</g>
</svg>